{"asset":{"generator":"Khronos glTF Blender I/O v3.6.27","version":"2.0"},"scene":0,"scenes":[{"nodes":[0]}],"nodes":[{"name":"metal_trash_can","rotation":[0.7071067811865476,0,0,0.7071067811865476],"children":[1,2,3,4]},{"mesh":0,"name":"metal_trash_can","translation":[0.0,0,0]},{"mesh":1,"name":"metal_trash_can_lid","rotation":[0,0,0,1],"translation":[0.0,0.906,0]},{"mesh":2,"name":"metal_trash_can_handle_left","rotation":[0,0,-0.793353259563446,0.6087616086006165],"translation":[-0.27300161123275757,0.6497123837471008,-0.00019631585746537894]},{"mesh":3,"name":"metal_trash_can_handle_right","rotation":[0,0,-0.793353259563446,0.6087616086006165],"translation":[0.29457467794418335,0.6497123837471008,-0.00019631585746537894]}],"materials":[{"doubleSided":true,"name":"metal_trash_can","normalTexture":{"index":0},"pbrMetallicRoughness":{"baseColorTexture":{"index":1},"metallicRoughnessTexture":{"index":2}}},{"doubleSided":true,"name":"metal_trash_can_rust","normalTexture":{"index":3},"pbrMetallicRoughness":{"baseColorTexture":{"index":4},"metallicRoughnessTexture":{"index":5}}},{"doubleSided":true,"name":"metal_trash_can_rust","normalTexture":{"index":6},"pbrMetallicRoughness":{"baseColorTexture":{"index":7},"metallicRoughnessTexture":{"index":8}}}],"meshes":[{"name":"Cylinder","primitives":[{"attributes":{"POSITION":1,"NORMAL":2,"TEXCOORD_0":3},"indices":0,"material":0}]},{"name":"Cylinder.002","primitives":[{"attributes":{"POSITION":5,"NORMAL":6,"TEXCOORD_0":7},"indices":4,"material":0}]},{"name":"Cylinder.003","primitives":[{"attributes":{"POSITION":9,"NORMAL":10,"TEXCOORD_0":11},"indices":8,"material":0}]},{"name":"Cylinder.001","primitives":[{"attributes":{"POSITION":12,"NORMAL":13,"TEXCOORD_0":14},"indices":8,"material":0}]}],"textures":[{"sampler":0,"source":0},{"sampler":0,"source":1},{"sampler":0,"source":2},{"sampler":0,"source":3},{"sampler":0,"source":4},{"sampler":0,"source":5},{"sampler":0,"source":3},{"sampler":0,"source":4},{"sampler":0,"source":5}],"images":[{"mimeType":"image/jpeg","name":"metal_trash_can_nor_gl","uri":"textures/metal_trash_can_nor_gl_1k.jpg"},{"mimeType":"image/jpeg","name":"metal_trash_can_diff","uri":"textures/metal_trash_can_diff_1k.jpg"},{"mimeType":"image/jpeg","name":"metal_trash_can_metal-metal_trash_can_rough","uri":"textures/metal_trash_can_arm_1k.jpg"},{"mimeType":"image/jpeg","name":"metal_trash_can_rust_nor_gl","uri":"textures/metal_trash_can_rust_nor_gl_1k.jpg"},{"mimeType":"image/jpeg","name":"metal_trash_can_rust_diff","uri":"textures/metal_trash_can_rust_diff_1k.jpg"},{"mimeType":"image/jpeg","name":"metal_trash_can_rust_metal-metal_trash_can_rust_rough","uri":"textures/metal_trash_can_rust_arm_1k.jpg"}],"accessors":[{"bufferView":0,"componentType":5123,"count":12144,"type":"SCALAR"},{"bufferView":1,"componentType":5126,"count":2883,"max":[0.30671587586402893,0.9062314629554749,0.2762044072151184],"min":[-0.30671584606170654,7.153064507292584e-05,-0.2761646807193756],"type":"VEC3"},{"bufferView":2,"componentType":5126,"count":2883,"type":"VEC3"},{"bufferView":3,"componentType":5126,"count":2883,"type":"VEC2"},{"bufferView":4,"componentType":5123,"count":4644,"type":"SCALAR"},{"bufferView":5,"componentType":5126,"count":989,"max":[0.278107225894928,0.07810896635055542,0.278152197599411],"min":[-0.2781825065612793,-0.03683269023895264,-0.27813759446144104],"type":"VEC3"},{"bufferView":6,"componentType":5126,"count":989,"type":"VEC3"},{"bufferView":7,"componentType":5126,"count":989,"type":"VEC2"},{"bufferView":8,"componentType":5123,"count":1248,"type":"SCALAR"},{"bufferView":9,"componentType":5126,"count":243,"max":[0.008622199296951294,0.007861060090363026,0.09275384247303009],"min":[-0.06748970597982407,-0.07104594260454178,-0.09275379776954651],"type":"VEC3"},{"bufferView":10,"componentType":5126,"count":243,"type":"VEC3"},{"bufferView":11,"componentType":5126,"count":243,"type":"VEC2"},{"bufferView":12,"componentType":5126,"count":243,"max":[0.013925299048423767,0.01065035443753004,0.09275379776954651],"min":[-0.08598337322473526,-0.05292487516999245,-0.09275384247303009],"type":"VEC3"},{"bufferView":13,"componentType":5126,"count":243,"type":"VEC3"},{"bufferView":14,"componentType":5126,"count":243,"type":"VEC2"}],"bufferViews":[{"buffer":0,"byteLength":24288,"byteOffset":143464,"target":34963},{"buffer":0,"byteLength":34596,"byteOffset":51208,"target":34962},{"buffer":0,"byteLength":34596,"byteOffset":85804,"target":34962},{"buffer":0,"byteLength":23064,"byteOffset":120400,"target":34962},{"buffer":0,"byteLength":9288,"byteOffset":41920,"target":34963},{"buffer":0,"byteLength":11868,"byteOffset":10272,"target":34962},{"buffer":0,"byteLength":11868,"byteOffset":22140,"target":34962},{"buffer":0,"byteLength":7912,"byteOffset":34008,"target":34962},{"buffer":0,"byteLength":2496,"byteOffset":7776,"target":34963},{"buffer":0,"byteLength":2916,"byteOffset":0,"target":34962},{"buffer":0,"byteLength":2916,"byteOffset":2916,"target":34962},{"buffer":0,"byteLength":1944,"byteOffset":5832,"target":34962},{"buffer":0,"byteLength":2916,"byteOffset":167752,"target":34962},{"buffer":0,"byteLength":2916,"byteOffset":170668,"target":34962},{"buffer":0,"byteLength":1944,"byteOffset":173584,"target":34962}],"samplers":[{"magFilter":9729,"minFilter":9987}],"buffers":[{"byteLength":378288,"uri":"metal_trash_can.bin"}]}
