{"asset":{"version":"2.0","generator":"prepare_city_assets.py"},"scene":0,"scenes":[{"nodes":[0]}],"nodes":[{"name":"fairheaven_lt80","mesh":0}],"meshes":[{"name":"fairheaven_lt80","primitives":[{"attributes":{"POSITION":0,"NORMAL":1,"TEXCOORD_0":2},"indices":3,"material":0},{"attributes":{"POSITION":4,"NORMAL":5,"TEXCOORD_0":6},"indices":7,"material":1},{"attributes":{"POSITION":8,"NORMAL":9,"TEXCOORD_0":10},"indices":11,"material":2},{"attributes":{"POSITION":12,"NORMAL":13,"TEXCOORD_0":14},"indices":15,"material":3},{"attributes":{"POSITION":16,"NORMAL":17,"TEXCOORD_0":18},"indices":19,"material":4},{"attributes":{"POSITION":20,"NORMAL":21,"TEXCOORD_0":22},"indices":23,"material":5},{"attributes":{"POSITION":24,"NORMAL":25,"TEXCOORD_0":26},"indices":27,"material":6},{"attributes":{"POSITION":28,"NORMAL":29,"TEXCOORD_0":30},"indices":31,"material":7}]}],"materials":[{"doubleSided":true,"name":"Fairheaven_LT80_Bodymat","occlusionTexture":{"index":0},"pbrMetallicRoughness":{"baseColorFactor":[0.55,0.56,0.58,1],"roughnessFactor":0.3,"metallicFactor":0.15}},{"doubleSided":true,"extensions":{"KHR_materials_specular":{"specularColorFactor":[1.0,1.0,1.0],"specularFactor":1.0,"specularTexture":{"index":5}}},"name":"UCB_BOTTOM_GT","normalTexture":{"index":4},"occlusionTexture":{"index":3},"pbrMetallicRoughness":{"baseColorTexture":{"index":2},"metallicRoughnessTexture":{"index":3}}},{"alphaMode":"BLEND","doubleSided":true,"name":"UCB_Lights_and_Glass_Transperent","pbrMetallicRoughness":{"baseColorFactor":[1.0,1.0,1.0,0.7],"baseColorTexture":{"index":6},"metallicFactor":0.0,"roughnessFactor":0.1}},{"doubleSided":true,"name":"UCB_Lights_and_Glass","pbrMetallicRoughness":{"baseColorTexture":{"index":6},"metallicFactor":0.2,"roughnessFactor":0.1}},{"doubleSided":true,"name":"RB1c_Tire_1k","occlusionTexture":{"index":8},"pbrMetallicRoughness":{"baseColorTexture":{"index":7},"metallicFactor":0.8,"metallicRoughnessTexture":{"index":8}}},{"alphaMode":"BLEND","doubleSided":true,"name":"Numberplates_Misk_U","pbrMetallicRoughness":{"baseColorTexture":{"index":9},"metallicFactor":0.0,"roughnessFactor":0.10702864035024488}},{"alphaMode":"BLEND","doubleSided":true,"name":"Carbadges_misc_U","pbrMetallicRoughness":{"baseColorTexture":{"index":10},"metallicFactor":0.8377716727391228,"roughnessFactor":0.10702864035024488}},{"doubleSided":true,"extensions":{"KHR_materials_specular":{"specularColorFactor":[1.0,1.0,1.0],"specularFactor":1.0,"specularTexture":{"index":5}}},"name":"UCB_Interior_Trim","normalTexture":{"index":4},"occlusionTexture":{"index":11},"pbrMetallicRoughness":{"baseColorTexture":{"index":2},"metallicRoughnessTexture":{"index":11}}}],"textures":[{"sampler":0,"source":0},{"sampler":0,"source":1},{"sampler":0,"source":2},{"sampler":0,"source":3},{"sampler":0,"source":4},{"sampler":0,"source":5},{"sampler":0,"source":6},{"sampler":0,"source":7},{"sampler":0,"source":8},{"sampler":0,"source":9},{"sampler":0,"source":10},{"sampler":0,"source":11}],"images":[{"uri":"textures/Fairheaven_LT80_Bodymat_metallicRoughness.jpg"},{"uri":"textures/Fairheaven_LT80_Bodymat_specularf0.jpg"},{"uri":"textures/UCB_BOTTOM_GT_baseColor.jpg"},{"uri":"textures/UCB_BOTTOM_GT_metallicRoughness.jpg"},{"uri":"textures/UCB_BOTTOM_GT_normal.jpg"},{"uri":"textures/UCB_BOTTOM_GT_specularf0.jpg"},{"uri":"textures/UCB_Lights_and_Glass_Transperent_baseColor.png"},{"uri":"textures/RB1c_Tire_1k_baseColor.jpg"},{"uri":"textures/RB1c_Tire_1k_metallicRoughness.jpg"},{"uri":"textures/Numberplates_Misk_U_baseColor.png"},{"uri":"textures/Carbadges_misc_U_baseColor.png"},{"uri":"textures/UCB_Interior_Trim_metallicRoughness.jpg"}],"samplers":[{"magFilter":9729,"minFilter":9987,"wrapS":10497,"wrapT":10497}],"buffers":[{"uri":"model.bin","byteLength":803628}],"bufferViews":[{"buffer":0,"byteOffset":0,"byteLength":55008,"target":34962},{"buffer":0,"byteOffset":55008,"byteLength":55008,"target":34962},{"buffer":0,"byteOffset":110016,"byteLength":36672,"target":34962},{"buffer":0,"byteOffset":146688,"byteLength":67224,"target":34963},{"buffer":0,"byteOffset":213912,"byteLength":69396,"target":34962},{"buffer":0,"byteOffset":283308,"byteLength":69396,"target":34962},{"buffer":0,"byteOffset":352704,"byteLength":46264,"target":34962},{"buffer":0,"byteOffset":398968,"byteLength":76440,"target":34963},{"buffer":0,"byteOffset":475408,"byteLength":4248,"target":34962},{"buffer":0,"byteOffset":479656,"byteLength":4248,"target":34962},{"buffer":0,"byteOffset":483904,"byteLength":2832,"target":34962},{"buffer":0,"byteOffset":486736,"byteLength":4344,"target":34963},{"buffer":0,"byteOffset":491080,"byteLength":2112,"target":34962},{"buffer":0,"byteOffset":493192,"byteLength":2112,"target":34962},{"buffer":0,"byteOffset":495304,"byteLength":1408,"target":34962},{"buffer":0,"byteOffset":496712,"byteLength":2016,"target":34963},{"buffer":0,"byteOffset":498728,"byteLength":37584,"target":34962},{"buffer":0,"byteOffset":536312,"byteLength":37584,"target":34962},{"buffer":0,"byteOffset":573896,"byteLength":25056,"target":34962},{"buffer":0,"byteOffset":598952,"byteLength":41376,"target":34963},{"buffer":0,"byteOffset":640328,"byteLength":2304,"target":34962},{"buffer":0,"byteOffset":642632,"byteLength":2304,"target":34962},{"buffer":0,"byteOffset":644936,"byteLength":1536,"target":34962},{"buffer":0,"byteOffset":646472,"byteLength":1920,"target":34963},{"buffer":0,"byteOffset":648392,"byteLength":1368,"target":34962},{"buffer":0,"byteOffset":649760,"byteLength":1368,"target":34962},{"buffer":0,"byteOffset":651128,"byteLength":912,"target":34962},{"buffer":0,"byteOffset":652040,"byteLength":768,"target":34963},{"buffer":0,"byteOffset":652808,"byteLength":40668,"target":34962},{"buffer":0,"byteOffset":693476,"byteLength":40668,"target":34962},{"buffer":0,"byteOffset":734144,"byteLength":27112,"target":34962},{"buffer":0,"byteOffset":761256,"byteLength":42372,"target":34963}],"accessors":[{"bufferView":0,"componentType":5126,"count":4584,"type":"VEC3","min":[-2.392169237136841,-0.8828276991844177,0.22579020261764526],"max":[2.3545782566070557,0.8832559585571289,1.3494625091552734]},{"bufferView":1,"componentType":5126,"count":4584,"type":"VEC3"},{"bufferView":2,"componentType":5126,"count":4584,"type":"VEC2"},{"bufferView":3,"componentType":5125,"count":16806,"type":"SCALAR"},{"bufferView":4,"componentType":5126,"count":5783,"type":"VEC3","min":[-2.5006260871887207,-0.9162462949752808,0.16241413354873657],"max":[2.5006260871887207,0.9162462949752808,1.3142372369766235]},{"bufferView":5,"componentType":5126,"count":5783,"type":"VEC3"},{"bufferView":6,"componentType":5126,"count":5783,"type":"VEC2"},{"bufferView":7,"componentType":5125,"count":19110,"type":"SCALAR"},{"bufferView":8,"componentType":5126,"count":354,"type":"VEC3","min":[-2.369823455810547,-0.7580248117446899,0.5638974905014038],"max":[2.3111815452575684,0.7584004402160645,1.3009394407272339]},{"bufferView":9,"componentType":5126,"count":354,"type":"VEC3"},{"bufferView":10,"componentType":5126,"count":354,"type":"VEC2"},{"bufferView":11,"componentType":5125,"count":1086,"type":"SCALAR"},{"bufferView":12,"componentType":5126,"count":176,"type":"VEC3","min":[-2.3698232173919678,-0.7607762217521667,0.5515865683555603],"max":[2.2668001651763916,0.7612537145614624,0.7552269697189331]},{"bufferView":13,"componentType":5126,"count":176,"type":"VEC3"},{"bufferView":14,"componentType":5126,"count":176,"type":"VEC2"},{"bufferView":15,"componentType":5125,"count":504,"type":"SCALAR"},{"bufferView":16,"componentType":5126,"count":3132,"type":"VEC3","min":[-1.5211340188980103,-0.8449310064315796,0.0],"max":[1.7366573810577393,0.8430473804473877,0.6072543859481812]},{"bufferView":17,"componentType":5126,"count":3132,"type":"VEC3"},{"bufferView":18,"componentType":5126,"count":3132,"type":"VEC2"},{"bufferView":19,"componentType":5125,"count":10344,"type":"SCALAR"},{"bufferView":20,"componentType":5126,"count":192,"type":"VEC3","min":[-2.3745765686035156,-0.7375919818878174,0.30118945240974426],"max":[2.4004924297332764,0.15020397305488586,0.7428570985794067]},{"bufferView":21,"componentType":5126,"count":192,"type":"VEC3"},{"bufferView":22,"componentType":5126,"count":192,"type":"VEC2"},{"bufferView":23,"componentType":5125,"count":480,"type":"SCALAR"},{"bufferView":24,"componentType":5126,"count":114,"type":"VEC3","min":[-2.375833511352539,-0.6306973099708557,0.5525969862937927],"max":[2.355189800262451,0.4993995428085327,0.8402660489082336]},{"bufferView":25,"componentType":5126,"count":114,"type":"VEC3"},{"bufferView":26,"componentType":5126,"count":114,"type":"VEC2"},{"bufferView":27,"componentType":5125,"count":192,"type":"SCALAR"},{"bufferView":28,"componentType":5126,"count":3389,"type":"VEC3","min":[-2.3693556785583496,-0.7326413989067078,0.30506590008735657],"max":[0.9398750066757202,0.7330295443534851,1.3145251274108887]},{"bufferView":29,"componentType":5126,"count":3389,"type":"VEC3"},{"bufferView":30,"componentType":5126,"count":3389,"type":"VEC2"},{"bufferView":31,"componentType":5125,"count":10593,"type":"SCALAR"}],"extensionsUsed":["KHR_materials_specular"]}
