{"asset":{"generator":"Khronos glTF Blender I/O v3.6.27","version":"2.0"},"scene":0,"scenes":[{"nodes":[0]}],"nodes":[{"name":"modular_street_seating","rotation":[0.7071067811865476,0,0,0.7071067811865476],"children":[1,2,3,4,5,6,7,8,9,10]},{"mesh":0,"name":"crossbar","translation":[3.337860099428269e-08,0.16499999165534973,0]},{"mesh":1,"name":"legs_double","translation":[1.16,0,0]},{"mesh":2,"name":"legs_single","translation":[-1.159999933242798,0,0]},{"mesh":3,"name":"suspended_support_01","translation":[3.337860099428269e-08,0.3499999940395355,0]},{"mesh":4,"name":"back_support_r","translation":[-0.9399999046325684,0.45000001788139343,0]},{"mesh":5,"name":"back_support_l","translation":[0.9400000309944152,0.44999998807907104,0]},{"mesh":6,"name":"arm_rest_01","translation":[-1.159999933242798,0.550000011920929,0]},{"mesh":7,"name":"arm_rest_02","translation":[1.16,0.550000011920929,0]},{"mesh":8,"name":"seat","translation":[3.337860099428269e-08,0.44999998807907104,0]},{"mesh":9,"name":"seat_back","rotation":[0.6427876353263855,0,0,0.7660444378852844],"translation":[3.337860099428269e-08,0.4449999928474426,0]}],"materials":[{"doubleSided":true,"name":"modular_street_seating_armrests","normalTexture":{"index":0},"pbrMetallicRoughness":{"baseColorTexture":{"index":1},"metallicRoughnessTexture":{"index":2}}},{"doubleSided":true,"name":"modular_street_seating_supports","normalTexture":{"index":3},"pbrMetallicRoughness":{"baseColorTexture":{"index":4},"metallicRoughnessTexture":{"index":5}}},{"doubleSided":true,"name":"modular_street_seating_armrests","normalTexture":{"index":6},"pbrMetallicRoughness":{"baseColorTexture":{"index":7},"metallicRoughnessTexture":{"index":8}}},{"doubleSided":true,"name":"modular_street_seating_timber","normalTexture":{"index":9},"pbrMetallicRoughness":{"baseColorTexture":{"index":10},"metallicFactor":0,"metallicRoughnessTexture":{"index":11}}},{"doubleSided":true,"name":"modular_street_seating_connectors","normalTexture":{"index":12},"pbrMetallicRoughness":{"baseColorTexture":{"index":13},"metallicFactor":0,"metallicRoughnessTexture":{"index":14}}}],"meshes":[{"name":"crossbar","primitives":[{"attributes":{"POSITION":1,"NORMAL":2,"TEXCOORD_0":3},"indices":0,"material":0}]},{"name":"legs_double","primitives":[{"attributes":{"POSITION":5,"NORMAL":6,"TEXCOORD_0":7},"indices":4,"material":1}]},{"name":"legs_single","primitives":[{"attributes":{"POSITION":9,"NORMAL":10,"TEXCOORD_0":11},"indices":8,"material":1}]},{"name":"suspended_support_01","primitives":[{"attributes":{"POSITION":13,"NORMAL":14,"TEXCOORD_0":15},"indices":12,"material":1}]},{"name":"back_support_r","primitives":[{"attributes":{"POSITION":17,"NORMAL":18,"TEXCOORD_0":19},"indices":16,"material":2}]},{"name":"back_support_l","primitives":[{"attributes":{"POSITION":21,"NORMAL":22,"TEXCOORD_0":23},"indices":20,"material":0}]},{"name":"arm_rest_01","primitives":[{"attributes":{"POSITION":25,"NORMAL":26,"TEXCOORD_0":27},"indices":24,"material":0}]},{"name":"arm_rest_02","primitives":[{"attributes":{"POSITION":29,"NORMAL":30,"TEXCOORD_0":31},"indices":28,"material":0}]},{"name":"seat","primitives":[{"attributes":{"POSITION":33,"NORMAL":34,"TEXCOORD_0":35,"TEXCOORD_1":36},"indices":32,"material":3}]},{"name":"seat_back","primitives":[{"attributes":{"POSITION":38,"NORMAL":39,"TEXCOORD_0":40},"indices":37,"material":3}]}],"textures":[{"sampler":0,"source":0},{"sampler":0,"source":1},{"sampler":0,"source":2},{"sampler":0,"source":3},{"sampler":0,"source":4},{"sampler":0,"source":5},{"sampler":0,"source":0},{"sampler":0,"source":1},{"sampler":0,"source":2},{"sampler":0,"source":6},{"sampler":0,"source":7},{"sampler":0,"source":8},{"sampler":0,"source":9},{"sampler":0,"source":10},{"sampler":0,"source":11}],"images":[{"mimeType":"image/jpeg","name":"modular_street_seating_armrests_nor_gl","uri":"textures/modular_street_seating_armrests_nor_gl_1k.jpg"},{"mimeType":"image/jpeg","name":"modular_street_seating_armrests_diff","uri":"textures/modular_street_seating_armrests_diff_1k.jpg"},{"mimeType":"image/jpeg","name":"modular_street_seating_armrests_metal-modular_street_seating_armrests_rough","uri":"textures/modular_street_seating_armrests_arm_1k.jpg"},{"mimeType":"image/jpeg","name":"modular_street_seating_supports_nor_gl","uri":"textures/modular_street_seating_supports_nor_gl_1k.jpg"},{"mimeType":"image/jpeg","name":"modular_street_seating_supports_diff","uri":"textures/modular_street_seating_supports_diff_1k.jpg"},{"mimeType":"image/jpeg","name":"modular_street_seating_supports_metal-modular_street_seating_supports_rough","uri":"textures/modular_street_seating_supports_arm_1k.jpg"},{"mimeType":"image/jpeg","name":"modular_street_seating_timber_nor_gl","uri":"textures/modular_street_seating_timber_nor_gl_1k.jpg"},{"mimeType":"image/jpeg","name":"modular_street_seating_timber_diff","uri":"textures/modular_street_seating_timber_diff_1k.jpg"},{"mimeType":"image/jpeg","name":"modular_street_seating_timber_rough","uri":"textures/modular_street_seating_timber_arm_1k.jpg"},{"mimeType":"image/jpeg","name":"modular_street_seating_connectors_nor_gl","uri":"textures/modular_street_seating_connectors_nor_gl_1k.jpg"},{"mimeType":"image/jpeg","name":"modular_street_seating_connectors_diff","uri":"textures/modular_street_seating_connectors_diff_1k.jpg"},{"mimeType":"image/jpeg","name":"modular_street_seating_connectors_rough","uri":"textures/modular_street_seating_connectors_arm_1k.jpg"}],"accessors":[{"bufferView":0,"componentType":5123,"count":144,"type":"SCALAR"},{"bufferView":1,"componentType":5126,"count":52,"max":[0.9300000667572021,0.019999980926513672,0.019999999552965164],"min":[-0.9323935508728027,-0.020000040531158447,-0.019999999552965164],"type":"VEC3"},{"bufferView":2,"componentType":5126,"count":52,"type":"VEC3"},{"bufferView":3,"componentType":5126,"count":52,"type":"VEC2"},{"bufferView":4,"componentType":5123,"count":10464,"type":"SCALAR"},{"bufferView":5,"componentType":5126,"count":2871,"max":[0.09219089150428772,0.45000001788139343,0.30000001192092896],"min":[-0.09219086170196533,-3.059793751702955e-09,-0.30000001192092896],"type":"VEC3"},{"bufferView":6,"componentType":5126,"count":2871,"type":"VEC3"},{"bufferView":7,"componentType":5126,"count":2871,"type":"VEC2"},{"bufferView":8,"componentType":5123,"count":7902,"type":"SCALAR"},{"bufferView":9,"componentType":5126,"count":2140,"max":[0.09219083189964294,0.45000001788139343,0.30000001192092896],"min":[-0.04000002145767212,-3.05979308556914e-09,-0.30000001192092896],"type":"VEC3"},{"bufferView":10,"componentType":5126,"count":2140,"type":"VEC3"},{"bufferView":11,"componentType":5126,"count":2140,"type":"VEC2"},{"bufferView":12,"componentType":5123,"count":8268,"type":"SCALAR"},{"bufferView":13,"componentType":5126,"count":1776,"max":[0.05301876366138458,-0.02480664849281311,0.2835169732570648],"min":[-0.05301874876022339,-0.22577105462551117,-0.2835169732570648],"type":"VEC3"},{"bufferView":14,"componentType":5126,"count":1776,"type":"VEC3"},{"bufferView":15,"componentType":5126,"count":1776,"type":"VEC2"},{"bufferView":16,"componentType":5123,"count":3384,"type":"SCALAR"},{"bufferView":17,"componentType":5126,"count":721,"max":[0.04999995231628418,0.41691410541534424,-0.19732889533042908],"min":[-0.08000004291534424,-0.02499992959201336,-0.37039390206336975],"type":"VEC3"},{"bufferView":18,"componentType":5126,"count":721,"type":"VEC3"},{"bufferView":19,"componentType":5126,"count":721,"type":"VEC2"},{"bufferView":20,"componentType":5123,"count":3384,"type":"SCALAR"},{"bufferView":21,"componentType":5126,"count":721,"max":[0.08000004291534424,0.41691410541534424,-0.19732889533042908],"min":[-0.04999995231628418,-0.02499992959201336,-0.37039390206336975],"type":"VEC3"},{"bufferView":22,"componentType":5126,"count":721,"type":"VEC3"},{"bufferView":23,"componentType":5126,"count":721,"type":"VEC2"},{"bufferView":24,"componentType":5123,"count":1128,"type":"SCALAR"},{"bufferView":25,"componentType":5126,"count":288,"max":[0.03999996557831764,0.229925274848938,0.2996315360069275],"min":[-0.03999996557831764,9.113536036942094e-10,-0.29941532015800476],"type":"VEC3"},{"bufferView":26,"componentType":5126,"count":288,"type":"VEC3"},{"bufferView":27,"componentType":5126,"count":288,"type":"VEC2"},{"bufferView":28,"componentType":5123,"count":1074,"type":"SCALAR"},{"bufferView":29,"componentType":5126,"count":268,"max":[0.03999996557831764,0.1670055240392685,0.14775563776493073],"min":[-0.03999996557831764,9.113537147165118e-10,-0.29941532015800476],"type":"VEC3"},{"bufferView":30,"componentType":5126,"count":268,"type":"VEC3"},{"bufferView":31,"componentType":5126,"count":268,"type":"VEC2"},{"bufferView":32,"componentType":5123,"count":1224,"type":"SCALAR"},{"bufferView":33,"componentType":5126,"count":708,"max":[0.9200000166893005,2.9802322387695312e-08,0.30000001192092896],"min":[-0.9200000166893005,-0.024999946355819702,-0.30000001192092896],"type":"VEC3"},{"bufferView":34,"componentType":5126,"count":708,"type":"VEC3"},{"bufferView":35,"componentType":5126,"count":708,"type":"VEC2"},{"bufferView":36,"componentType":5126,"count":708,"type":"VEC2"},{"bufferView":37,"componentType":5123,"count":528,"type":"SCALAR"},{"bufferView":38,"componentType":5126,"count":384,"max":[0.8400000333786011,-0.2583959996700287,-0.10438026487827301],"min":[-0.8400000333786011,-0.2833959758281708,-0.46938028931617737],"type":"VEC3"},{"bufferView":39,"componentType":5126,"count":384,"type":"VEC3"},{"bufferView":40,"componentType":5126,"count":384,"type":"VEC2"}],"bufferViews":[{"buffer":0,"byteLength":288,"byteOffset":1664,"target":34963},{"buffer":0,"byteLength":624,"byteOffset":0,"target":34962},{"buffer":0,"byteLength":624,"byteOffset":624,"target":34962},{"buffer":0,"byteLength":416,"byteOffset":1248,"target":34962},{"buffer":0,"byteLength":20928,"byteOffset":93824,"target":34963},{"buffer":0,"byteLength":34452,"byteOffset":1952,"target":34962},{"buffer":0,"byteLength":34452,"byteOffset":36404,"target":34962},{"buffer":0,"byteLength":22968,"byteOffset":70856,"target":34962},{"buffer":0,"byteLength":15804,"byteOffset":183232,"target":34963},{"buffer":0,"byteLength":25680,"byteOffset":114752,"target":34962},{"buffer":0,"byteLength":25680,"byteOffset":140432,"target":34962},{"buffer":0,"byteLength":17120,"byteOffset":166112,"target":34962},{"buffer":0,"byteLength":16536,"byteOffset":255868,"target":34963},{"buffer":0,"byteLength":21312,"byteOffset":199036,"target":34962},{"buffer":0,"byteLength":21312,"byteOffset":220348,"target":34962},{"buffer":0,"byteLength":14208,"byteOffset":241660,"target":34962},{"buffer":0,"byteLength":6768,"byteOffset":390700,"target":34963},{"buffer":0,"byteLength":8652,"byteOffset":367628,"target":34962},{"buffer":0,"byteLength":8652,"byteOffset":376280,"target":34962},{"buffer":0,"byteLength":5768,"byteOffset":384932,"target":34962},{"buffer":0,"byteLength":6768,"byteOffset":420540,"target":34963},{"buffer":0,"byteLength":8652,"byteOffset":397468,"target":34962},{"buffer":0,"byteLength":8652,"byteOffset":406120,"target":34962},{"buffer":0,"byteLength":5768,"byteOffset":414772,"target":34962},{"buffer":0,"byteLength":2256,"byteOffset":436524,"target":34963},{"buffer":0,"byteLength":3456,"byteOffset":427308,"target":34962},{"buffer":0,"byteLength":3456,"byteOffset":430764,"target":34962},{"buffer":0,"byteLength":2304,"byteOffset":434220,"target":34962},{"buffer":0,"byteLength":2148,"byteOffset":447356,"target":34963},{"buffer":0,"byteLength":3216,"byteOffset":438780,"target":34962},{"buffer":0,"byteLength":3216,"byteOffset":441996,"target":34962},{"buffer":0,"byteLength":2144,"byteOffset":445212,"target":34962},{"buffer":0,"byteLength":2448,"byteOffset":477824,"target":34963},{"buffer":0,"byteLength":8496,"byteOffset":449504,"target":34962},{"buffer":0,"byteLength":8496,"byteOffset":458000,"target":34962},{"buffer":0,"byteLength":5664,"byteOffset":466496,"target":34962},{"buffer":0,"byteLength":5664,"byteOffset":472160,"target":34962},{"buffer":0,"byteLength":1056,"byteOffset":492560,"target":34963},{"buffer":0,"byteLength":4608,"byteOffset":480272,"target":34962},{"buffer":0,"byteLength":4608,"byteOffset":484880,"target":34962},{"buffer":0,"byteLength":3072,"byteOffset":489488,"target":34962}],"samplers":[{"magFilter":9729,"minFilter":9987}],"buffers":[{"byteLength":977224,"uri":"modular_street_seating.bin"}]}
