{"asset":{"version":"2.0","generator":"prepare_warehouse_assets.py"},"scene":0,"scenes":[{"nodes":[0]}],"nodes":[{"name":"model","mesh":0}],"meshes":[{"name":"model","primitives":[{"attributes":{"POSITION":0,"NORMAL":1,"TEXCOORD_0":2},"indices":3,"material":0}]}],"buffers":[{"uri":"model.bin","byteLength":1028048}],"bufferViews":[{"buffer":0,"byteOffset":0,"byteLength":287688,"target":34962},{"buffer":0,"byteOffset":287688,"byteLength":287688,"target":34962},{"buffer":0,"byteOffset":575376,"byteLength":191792,"target":34962},{"buffer":0,"byteOffset":767168,"byteLength":260880,"target":34963}],"accessors":[{"bufferView":0,"componentType":5126,"count":23974,"type":"VEC3","min":[-0.24055056273937225,-0.1324857622385025,0.0],"max":[0.24055056273937225,0.1324857622385025,0.26592549681663513]},{"bufferView":1,"componentType":5126,"count":23974,"type":"VEC3"},{"bufferView":2,"componentType":5126,"count":23974,"type":"VEC2"},{"bufferView":3,"componentType":5125,"count":65220,"type":"SCALAR"}],"materials":[{"doubleSided":true,"name":"plastic_crate_03","normalTexture":{"index":0},"pbrMetallicRoughness":{"baseColorTexture":{"index":1},"metallicFactor":0,"metallicRoughnessTexture":{"index":2}}}],"textures":[{"sampler":0,"source":0},{"sampler":0,"source":1},{"sampler":0,"source":2}],"samplers":[{"magFilter":9729,"minFilter":9987}],"images":[{"mimeType":"image/jpeg","name":"plastic_crate_03_nor_gl","uri":"textures/plastic_crate_03_nor_gl_1k.jpg"},{"mimeType":"image/jpeg","name":"plastic_crate_03_diff","uri":"textures/plastic_crate_03_diff_1k.jpg"},{"mimeType":"image/jpeg","name":"plastic_crate_03_rough","uri":"textures/plastic_crate_03_arm_1k.jpg"}]}
