{"asset":{"generator":"Khronos glTF Blender I/O v4.1.62","version":"2.0"},"scene":0,"scenes":[{"nodes":[0]}],"nodes":[{"name":"door_garage_door_01","mesh":0,"rotation":[0.7071067811865476,0,0,0.7071067811865476]}],"materials":[{"doubleSided":true,"name":"modular_factory_facade_trim_01","normalTexture":{"index":0},"pbrMetallicRoughness":{"baseColorTexture":{"index":1},"metallicFactor":0,"metallicRoughnessTexture":{"index":2}}},{"doubleSided":true,"name":"modular_factory_facade_windows","normalTexture":{"index":3},"pbrMetallicRoughness":{"baseColorTexture":{"index":4},"metallicFactor":0,"metallicRoughnessTexture":{"index":5}}},{"alphaMode":"BLEND","doubleSided":true,"name":"modular_factory_facade_windows_glass","normalTexture":{"index":6},"pbrMetallicRoughness":{"baseColorTexture":{"index":7},"metallicFactor":0,"metallicRoughnessTexture":{"index":8}}},{"doubleSided":true,"name":"modular_factory_facade_garage","normalTexture":{"index":9},"pbrMetallicRoughness":{"baseColorTexture":{"index":10},"metallicRoughnessTexture":{"index":11}}},{"doubleSided":true,"name":"modular_factory_facade_brick","normalTexture":{"index":12},"pbrMetallicRoughness":{"baseColorTexture":{"index":13},"metallicFactor":0,"metallicRoughnessTexture":{"index":14}}},{"doubleSided":true,"name":"modular_factory_facade_brick_doors","normalTexture":{"index":15},"pbrMetallicRoughness":{"baseColorTexture":{"index":16},"metallicRoughnessTexture":{"index":17}}}],"meshes":[{"name":"Cube.143","primitives":[{"attributes":{"POSITION":1,"NORMAL":2,"TEXCOORD_0":3},"indices":0,"material":1},{"attributes":{"POSITION":5,"NORMAL":6,"TEXCOORD_0":7},"indices":4,"material":3},{"attributes":{"POSITION":12,"NORMAL":13,"TEXCOORD_0":14},"indices":15,"material":5}]}],"textures":[{"sampler":0,"source":0},{"sampler":0,"source":1},{"sampler":0,"source":2},{"sampler":0,"source":3},{"sampler":0,"source":4},{"sampler":0,"source":5},{"sampler":0,"source":3},{"sampler":0,"source":6},{"sampler":0,"source":5},{"sampler":0,"source":7},{"sampler":0,"source":8},{"sampler":0,"source":9},{"sampler":0,"source":10},{"sampler":0,"source":11},{"sampler":0,"source":12},{"sampler":0,"source":13},{"sampler":0,"source":14},{"sampler":0,"source":15}],"images":[{"mimeType":"image/jpeg","name":"modular_factory_facade_trim_01_nor_gl","uri":"../textures/modular_factory_facade_trim_01_nor_gl_2k.jpg"},{"mimeType":"image/jpeg","name":"modular_factory_facade_trim_01_diff","uri":"../textures/modular_factory_facade_trim_01_diff_2k.jpg"},{"mimeType":"image/jpeg","name":"modular_factory_facade_trim_01_rough","uri":"../textures/modular_factory_facade_trim_01_arm_2k.jpg"},{"mimeType":"image/jpeg","name":"modular_factory_facade_windows_nor_gl","uri":"../textures/modular_factory_facade_windows_nor_gl_2k.jpg"},{"mimeType":"image/jpeg","name":"modular_factory_facade_windows_diff","uri":"../textures/modular_factory_facade_windows_diff_2k.jpg"},{"mimeType":"image/jpeg","name":"modular_factory_facade_windows_rough","uri":"../textures/modular_factory_facade_windows_arm_2k.jpg"},{"mimeType":"image/jpeg","name":"modular_factory_facade_windows_diff-modular_factory_facade_windows_alpha","uri":"../textures/modular_factory_facade_windows_diff_2k.jpg"},{"mimeType":"image/jpeg","name":"modular_factory_facade_garage_nor_gl","uri":"../textures/modular_factory_facade_garage_nor_gl_2k.jpg"},{"mimeType":"image/jpeg","name":"modular_factory_facade_garage_diff","uri":"../textures/modular_factory_facade_garage_diff_2k.jpg"},{"mimeType":"image/jpeg","name":"modular_factory_facade_garage_metal-modular_factory_facade_garage_rough","uri":"../textures/modular_factory_facade_garage_arm_2k.jpg"},{"mimeType":"image/jpeg","name":"modular_factory_facade_brick_nor_gl","uri":"../textures/modular_factory_facade_brick_nor_gl_2k.jpg"},{"mimeType":"image/jpeg","name":"modular_factory_facade_brick_diff","uri":"../textures/modular_factory_facade_brick_diff_2k.jpg"},{"mimeType":"image/jpeg","name":"modular_factory_facade_brick_rough","uri":"../textures/modular_factory_facade_brick_arm_2k.jpg"},{"mimeType":"image/jpeg","name":"modular_factory_facade_doors_nor_gl","uri":"../textures/modular_factory_facade_doors_nor_gl_2k.jpg"},{"mimeType":"image/jpeg","name":"modular_factory_facade_doors_diff","uri":"../textures/modular_factory_facade_doors_diff_2k.jpg"},{"mimeType":"image/jpeg","name":"modular_factory_facade_doors_metal-modular_factory_facade_doors_rough","uri":"../textures/modular_factory_facade_doors_arm_2k.jpg"}],"accessors":[{"bufferView":0,"componentType":5123,"count":1134,"type":"SCALAR"},{"bufferView":1,"componentType":5126,"count":582,"max":[-0.33999794721603394,2.739999532699585,0.030000094324350357],"min":[-5.659994602203369,2.2053062915802,-0.3462494909763336],"type":"VEC3"},{"bufferView":2,"componentType":5126,"count":582,"type":"VEC3"},{"bufferView":3,"componentType":5126,"count":582,"type":"VEC2"},{"bufferView":4,"componentType":5123,"count":1062,"type":"SCALAR"},{"bufferView":5,"componentType":5126,"count":536,"max":[-0.4499943256378174,2.6399993896484375,-8.583148058960433e-08],"min":[-5.550002098083496,7.078051567077637e-08,-0.5000008344650269],"type":"VEC3"},{"bufferView":6,"componentType":5126,"count":536,"type":"VEC3"},{"bufferView":7,"componentType":5126,"count":536,"type":"VEC2"},{"bufferView":8,"componentType":5123,"count":1746,"type":"SCALAR"},{"bufferView":9,"componentType":5126,"count":695,"max":[-4.469995021820068,2.200000286102295,-0.17166662216186523],"min":[-5.529996871948242,7.078051567077637e-08,-0.40500006079673767],"type":"VEC3"},{"bufferView":10,"componentType":5126,"count":695,"type":"VEC3"},{"bufferView":11,"componentType":5126,"count":695,"type":"VEC2"},{"bufferView":12,"componentType":5126,"count":704,"type":"VEC3","min":[-5.529996871948242,7.078051567077637e-08,-0.40500006079673767],"max":[-4.469995021820068,2.200000286102295,-0.17166662216186523]},{"bufferView":13,"componentType":5126,"count":704,"type":"VEC3"},{"bufferView":14,"componentType":5126,"count":704,"type":"VEC2"},{"bufferView":15,"componentType":5125,"count":1722,"type":"SCALAR"}],"bufferViews":[{"buffer":0,"byteLength":2268,"byteOffset":5779228,"target":34963},{"buffer":0,"byteLength":6984,"byteOffset":5760604,"target":34962},{"buffer":0,"byteLength":6984,"byteOffset":5767588,"target":34962},{"buffer":0,"byteLength":4656,"byteOffset":5774572,"target":34962},{"buffer":0,"byteLength":2124,"byteOffset":5798648,"target":34963},{"buffer":0,"byteLength":6432,"byteOffset":5781496,"target":34962},{"buffer":0,"byteLength":6432,"byteOffset":5787928,"target":34962},{"buffer":0,"byteLength":4288,"byteOffset":5794360,"target":34962},{"buffer":0,"byteLength":3492,"byteOffset":5641820,"target":34963},{"buffer":0,"byteLength":8340,"byteOffset":5800772,"target":34962},{"buffer":0,"byteLength":8340,"byteOffset":5809112,"target":34962},{"buffer":0,"byteLength":5560,"byteOffset":5817452,"target":34962},{"buffer":1,"byteOffset":0,"byteLength":8448,"target":34962},{"buffer":1,"byteOffset":8448,"byteLength":8448,"target":34962},{"buffer":1,"byteOffset":16896,"byteLength":5632,"target":34962},{"buffer":1,"byteOffset":22528,"byteLength":6888,"target":34963}],"samplers":[{"magFilter":9729,"minFilter":9987}],"buffers":[{"uri":"../factory.bin","byteLength":6269260},{"uri":"door_garage_door_01.bin","byteLength":29416}]}
