{"asset":{"generator":"Khronos glTF Blender I/O v4.1.62","version":"2.0"},"scene":0,"scenes":[{"nodes":[0]}],"nodes":[{"name":"wall_window_centered_double_04","mesh":0,"rotation":[0.7071067811865476,0,0,0.7071067811865476]}],"materials":[{"doubleSided":true,"name":"modular_factory_facade_trim_01","normalTexture":{"index":0},"pbrMetallicRoughness":{"baseColorTexture":{"index":1},"metallicFactor":0,"metallicRoughnessTexture":{"index":2}}},{"doubleSided":true,"name":"modular_factory_facade_windows","normalTexture":{"index":3},"pbrMetallicRoughness":{"baseColorTexture":{"index":4},"metallicFactor":0,"metallicRoughnessTexture":{"index":5}}},{"alphaMode":"BLEND","doubleSided":true,"name":"modular_factory_facade_windows_glass","normalTexture":{"index":6},"pbrMetallicRoughness":{"baseColorTexture":{"index":7},"metallicFactor":0,"metallicRoughnessTexture":{"index":8}}},{"doubleSided":true,"name":"modular_factory_facade_garage","normalTexture":{"index":9},"pbrMetallicRoughness":{"baseColorTexture":{"index":10},"metallicRoughnessTexture":{"index":11}}},{"doubleSided":true,"name":"modular_factory_facade_brick","normalTexture":{"index":12},"pbrMetallicRoughness":{"baseColorTexture":{"index":13},"metallicFactor":0,"metallicRoughnessTexture":{"index":14}}},{"doubleSided":true,"name":"modular_factory_facade_brick_doors","normalTexture":{"index":15},"pbrMetallicRoughness":{"baseColorTexture":{"index":16},"metallicRoughnessTexture":{"index":17}}}],"meshes":[{"name":"Cube.217","primitives":[{"attributes":{"POSITION":4,"NORMAL":5,"TEXCOORD_0":6},"indices":7,"material":4}]}],"textures":[{"sampler":0,"source":0},{"sampler":0,"source":1},{"sampler":0,"source":2},{"sampler":0,"source":3},{"sampler":0,"source":4},{"sampler":0,"source":5},{"sampler":0,"source":3},{"sampler":0,"source":6},{"sampler":0,"source":5},{"sampler":0,"source":7},{"sampler":0,"source":8},{"sampler":0,"source":9},{"sampler":0,"source":10},{"sampler":0,"source":11},{"sampler":0,"source":12},{"sampler":0,"source":13},{"sampler":0,"source":14},{"sampler":0,"source":15}],"images":[{"mimeType":"image/jpeg","name":"modular_factory_facade_trim_01_nor_gl","uri":"../textures/modular_factory_facade_trim_01_nor_gl_2k.jpg"},{"mimeType":"image/jpeg","name":"modular_factory_facade_trim_01_diff","uri":"../textures/modular_factory_facade_trim_01_diff_2k.jpg"},{"mimeType":"image/jpeg","name":"modular_factory_facade_trim_01_rough","uri":"../textures/modular_factory_facade_trim_01_arm_2k.jpg"},{"mimeType":"image/jpeg","name":"modular_factory_facade_windows_nor_gl","uri":"../textures/modular_factory_facade_windows_nor_gl_2k.jpg"},{"mimeType":"image/jpeg","name":"modular_factory_facade_windows_diff","uri":"../textures/modular_factory_facade_windows_diff_2k.jpg"},{"mimeType":"image/jpeg","name":"modular_factory_facade_windows_rough","uri":"../textures/modular_factory_facade_windows_arm_2k.jpg"},{"mimeType":"image/jpeg","name":"modular_factory_facade_windows_diff-modular_factory_facade_windows_alpha","uri":"../textures/modular_factory_facade_windows_diff_2k.jpg"},{"mimeType":"image/jpeg","name":"modular_factory_facade_garage_nor_gl","uri":"../textures/modular_factory_facade_garage_nor_gl_2k.jpg"},{"mimeType":"image/jpeg","name":"modular_factory_facade_garage_diff","uri":"../textures/modular_factory_facade_garage_diff_2k.jpg"},{"mimeType":"image/jpeg","name":"modular_factory_facade_garage_metal-modular_factory_facade_garage_rough","uri":"../textures/modular_factory_facade_garage_arm_2k.jpg"},{"mimeType":"image/jpeg","name":"modular_factory_facade_brick_nor_gl","uri":"../textures/modular_factory_facade_brick_nor_gl_2k.jpg"},{"mimeType":"image/jpeg","name":"modular_factory_facade_brick_diff","uri":"../textures/modular_factory_facade_brick_diff_2k.jpg"},{"mimeType":"image/jpeg","name":"modular_factory_facade_brick_rough","uri":"../textures/modular_factory_facade_brick_arm_2k.jpg"},{"mimeType":"image/jpeg","name":"modular_factory_facade_doors_nor_gl","uri":"../textures/modular_factory_facade_doors_nor_gl_2k.jpg"},{"mimeType":"image/jpeg","name":"modular_factory_facade_doors_diff","uri":"../textures/modular_factory_facade_doors_diff_2k.jpg"},{"mimeType":"image/jpeg","name":"modular_factory_facade_doors_metal-modular_factory_facade_doors_rough","uri":"../textures/modular_factory_facade_doors_arm_2k.jpg"}],"accessors":[{"bufferView":0,"componentType":5123,"count":4464,"type":"SCALAR"},{"bufferView":1,"componentType":5126,"count":1015,"max":[0,3,1.4901161193847656e-08],"min":[-3,4.76837158203125e-07,-0.19999998807907104],"type":"VEC3"},{"bufferView":2,"componentType":5126,"count":1015,"type":"VEC3"},{"bufferView":3,"componentType":5126,"count":1015,"type":"VEC2"},{"bufferView":4,"componentType":5126,"count":384,"type":"VEC3","min":[-3.0,0.0,-0.20000000298023224],"max":[0.0,3.0,1.4901161193847656e-08]},{"bufferView":5,"componentType":5126,"count":384,"type":"VEC3"},{"bufferView":6,"componentType":5126,"count":384,"type":"VEC2"},{"bufferView":7,"componentType":5125,"count":1170,"type":"SCALAR"}],"bufferViews":[{"buffer":0,"byteLength":8928,"byteOffset":4562292,"target":34963},{"buffer":0,"byteLength":12180,"byteOffset":4529812,"target":34962},{"buffer":0,"byteLength":12180,"byteOffset":4541992,"target":34962},{"buffer":0,"byteLength":8120,"byteOffset":4554172,"target":34962},{"buffer":1,"byteOffset":0,"byteLength":4608,"target":34962},{"buffer":1,"byteOffset":4608,"byteLength":4608,"target":34962},{"buffer":1,"byteOffset":9216,"byteLength":3072,"target":34962},{"buffer":1,"byteOffset":12288,"byteLength":4680,"target":34963}],"samplers":[{"magFilter":9729,"minFilter":9987}],"buffers":[{"uri":"../factory.bin","byteLength":6269260},{"uri":"wall_window_centered_double_04.bin","byteLength":16968}]}
