{"asset":{"generator":"Khronos glTF Blender I/O v4.1.62","version":"2.0"},"scene":0,"scenes":[{"nodes":[0]}],"nodes":[{"name":"window_centered_double_02","mesh":0,"rotation":[0.7071067811865476,0,0,0.7071067811865476]}],"materials":[{"doubleSided":true,"name":"modular_factory_facade_trim_01","normalTexture":{"index":0},"pbrMetallicRoughness":{"baseColorTexture":{"index":1},"metallicFactor":0,"metallicRoughnessTexture":{"index":2}}},{"doubleSided":true,"name":"modular_factory_facade_windows","normalTexture":{"index":3},"pbrMetallicRoughness":{"baseColorTexture":{"index":4},"metallicFactor":0,"metallicRoughnessTexture":{"index":5}}},{"alphaMode":"BLEND","doubleSided":true,"name":"modular_factory_facade_windows_glass","normalTexture":{"index":6},"pbrMetallicRoughness":{"baseColorTexture":{"index":7},"metallicFactor":0,"metallicRoughnessTexture":{"index":8}}},{"doubleSided":true,"name":"modular_factory_facade_garage","normalTexture":{"index":9},"pbrMetallicRoughness":{"baseColorTexture":{"index":10},"metallicRoughnessTexture":{"index":11}}},{"doubleSided":true,"name":"modular_factory_facade_brick","normalTexture":{"index":12},"pbrMetallicRoughness":{"baseColorTexture":{"index":13},"metallicFactor":0,"metallicRoughnessTexture":{"index":14}}},{"doubleSided":true,"name":"modular_factory_facade_brick_doors","normalTexture":{"index":15},"pbrMetallicRoughness":{"baseColorTexture":{"index":16},"metallicRoughnessTexture":{"index":17}}}],"meshes":[{"name":"Cube.222","primitives":[{"attributes":{"POSITION":1,"NORMAL":2,"TEXCOORD_0":3},"indices":0,"material":1},{"attributes":{"POSITION":5,"NORMAL":6,"TEXCOORD_0":7},"indices":4,"material":2}]}],"textures":[{"sampler":0,"source":0},{"sampler":0,"source":1},{"sampler":0,"source":2},{"sampler":0,"source":3},{"sampler":0,"source":4},{"sampler":0,"source":5},{"sampler":0,"source":3},{"sampler":0,"source":6},{"sampler":0,"source":5},{"sampler":0,"source":7},{"sampler":0,"source":8},{"sampler":0,"source":9},{"sampler":0,"source":10},{"sampler":0,"source":11},{"sampler":0,"source":12},{"sampler":0,"source":13},{"sampler":0,"source":14},{"sampler":0,"source":15}],"images":[{"mimeType":"image/jpeg","name":"modular_factory_facade_trim_01_nor_gl","uri":"../textures/modular_factory_facade_trim_01_nor_gl_2k.jpg"},{"mimeType":"image/jpeg","name":"modular_factory_facade_trim_01_diff","uri":"../textures/modular_factory_facade_trim_01_diff_2k.jpg"},{"mimeType":"image/jpeg","name":"modular_factory_facade_trim_01_rough","uri":"../textures/modular_factory_facade_trim_01_arm_2k.jpg"},{"mimeType":"image/jpeg","name":"modular_factory_facade_windows_nor_gl","uri":"../textures/modular_factory_facade_windows_nor_gl_2k.jpg"},{"mimeType":"image/jpeg","name":"modular_factory_facade_windows_diff","uri":"../textures/modular_factory_facade_windows_diff_2k.jpg"},{"mimeType":"image/jpeg","name":"modular_factory_facade_windows_rough","uri":"../textures/modular_factory_facade_windows_arm_2k.jpg"},{"mimeType":"image/jpeg","name":"modular_factory_facade_windows_diff-modular_factory_facade_windows_alpha","uri":"../textures/modular_factory_facade_windows_diff_2k.jpg"},{"mimeType":"image/jpeg","name":"modular_factory_facade_garage_nor_gl","uri":"../textures/modular_factory_facade_garage_nor_gl_2k.jpg"},{"mimeType":"image/jpeg","name":"modular_factory_facade_garage_diff","uri":"../textures/modular_factory_facade_garage_diff_2k.jpg"},{"mimeType":"image/jpeg","name":"modular_factory_facade_garage_metal-modular_factory_facade_garage_rough","uri":"../textures/modular_factory_facade_garage_arm_2k.jpg"},{"mimeType":"image/jpeg","name":"modular_factory_facade_brick_nor_gl","uri":"../textures/modular_factory_facade_brick_nor_gl_2k.jpg"},{"mimeType":"image/jpeg","name":"modular_factory_facade_brick_diff","uri":"../textures/modular_factory_facade_brick_diff_2k.jpg"},{"mimeType":"image/jpeg","name":"modular_factory_facade_brick_rough","uri":"../textures/modular_factory_facade_brick_arm_2k.jpg"},{"mimeType":"image/jpeg","name":"modular_factory_facade_doors_nor_gl","uri":"../textures/modular_factory_facade_doors_nor_gl_2k.jpg"},{"mimeType":"image/jpeg","name":"modular_factory_facade_doors_diff","uri":"../textures/modular_factory_facade_doors_diff_2k.jpg"},{"mimeType":"image/jpeg","name":"modular_factory_facade_doors_metal-modular_factory_facade_doors_rough","uri":"../textures/modular_factory_facade_doors_arm_2k.jpg"}],"accessors":[{"bufferView":0,"componentType":5123,"count":2568,"type":"SCALAR"},{"bufferView":1,"componentType":5126,"count":1164,"max":[-0.30000174045562744,2.3349995613098145,0.03000009059906006],"min":[-2.709998369216919,0.9578056335449219,-0.18666668236255646],"type":"VEC3"},{"bufferView":2,"componentType":5126,"count":1164,"type":"VEC3"},{"bufferView":3,"componentType":5126,"count":1164,"type":"VEC2"},{"bufferView":4,"componentType":5123,"count":144,"type":"SCALAR"},{"bufferView":5,"componentType":5126,"count":84,"max":[-0.4383279085159302,2.189999580383301,-0.16766668856143951],"min":[-2.561666488647461,1.1274992227554321,-0.16766668856143951],"type":"VEC3"},{"bufferView":6,"componentType":5126,"count":84,"type":"VEC3"},{"bufferView":7,"componentType":5126,"count":84,"type":"VEC2"}],"bufferViews":[{"buffer":0,"byteLength":5136,"byteOffset":1494908,"target":34963},{"buffer":0,"byteLength":13968,"byteOffset":1457660,"target":34962},{"buffer":0,"byteLength":13968,"byteOffset":1471628,"target":34962},{"buffer":0,"byteLength":9312,"byteOffset":1485596,"target":34962},{"buffer":0,"byteLength":288,"byteOffset":1502732,"target":34963},{"buffer":0,"byteLength":1008,"byteOffset":1500044,"target":34962},{"buffer":0,"byteLength":1008,"byteOffset":1501052,"target":34962},{"buffer":0,"byteLength":672,"byteOffset":1502060,"target":34962}],"samplers":[{"magFilter":9729,"minFilter":9987}],"buffers":[{"uri":"../factory.bin","byteLength":6269260}]}
