{"asset":{"generator":"Khronos glTF Blender I/O v4.1.62","version":"2.0"},"scene":0,"scenes":[{"nodes":[0]}],"nodes":[{"name":"window_centered_large_03","mesh":0,"rotation":[0.7071067811865476,0,0,0.7071067811865476]}],"materials":[{"doubleSided":true,"name":"modular_factory_facade_trim_01","normalTexture":{"index":0},"pbrMetallicRoughness":{"baseColorTexture":{"index":1},"metallicFactor":0,"metallicRoughnessTexture":{"index":2}}},{"doubleSided":true,"name":"modular_factory_facade_windows","normalTexture":{"index":3},"pbrMetallicRoughness":{"baseColorTexture":{"index":4},"metallicFactor":0,"metallicRoughnessTexture":{"index":5}}},{"alphaMode":"BLEND","doubleSided":true,"name":"modular_factory_facade_windows_glass","normalTexture":{"index":6},"pbrMetallicRoughness":{"baseColorTexture":{"index":7},"metallicFactor":0,"metallicRoughnessTexture":{"index":8}}},{"doubleSided":true,"name":"modular_factory_facade_garage","normalTexture":{"index":9},"pbrMetallicRoughness":{"baseColorTexture":{"index":10},"metallicRoughnessTexture":{"index":11}}},{"doubleSided":true,"name":"modular_factory_facade_brick","normalTexture":{"index":12},"pbrMetallicRoughness":{"baseColorTexture":{"index":13},"metallicFactor":0,"metallicRoughnessTexture":{"index":14}}},{"doubleSided":true,"name":"modular_factory_facade_brick_doors","normalTexture":{"index":15},"pbrMetallicRoughness":{"baseColorTexture":{"index":16},"metallicRoughnessTexture":{"index":17}}}],"meshes":[{"name":"Cube.504","primitives":[{"attributes":{"POSITION":8,"NORMAL":9,"TEXCOORD_0":10},"indices":11,"material":1},{"attributes":{"POSITION":12,"NORMAL":13,"TEXCOORD_0":14},"indices":15,"material":2}]}],"textures":[{"sampler":0,"source":0},{"sampler":0,"source":1},{"sampler":0,"source":2},{"sampler":0,"source":3},{"sampler":0,"source":4},{"sampler":0,"source":5},{"sampler":0,"source":3},{"sampler":0,"source":6},{"sampler":0,"source":5},{"sampler":0,"source":7},{"sampler":0,"source":8},{"sampler":0,"source":9},{"sampler":0,"source":10},{"sampler":0,"source":11},{"sampler":0,"source":12},{"sampler":0,"source":13},{"sampler":0,"source":14},{"sampler":0,"source":15}],"images":[{"mimeType":"image/jpeg","name":"modular_factory_facade_trim_01_nor_gl","uri":"../textures/modular_factory_facade_trim_01_nor_gl_2k.jpg"},{"mimeType":"image/jpeg","name":"modular_factory_facade_trim_01_diff","uri":"../textures/modular_factory_facade_trim_01_diff_2k.jpg"},{"mimeType":"image/jpeg","name":"modular_factory_facade_trim_01_rough","uri":"../textures/modular_factory_facade_trim_01_arm_2k.jpg"},{"mimeType":"image/jpeg","name":"modular_factory_facade_windows_nor_gl","uri":"../textures/modular_factory_facade_windows_nor_gl_2k.jpg"},{"mimeType":"image/jpeg","name":"modular_factory_facade_windows_diff","uri":"../textures/modular_factory_facade_windows_diff_2k.jpg"},{"mimeType":"image/jpeg","name":"modular_factory_facade_windows_rough","uri":"../textures/modular_factory_facade_windows_arm_2k.jpg"},{"mimeType":"image/jpeg","name":"modular_factory_facade_windows_diff-modular_factory_facade_windows_alpha","uri":"../textures/modular_factory_facade_windows_diff_2k.jpg"},{"mimeType":"image/jpeg","name":"modular_factory_facade_garage_nor_gl","uri":"../textures/modular_factory_facade_garage_nor_gl_2k.jpg"},{"mimeType":"image/jpeg","name":"modular_factory_facade_garage_diff","uri":"../textures/modular_factory_facade_garage_diff_2k.jpg"},{"mimeType":"image/jpeg","name":"modular_factory_facade_garage_metal-modular_factory_facade_garage_rough","uri":"../textures/modular_factory_facade_garage_arm_2k.jpg"},{"mimeType":"image/jpeg","name":"modular_factory_facade_brick_nor_gl","uri":"../textures/modular_factory_facade_brick_nor_gl_2k.jpg"},{"mimeType":"image/jpeg","name":"modular_factory_facade_brick_diff","uri":"../textures/modular_factory_facade_brick_diff_2k.jpg"},{"mimeType":"image/jpeg","name":"modular_factory_facade_brick_rough","uri":"../textures/modular_factory_facade_brick_arm_2k.jpg"},{"mimeType":"image/jpeg","name":"modular_factory_facade_doors_nor_gl","uri":"../textures/modular_factory_facade_doors_nor_gl_2k.jpg"},{"mimeType":"image/jpeg","name":"modular_factory_facade_doors_diff","uri":"../textures/modular_factory_facade_doors_diff_2k.jpg"},{"mimeType":"image/jpeg","name":"modular_factory_facade_doors_metal-modular_factory_facade_doors_rough","uri":"../textures/modular_factory_facade_doors_arm_2k.jpg"}],"accessors":[{"bufferView":0,"componentType":5123,"count":1794,"type":"SCALAR"},{"bufferView":1,"componentType":5126,"count":787,"max":[-0.3900017738342285,2.3550000190734863,0.030000001192092896],"min":[-2.6099982261657715,1.340306282043457,-0.18666666746139526],"type":"VEC3"},{"bufferView":2,"componentType":5126,"count":787,"type":"VEC3"},{"bufferView":3,"componentType":5126,"count":787,"type":"VEC2"},{"bufferView":4,"componentType":5123,"count":120,"type":"SCALAR"},{"bufferView":5,"componentType":5126,"count":76,"max":[-0.5350002646446228,2.1950011253356934,-0.16766667366027832],"min":[-2.46500301361084,1.5100008249282837,-0.16766667366027832],"type":"VEC3"},{"bufferView":6,"componentType":5126,"count":76,"type":"VEC3"},{"bufferView":7,"componentType":5126,"count":76,"type":"VEC2"},{"bufferView":8,"componentType":5126,"count":804,"type":"VEC3","min":[-2.6099982261657715,1.340306282043457,-0.18666666746139526],"max":[-0.3900017738342285,2.3550000190734863,0.030000001192092896]},{"bufferView":9,"componentType":5126,"count":804,"type":"VEC3"},{"bufferView":10,"componentType":5126,"count":804,"type":"VEC2"},{"bufferView":11,"componentType":5125,"count":1440,"type":"SCALAR"},{"bufferView":12,"componentType":5126,"count":72,"type":"VEC3","min":[-2.4649999141693115,1.5099999904632568,-0.16769999265670776],"max":[-0.5350000262260437,2.194999933242798,-0.16769999265670776]},{"bufferView":13,"componentType":5126,"count":72,"type":"VEC3"},{"bufferView":14,"componentType":5126,"count":72,"type":"VEC2"},{"bufferView":15,"componentType":5125,"count":108,"type":"SCALAR"}],"bufferViews":[{"buffer":0,"byteLength":3588,"byteOffset":194156,"target":34963},{"buffer":0,"byteLength":9444,"byteOffset":168972,"target":34962},{"buffer":0,"byteLength":9444,"byteOffset":178416,"target":34962},{"buffer":0,"byteLength":6296,"byteOffset":187860,"target":34962},{"buffer":0,"byteLength":240,"byteOffset":200176,"target":34963},{"buffer":0,"byteLength":912,"byteOffset":197744,"target":34962},{"buffer":0,"byteLength":912,"byteOffset":198656,"target":34962},{"buffer":0,"byteLength":608,"byteOffset":199568,"target":34962},{"buffer":1,"byteOffset":0,"byteLength":9648,"target":34962},{"buffer":1,"byteOffset":9648,"byteLength":9648,"target":34962},{"buffer":1,"byteOffset":19296,"byteLength":6432,"target":34962},{"buffer":1,"byteOffset":25728,"byteLength":5760,"target":34963},{"buffer":1,"byteOffset":31488,"byteLength":864,"target":34962},{"buffer":1,"byteOffset":32352,"byteLength":864,"target":34962},{"buffer":1,"byteOffset":33216,"byteLength":576,"target":34962},{"buffer":1,"byteOffset":33792,"byteLength":432,"target":34963}],"samplers":[{"magFilter":9729,"minFilter":9987}],"buffers":[{"uri":"../factory.bin","byteLength":6269260},{"uri":"window_centered_large_03.bin","byteLength":34224}]}
