{"asset":{"generator":"Khronos glTF Blender I/O v4.1.62","version":"2.0"},"scene":0,"scenes":[{"nodes":[0]}],"nodes":[{"name":"window_tall_large_01","mesh":0,"rotation":[0.7071067811865476,0,0,0.7071067811865476]}],"materials":[{"doubleSided":true,"name":"modular_factory_facade_trim_01","normalTexture":{"index":0},"pbrMetallicRoughness":{"baseColorTexture":{"index":1},"metallicFactor":0,"metallicRoughnessTexture":{"index":2}}},{"doubleSided":true,"name":"modular_factory_facade_windows","normalTexture":{"index":3},"pbrMetallicRoughness":{"baseColorTexture":{"index":4},"metallicFactor":0,"metallicRoughnessTexture":{"index":5}}},{"alphaMode":"BLEND","doubleSided":true,"name":"modular_factory_facade_windows_glass","normalTexture":{"index":6},"pbrMetallicRoughness":{"baseColorTexture":{"index":7},"metallicFactor":0,"metallicRoughnessTexture":{"index":8}}},{"doubleSided":true,"name":"modular_factory_facade_garage","normalTexture":{"index":9},"pbrMetallicRoughness":{"baseColorTexture":{"index":10},"metallicRoughnessTexture":{"index":11}}},{"doubleSided":true,"name":"modular_factory_facade_brick","normalTexture":{"index":12},"pbrMetallicRoughness":{"baseColorTexture":{"index":13},"metallicFactor":0,"metallicRoughnessTexture":{"index":14}}},{"doubleSided":true,"name":"modular_factory_facade_brick_doors","normalTexture":{"index":15},"pbrMetallicRoughness":{"baseColorTexture":{"index":16},"metallicRoughnessTexture":{"index":17}}}],"meshes":[{"name":"Cube.050","primitives":[{"attributes":{"POSITION":1,"NORMAL":2,"TEXCOORD_0":3},"indices":0,"material":2},{"attributes":{"POSITION":5,"NORMAL":6,"TEXCOORD_0":7},"indices":4,"material":1},{"attributes":{"POSITION":9,"NORMAL":10,"TEXCOORD_0":11},"indices":8,"material":0}]}],"textures":[{"sampler":0,"source":0},{"sampler":0,"source":1},{"sampler":0,"source":2},{"sampler":0,"source":3},{"sampler":0,"source":4},{"sampler":0,"source":5},{"sampler":0,"source":3},{"sampler":0,"source":6},{"sampler":0,"source":5},{"sampler":0,"source":7},{"sampler":0,"source":8},{"sampler":0,"source":9},{"sampler":0,"source":10},{"sampler":0,"source":11},{"sampler":0,"source":12},{"sampler":0,"source":13},{"sampler":0,"source":14},{"sampler":0,"source":15}],"images":[{"mimeType":"image/jpeg","name":"modular_factory_facade_trim_01_nor_gl","uri":"../textures/modular_factory_facade_trim_01_nor_gl_2k.jpg"},{"mimeType":"image/jpeg","name":"modular_factory_facade_trim_01_diff","uri":"../textures/modular_factory_facade_trim_01_diff_2k.jpg"},{"mimeType":"image/jpeg","name":"modular_factory_facade_trim_01_rough","uri":"../textures/modular_factory_facade_trim_01_arm_2k.jpg"},{"mimeType":"image/jpeg","name":"modular_factory_facade_windows_nor_gl","uri":"../textures/modular_factory_facade_windows_nor_gl_2k.jpg"},{"mimeType":"image/jpeg","name":"modular_factory_facade_windows_diff","uri":"../textures/modular_factory_facade_windows_diff_2k.jpg"},{"mimeType":"image/jpeg","name":"modular_factory_facade_windows_rough","uri":"../textures/modular_factory_facade_windows_arm_2k.jpg"},{"mimeType":"image/jpeg","name":"modular_factory_facade_windows_diff-modular_factory_facade_windows_alpha","uri":"../textures/modular_factory_facade_windows_diff_2k.jpg"},{"mimeType":"image/jpeg","name":"modular_factory_facade_garage_nor_gl","uri":"../textures/modular_factory_facade_garage_nor_gl_2k.jpg"},{"mimeType":"image/jpeg","name":"modular_factory_facade_garage_diff","uri":"../textures/modular_factory_facade_garage_diff_2k.jpg"},{"mimeType":"image/jpeg","name":"modular_factory_facade_garage_metal-modular_factory_facade_garage_rough","uri":"../textures/modular_factory_facade_garage_arm_2k.jpg"},{"mimeType":"image/jpeg","name":"modular_factory_facade_brick_nor_gl","uri":"../textures/modular_factory_facade_brick_nor_gl_2k.jpg"},{"mimeType":"image/jpeg","name":"modular_factory_facade_brick_diff","uri":"../textures/modular_factory_facade_brick_diff_2k.jpg"},{"mimeType":"image/jpeg","name":"modular_factory_facade_brick_rough","uri":"../textures/modular_factory_facade_brick_arm_2k.jpg"},{"mimeType":"image/jpeg","name":"modular_factory_facade_doors_nor_gl","uri":"../textures/modular_factory_facade_doors_nor_gl_2k.jpg"},{"mimeType":"image/jpeg","name":"modular_factory_facade_doors_diff","uri":"../textures/modular_factory_facade_doors_diff_2k.jpg"},{"mimeType":"image/jpeg","name":"modular_factory_facade_doors_metal-modular_factory_facade_doors_rough","uri":"../textures/modular_factory_facade_doors_arm_2k.jpg"}],"accessors":[{"bufferView":0,"componentType":5123,"count":300,"type":"SCALAR"},{"bufferView":1,"componentType":5126,"count":190,"max":[-0.5350002646446228,2.9647488594055176,-0.16766667366027832],"min":[-2.465003252029419,1.1699999570846558,-0.16766667366027832],"type":"VEC3"},{"bufferView":2,"componentType":5126,"count":190,"type":"VEC3"},{"bufferView":3,"componentType":5126,"count":190,"type":"VEC2"},{"bufferView":4,"componentType":5123,"count":2772,"type":"SCALAR"},{"bufferView":5,"componentType":5126,"count":1139,"max":[-0.5000004768371582,3.000000476837158,-0.11999998986721039],"min":[-2.5000038146972656,1.1249877214431763,-0.18666666746139526],"type":"VEC3"},{"bufferView":6,"componentType":5126,"count":1139,"type":"VEC3"},{"bufferView":7,"componentType":5126,"count":1139,"type":"VEC2"},{"bufferView":8,"componentType":5123,"count":744,"type":"SCALAR"},{"bufferView":9,"componentType":5126,"count":380,"max":[-0.08221207559108734,1.1322486400604248,0.06778685748577118],"min":[-2.9177842140197754,0.980262279510498,-0.19999989867210388],"type":"VEC3"},{"bufferView":10,"componentType":5126,"count":380,"type":"VEC3"},{"bufferView":11,"componentType":5126,"count":380,"type":"VEC2"}],"bufferViews":[{"buffer":0,"byteLength":600,"byteOffset":257364,"target":34963},{"buffer":0,"byteLength":2280,"byteOffset":251284,"target":34962},{"buffer":0,"byteLength":2280,"byteOffset":253564,"target":34962},{"buffer":0,"byteLength":1520,"byteOffset":255844,"target":34962},{"buffer":0,"byteLength":5544,"byteOffset":294412,"target":34963},{"buffer":0,"byteLength":13668,"byteOffset":257964,"target":34962},{"buffer":0,"byteLength":13668,"byteOffset":271632,"target":34962},{"buffer":0,"byteLength":9112,"byteOffset":285300,"target":34962},{"buffer":0,"byteLength":1488,"byteOffset":312116,"target":34963},{"buffer":0,"byteLength":4560,"byteOffset":299956,"target":34962},{"buffer":0,"byteLength":4560,"byteOffset":304516,"target":34962},{"buffer":0,"byteLength":3040,"byteOffset":309076,"target":34962}],"samplers":[{"magFilter":9729,"minFilter":9987}],"buffers":[{"uri":"../factory.bin","byteLength":6269260}]}
