{"asset":{"version":"2.0","generator":"prepare_warehouse_assets.py"},"scene":0,"scenes":[{"nodes":[0]}],"nodes":[{"name":"model","mesh":0}],"meshes":[{"name":"model","primitives":[{"attributes":{"POSITION":0,"NORMAL":1,"TEXCOORD_0":2},"indices":3,"material":0}]}],"buffers":[{"uri":"model.bin","byteLength":97848}],"bufferViews":[{"buffer":0,"byteOffset":0,"byteLength":24624,"target":34962},{"buffer":0,"byteOffset":24624,"byteLength":24624,"target":34962},{"buffer":0,"byteOffset":49248,"byteLength":16416,"target":34962},{"buffer":0,"byteOffset":65664,"byteLength":32184,"target":34963}],"accessors":[{"bufferView":0,"componentType":5126,"count":2052,"type":"VEC3","min":[-0.28151756525039673,-0.2815176248550415,0.0],"max":[0.28151756525039673,0.2815176248550415,0.8799999952316284]},{"bufferView":1,"componentType":5126,"count":2052,"type":"VEC3"},{"bufferView":2,"componentType":5126,"count":2052,"type":"VEC2"},{"bufferView":3,"componentType":5125,"count":8046,"type":"SCALAR"}],"materials":[{"doubleSided":true,"name":"Barrel_01","normalTexture":{"index":0},"pbrMetallicRoughness":{"baseColorTexture":{"index":1},"metallicRoughnessTexture":{"index":2}}}],"textures":[{"sampler":0,"source":0},{"sampler":0,"source":1},{"sampler":0,"source":2}],"samplers":[{"magFilter":9729,"minFilter":9987}],"images":[{"mimeType":"image/jpeg","name":"Barrel_01_explosive_nor_gl","uri":"textures/Barrel_01_explosive_nor_gl_1k.jpg"},{"mimeType":"image/jpeg","name":"Barrel_01_explosive_diff","uri":"textures/Barrel_01_explosive_diff_1k.jpg"},{"mimeType":"image/jpeg","name":"Barrel_01_explosive_metallic-Barrel_01_explosive_roughness","uri":"textures/Barrel_01_explosive_arm_1k.jpg"}]}
