{"asset":{"version":"2.0","generator":"prepare_warehouse_assets.py"},"scene":0,"scenes":[{"nodes":[0]}],"nodes":[{"name":"model","mesh":0}],"meshes":[{"name":"model","primitives":[{"attributes":{"POSITION":0,"NORMAL":1,"TEXCOORD_0":2},"indices":3,"material":0}]}],"buffers":[{"uri":"model.bin","byteLength":10864}],"bufferViews":[{"buffer":0,"byteOffset":0,"byteLength":3048,"target":34962},{"buffer":0,"byteOffset":3048,"byteLength":3048,"target":34962},{"buffer":0,"byteOffset":6096,"byteLength":2032,"target":34962},{"buffer":0,"byteOffset":8128,"byteLength":2736,"target":34963}],"accessors":[{"bufferView":0,"componentType":5126,"count":254,"type":"VEC3","min":[-0.15002742409706116,-0.1792546510696411,0.0],"max":[0.15002742409706116,0.1792546510696411,0.6295440196990967]},{"bufferView":1,"componentType":5126,"count":254,"type":"VEC3"},{"bufferView":2,"componentType":5126,"count":254,"type":"VEC2"},{"bufferView":3,"componentType":5125,"count":684,"type":"SCALAR"}],"materials":[{"doubleSided":true,"name":"WetFloorSign_01","normalTexture":{"index":0},"pbrMetallicRoughness":{"baseColorTexture":{"index":1},"metallicRoughnessTexture":{"index":2}}}],"textures":[{"sampler":0,"source":0},{"sampler":0,"source":1},{"sampler":0,"source":2}],"samplers":[{"magFilter":9729,"minFilter":9987}],"images":[{"mimeType":"image/jpeg","name":"WetFloorSign_01_nor_gl","uri":"textures/WetFloorSign_01_nor_gl_1k.jpg"},{"mimeType":"image/jpeg","name":"WetFloorSign_01_diff","uri":"textures/WetFloorSign_01_diff_1k.jpg"},{"mimeType":"image/jpeg","name":"WetFloorSign_01_metallic-WetFloorSign_01_roughness","uri":"textures/WetFloorSign_01_arm_1k.jpg"}]}
