{"asset":{"version":"2.0","generator":"prepare_warehouse_assets.py"},"scene":0,"scenes":[{"nodes":[0]}],"nodes":[{"name":"model","mesh":0}],"meshes":[{"name":"model","primitives":[{"attributes":{"POSITION":0,"NORMAL":1,"TEXCOORD_0":2},"indices":3,"material":0},{"attributes":{"POSITION":4,"NORMAL":5,"TEXCOORD_0":6},"indices":7,"material":1}]}],"buffers":[{"uri":"model.bin","byteLength":468260}],"bufferViews":[{"buffer":0,"byteOffset":0,"byteLength":114480,"target":34962},{"buffer":0,"byteOffset":114480,"byteLength":114480,"target":34962},{"buffer":0,"byteOffset":228960,"byteLength":76320,"target":34962},{"buffer":0,"byteOffset":305280,"byteLength":162828,"target":34963},{"buffer":0,"byteOffset":468108,"byteLength":48,"target":34962},{"buffer":0,"byteOffset":468156,"byteLength":48,"target":34962},{"buffer":0,"byteOffset":468204,"byteLength":32,"target":34962},{"buffer":0,"byteOffset":468236,"byteLength":24,"target":34963}],"accessors":[{"bufferView":0,"componentType":5126,"count":9540,"type":"VEC3","min":[-0.27683591842651367,-0.0847758948802948,0.0],"max":[0.27683591842651367,0.0847758948802948,0.28604644536972046]},{"bufferView":1,"componentType":5126,"count":9540,"type":"VEC3"},{"bufferView":2,"componentType":5126,"count":9540,"type":"VEC2"},{"bufferView":3,"componentType":5125,"count":40707,"type":"SCALAR"},{"bufferView":4,"componentType":5126,"count":4,"type":"VEC3","min":[0.2254040539264679,-0.04558402672410011,0.16534188389778137],"max":[0.22540408372879028,0.047160565853118896,0.26003503799438477]},{"bufferView":5,"componentType":5126,"count":4,"type":"VEC3"},{"bufferView":6,"componentType":5126,"count":4,"type":"VEC2"},{"bufferView":7,"componentType":5125,"count":6,"type":"SCALAR"}],"materials":[{"doubleSided":true,"name":"security_camera_01","normalTexture":{"index":0},"pbrMetallicRoughness":{"baseColorTexture":{"index":1},"metallicRoughnessTexture":{"index":2}}},{"alphaMode":"BLEND","doubleSided":true,"name":"security_camera_01_glass","normalTexture":{"index":3},"pbrMetallicRoughness":{"baseColorTexture":{"index":4},"metallicRoughnessTexture":{"index":5}}}],"textures":[{"sampler":0,"source":0},{"sampler":0,"source":1},{"sampler":0,"source":2},{"sampler":0,"source":0},{"sampler":0,"source":3},{"sampler":0,"source":2}],"samplers":[{"magFilter":9729,"minFilter":9987}],"images":[{"mimeType":"image/jpeg","name":"security_camera_01_nor_gl","uri":"textures/security_camera_01_nor_gl_1k.jpg"},{"mimeType":"image/jpeg","name":"security_camera_01_diff","uri":"textures/security_camera_01_diff_1k.jpg"},{"mimeType":"image/jpeg","name":"security_camera_01_metal-security_camera_01_rough","uri":"textures/security_camera_01_arm_1k.jpg"},{"mimeType":"image/jpeg","name":"security_camera_01_diff-security_camera_01_opacity","uri":"textures/security_camera_01_diff_1k.jpg"}]}
