{"asset":{"version":"2.0","generator":"prepare_city_assets.py"},"scene":0,"scenes":[{"nodes":[0]}],"nodes":[{"name":"kiri86","mesh":0}],"meshes":[{"name":"kiri86","primitives":[{"attributes":{"POSITION":0,"NORMAL":1,"TEXCOORD_0":2},"indices":3,"material":0},{"attributes":{"POSITION":4,"NORMAL":5,"TEXCOORD_0":6},"indices":7,"material":1},{"attributes":{"POSITION":8,"NORMAL":9,"TEXCOORD_0":10},"indices":11,"material":2},{"attributes":{"POSITION":12,"NORMAL":13,"TEXCOORD_0":14},"indices":15,"material":3},{"attributes":{"POSITION":16,"NORMAL":17,"TEXCOORD_0":18},"indices":19,"material":4},{"attributes":{"POSITION":20,"NORMAL":21,"TEXCOORD_0":22},"indices":23,"material":5},{"attributes":{"POSITION":24,"NORMAL":25,"TEXCOORD_0":26},"indices":27,"material":6},{"attributes":{"POSITION":28,"NORMAL":29,"TEXCOORD_0":30},"indices":31,"material":7}]}],"materials":[{"doubleSided":true,"name":"kiri86_Bodymat","occlusionTexture":{"index":0},"pbrMetallicRoughness":{"baseColorFactor":[0.015,0.015,0.017,1],"roughnessFactor":0.3,"metallicFactor":0.15}},{"doubleSided":true,"extensions":{"KHR_materials_specular":{"specularColorFactor":[1.0,1.0,1.0],"specularFactor":1.0,"specularTexture":{"index":4}}},"name":"UCB_BOTTOM_GT","occlusionTexture":{"index":3},"pbrMetallicRoughness":{"baseColorTexture":{"index":2},"metallicRoughnessTexture":{"index":3}}},{"alphaMode":"BLEND","doubleSided":true,"name":"UCB_Lights_and_Glass_Transperent","pbrMetallicRoughness":{"baseColorFactor":[1.0,1.0,1.0,0.8],"baseColorTexture":{"index":5},"metallicFactor":0.0,"roughnessFactor":0.07257244765516349}},{"doubleSided":true,"extensions":{"KHR_materials_specular":{"specularColorFactor":[1.0,1.0,1.0],"specularFactor":1.0,"specularTexture":{"index":4}}},"name":"UCB_Interior_Trim","occlusionTexture":{"index":6},"pbrMetallicRoughness":{"baseColorTexture":{"index":2},"metallicFactor":0.0,"metallicRoughnessTexture":{"index":6}}},{"doubleSided":true,"name":"UCB_Lights_and_Glass","pbrMetallicRoughness":{"baseColorTexture":{"index":5},"metallicFactor":0.0,"roughnessFactor":0.0543534184864978}},{"alphaMode":"BLEND","doubleSided":true,"name":"Numberplates_Misk_U","pbrMetallicRoughness":{"baseColorTexture":{"index":7},"metallicFactor":0.0,"roughnessFactor":0.10702864035024488}},{"alphaMode":"BLEND","doubleSided":true,"name":"Carbadges_misc_U","normalTexture":{"index":9},"pbrMetallicRoughness":{"baseColorTexture":{"index":8},"metallicFactor":0.6191433227151344,"roughnessFactor":0.44302604075136603}},{"doubleSided":true,"extensions":{"KHR_materials_specular":{"specularColorFactor":[1.0,1.0,1.0],"specularFactor":1.0,"specularTexture":{"index":12}}},"name":"RB1c_Tire_1k","occlusionTexture":{"index":11},"pbrMetallicRoughness":{"baseColorTexture":{"index":10},"metallicFactor":0.8,"metallicRoughnessTexture":{"index":11}}}],"textures":[{"sampler":0,"source":0},{"sampler":0,"source":1},{"sampler":0,"source":2},{"sampler":0,"source":3},{"sampler":0,"source":4},{"sampler":0,"source":5},{"sampler":0,"source":6},{"sampler":0,"source":7},{"sampler":0,"source":8},{"sampler":0,"source":9},{"sampler":0,"source":10},{"sampler":0,"source":11},{"sampler":0,"source":12}],"images":[{"uri":"textures/kiri86_Bodymat_metallicRoughness.jpg"},{"uri":"textures/kiri86_Bodymat_specularf0.jpg"},{"uri":"textures/UCB_BOTTOM_GT_baseColor.jpg"},{"uri":"textures/UCB_BOTTOM_GT_metallicRoughness.jpg"},{"uri":"textures/UCB_BOTTOM_GT_specularf0.jpg"},{"uri":"textures/UCB_Lights_and_Glass_Transperent_baseColor.png"},{"uri":"textures/UCB_Interior_Trim_metallicRoughness.jpg"},{"uri":"textures/Numberplates_Misk_U_baseColor.png"},{"uri":"textures/Carbadges_misc_U_baseColor.png"},{"uri":"textures/Carbadges_misc_U_normal.jpg"},{"uri":"textures/RB1c_Tire_1k_baseColor.jpg"},{"uri":"textures/RB1c_Tire_1k_metallicRoughness.jpg"},{"uri":"textures/RB1c_Tire_1k_specularf0.jpg"}],"samplers":[{"magFilter":9729,"minFilter":9987,"wrapS":10497,"wrapT":10497}],"buffers":[{"uri":"model.bin","byteLength":842648}],"bufferViews":[{"buffer":0,"byteOffset":0,"byteLength":48456,"target":34962},{"buffer":0,"byteOffset":48456,"byteLength":48456,"target":34962},{"buffer":0,"byteOffset":96912,"byteLength":32304,"target":34962},{"buffer":0,"byteOffset":129216,"byteLength":60024,"target":34963},{"buffer":0,"byteOffset":189240,"byteLength":69936,"target":34962},{"buffer":0,"byteOffset":259176,"byteLength":69936,"target":34962},{"buffer":0,"byteOffset":329112,"byteLength":46624,"target":34962},{"buffer":0,"byteOffset":375736,"byteLength":74400,"target":34963},{"buffer":0,"byteOffset":450136,"byteLength":7380,"target":34962},{"buffer":0,"byteOffset":457516,"byteLength":7380,"target":34962},{"buffer":0,"byteOffset":464896,"byteLength":4920,"target":34962},{"buffer":0,"byteOffset":469816,"byteLength":7392,"target":34963},{"buffer":0,"byteOffset":477208,"byteLength":38796,"target":34962},{"buffer":0,"byteOffset":516004,"byteLength":38796,"target":34962},{"buffer":0,"byteOffset":554800,"byteLength":25864,"target":34962},{"buffer":0,"byteOffset":580664,"byteLength":40656,"target":34963},{"buffer":0,"byteOffset":621320,"byteLength":2640,"target":34962},{"buffer":0,"byteOffset":623960,"byteLength":2640,"target":34962},{"buffer":0,"byteOffset":626600,"byteLength":1760,"target":34962},{"buffer":0,"byteOffset":628360,"byteLength":2688,"target":34963},{"buffer":0,"byteOffset":631048,"byteLength":2304,"target":34962},{"buffer":0,"byteOffset":633352,"byteLength":2304,"target":34962},{"buffer":0,"byteOffset":635656,"byteLength":1536,"target":34962},{"buffer":0,"byteOffset":637192,"byteLength":1920,"target":34963},{"buffer":0,"byteOffset":639112,"byteLength":1164,"target":34962},{"buffer":0,"byteOffset":640276,"byteLength":1164,"target":34962},{"buffer":0,"byteOffset":641440,"byteLength":776,"target":34962},{"buffer":0,"byteOffset":642216,"byteLength":624,"target":34963},{"buffer":0,"byteOffset":642840,"byteLength":53904,"target":34962},{"buffer":0,"byteOffset":696744,"byteLength":53904,"target":34962},{"buffer":0,"byteOffset":750648,"byteLength":35936,"target":34962},{"buffer":0,"byteOffset":786584,"byteLength":56064,"target":34963}],"accessors":[{"bufferView":0,"componentType":5126,"count":4038,"type":"VEC3","min":[-2.1567749977111816,-0.8387346863746643,0.28214389085769653],"max":[2.1378626823425293,0.8393623232841492,1.318424105644226]},{"bufferView":1,"componentType":5126,"count":4038,"type":"VEC3"},{"bufferView":2,"componentType":5126,"count":4038,"type":"VEC2"},{"bufferView":3,"componentType":5125,"count":15006,"type":"SCALAR"},{"bufferView":4,"componentType":5126,"count":5828,"type":"VEC3","min":[-2.1567752361297607,-0.8802647590637207,0.15545424818992615],"max":[2.1549551486968994,0.8802647590637207,1.319745659828186]},{"bufferView":5,"componentType":5126,"count":5828,"type":"VEC3"},{"bufferView":6,"componentType":5126,"count":5828,"type":"VEC2"},{"bufferView":7,"componentType":5125,"count":18600,"type":"SCALAR"},{"bufferView":8,"componentType":5126,"count":615,"type":"VEC3","min":[-2.0651607513427734,-0.7814598083496094,0.5656183362007141],"max":[2.0034265518188477,0.7819579243659973,1.3175253868103027]},{"bufferView":9,"componentType":5126,"count":615,"type":"VEC3"},{"bufferView":10,"componentType":5126,"count":615,"type":"VEC2"},{"bufferView":11,"componentType":5125,"count":1848,"type":"SCALAR"},{"bufferView":12,"componentType":5126,"count":3233,"type":"VEC3","min":[-1.5940732955932617,-0.7021523118019104,0.30518725514411926],"max":[0.9964896440505981,0.7022026181221008,1.3147820234298706]},{"bufferView":13,"componentType":5126,"count":3233,"type":"VEC3"},{"bufferView":14,"componentType":5126,"count":3233,"type":"VEC2"},{"bufferView":15,"componentType":5125,"count":10164,"type":"SCALAR"},{"bufferView":16,"componentType":5126,"count":220,"type":"VEC3","min":[-2.0633740425109863,-0.781459629535675,0.565618097782135],"max":[2.0034265518188477,0.7819581031799316,0.7818670868873596]},{"bufferView":17,"componentType":5126,"count":220,"type":"VEC3"},{"bufferView":18,"componentType":5126,"count":220,"type":"VEC2"},{"bufferView":19,"componentType":5125,"count":672,"type":"SCALAR"},{"bufferView":20,"componentType":5126,"count":192,"type":"VEC3","min":[-2.0918431282043457,-0.15003976225852966,0.36732545495033264],"max":[2.1567752361297607,0.5002856254577637,0.7396971583366394]},{"bufferView":21,"componentType":5126,"count":192,"type":"VEC3"},{"bufferView":22,"componentType":5126,"count":192,"type":"VEC2"},{"bufferView":23,"componentType":5125,"count":480,"type":"SCALAR"},{"bufferView":24,"componentType":5126,"count":97,"type":"VEC3","min":[-2.0918381214141846,-0.8197899460792542,0.4748185873031616],"max":[2.043410539627075,0.8206919431686401,0.648872971534729]},{"bufferView":25,"componentType":5126,"count":97,"type":"VEC3"},{"bufferView":26,"componentType":5126,"count":97,"type":"VEC2"},{"bufferView":27,"componentType":5125,"count":156,"type":"SCALAR"},{"bufferView":28,"componentType":5126,"count":4492,"type":"VEC3","min":[-1.4214231967926025,-0.8056691288948059,0.0],"max":[1.6089648008346558,0.8068178296089172,0.5730550289154053]},{"bufferView":29,"componentType":5126,"count":4492,"type":"VEC3"},{"bufferView":30,"componentType":5126,"count":4492,"type":"VEC2"},{"bufferView":31,"componentType":5125,"count":14016,"type":"SCALAR"}],"extensionsUsed":["KHR_materials_specular"]}
