{"asset":{"version":"2.0","generator":"prepare_warehouse_assets.py"},"scene":0,"scenes":[{"nodes":[0]}],"nodes":[{"name":"model","mesh":0}],"meshes":[{"name":"model","primitives":[{"attributes":{"POSITION":0,"NORMAL":1,"TEXCOORD_0":2},"indices":3,"material":0}]}],"buffers":[{"uri":"model.bin","byteLength":205608}],"bufferViews":[{"buffer":0,"byteOffset":0,"byteLength":53532,"target":34962},{"buffer":0,"byteOffset":53532,"byteLength":53532,"target":34962},{"buffer":0,"byteOffset":107064,"byteLength":35688,"target":34962},{"buffer":0,"byteOffset":142752,"byteLength":62856,"target":34963}],"accessors":[{"bufferView":0,"componentType":5126,"count":4461,"type":"VEC3","min":[-0.1686808466911316,-0.1686808466911316,0.0],"max":[0.1686808466911316,0.1686808466911316,0.5537950396537781]},{"bufferView":1,"componentType":5126,"count":4461,"type":"VEC3"},{"bufferView":2,"componentType":5126,"count":4461,"type":"VEC2"},{"bufferView":3,"componentType":5125,"count":15714,"type":"SCALAR"}],"materials":[{"name":"propane_tank","normalTexture":{"index":0},"pbrMetallicRoughness":{"baseColorTexture":{"index":1},"metallicRoughnessTexture":{"index":2}}}],"textures":[{"sampler":0,"source":0},{"sampler":0,"source":1},{"sampler":0,"source":2}],"samplers":[{"magFilter":9729,"minFilter":9987}],"images":[{"mimeType":"image/jpeg","name":"propane_tank_nor_gl","uri":"textures/propane_tank_nor_gl_1k.jpg"},{"mimeType":"image/jpeg","name":"propane_tank_diff","uri":"textures/propane_tank_diff_1k.jpg"},{"mimeType":"image/jpeg","name":"propane_tank_metal-propane_tank_rough","uri":"textures/propane_tank_arm_1k.jpg"}]}
