{"asset":{"version":"2.0","generator":"prepare_warehouse_assets.py"},"scene":0,"scenes":[{"nodes":[0]}],"nodes":[{"name":"model","mesh":0}],"meshes":[{"name":"model","primitives":[{"attributes":{"POSITION":0,"NORMAL":1,"TEXCOORD_0":2},"indices":3,"material":0}]}],"buffers":[{"uri":"model.bin","byteLength":28064}],"bufferViews":[{"buffer":0,"byteOffset":0,"byteLength":8040,"target":34962},{"buffer":0,"byteOffset":8040,"byteLength":8040,"target":34962},{"buffer":0,"byteOffset":16080,"byteLength":5360,"target":34962},{"buffer":0,"byteOffset":21440,"byteLength":6624,"target":34963}],"accessors":[{"bufferView":0,"componentType":5126,"count":670,"type":"VEC3","min":[-0.5400000214576721,-0.1500428467988968,0.0],"max":[0.5400000214576721,0.1500428467988968,2.3999733924865723]},{"bufferView":1,"componentType":5126,"count":670,"type":"VEC3"},{"bufferView":2,"componentType":5126,"count":670,"type":"VEC2"},{"bufferView":3,"componentType":5125,"count":1656,"type":"SCALAR"}],"materials":[{"doubleSided":true,"extensions":{"KHR_materials_specular":{"specularColorFactor":[0.948543059910952,0.948543059910952,0.948543059910952]},"KHR_materials_ior":{"ior":1.4500000476837158}},"name":"rollershutter_door","normalTexture":{"index":0},"pbrMetallicRoughness":{"baseColorTexture":{"index":1},"metallicRoughnessTexture":{"index":2}}},{"doubleSided":true,"extensions":{"KHR_materials_specular":{"specularColorFactor":[0.948543059910952,0.948543059910952,0.948543059910952]},"KHR_materials_ior":{"ior":1.4500000476837158}},"name":"rollershutter_door_graffiti","normalTexture":{"index":3},"pbrMetallicRoughness":{"baseColorTexture":{"index":4},"metallicRoughnessTexture":{"index":5}}}],"textures":[{"sampler":0,"source":0},{"sampler":0,"source":1},{"sampler":0,"source":2},{"sampler":0,"source":0},{"sampler":0,"source":3},{"sampler":0,"source":2}],"samplers":[{"magFilter":9729,"minFilter":9987}],"images":[{"mimeType":"image/jpeg","name":"rollershutter_door_nor_gl","uri":"textures/rollershutter_door_nor_gl_1k.jpg"},{"mimeType":"image/jpeg","name":"rollershutter_door_diff","uri":"textures/rollershutter_door_diff_1k.jpg"},{"mimeType":"image/jpeg","name":"rollershutter_door_metal-rollershutter_door_rough","uri":"textures/rollershutter_door_arm_1k.jpg"},{"mimeType":"image/jpeg","name":"rollershutter_door_graffiti_diff","uri":"textures/rollershutter_door_graffiti_diff_1k.jpg"}],"extensionsUsed":["KHR_materials_ior","KHR_materials_specular"]}
