{
 "asset": {
  "version": "2.0",
  "generator": "generate_warehouse_rscene.py"
 },
 "scene": 0,
 "scenes": [
  {
   "nodes": [
    0
   ]
  }
 ],
 "nodes": [
  {
   "mesh": 0,
   "name": "floor"
  }
 ],
 "meshes": [
  {
   "name": "floor",
   "primitives": [
    {
     "material": 0,
     "indices": 0,
     "attributes": {
      "POSITION": 1,
      "NORMAL": 2,
      "TEXCOORD_0": 3
     }
    },
    {
     "material": 1,
     "indices": 4,
     "attributes": {
      "POSITION": 5,
      "NORMAL": 6,
      "TEXCOORD_0": 7
     }
    },
    {
     "material": 2,
     "indices": 8,
     "attributes": {
      "POSITION": 9,
      "NORMAL": 10,
      "TEXCOORD_0": 11
     }
    },
    {
     "material": 3,
     "indices": 12,
     "attributes": {
      "POSITION": 13,
      "NORMAL": 14,
      "TEXCOORD_0": 15
     }
    },
    {
     "material": 4,
     "indices": 16,
     "attributes": {
      "POSITION": 17,
      "NORMAL": 18,
      "TEXCOORD_0": 19
     }
    }
   ]
  }
 ],
 "materials": [
  {
   "name": "floor",
   "pbrMetallicRoughness": {
    "baseColorFactor": [
     1,
     1,
     1,
     1.0
    ],
    "metallicFactor": 0.0,
    "roughnessFactor": 1.0,
    "baseColorTexture": {
     "index": 0
    },
    "metallicRoughnessTexture": {
     "index": 2
    }
   },
   "normalTexture": {
    "index": 1,
    "scale": 0.6
   },
   "occlusionTexture": {
    "index": 2
   }
  },
  {
   "name": "joint",
   "pbrMetallicRoughness": {
    "baseColorFactor": [
     0.05,
     0.05,
     0.05,
     1.0
    ],
    "metallicFactor": 0.0,
    "roughnessFactor": 0.95
   }
  },
  {
   "name": "paint_yellow",
   "pbrMetallicRoughness": {
    "baseColorFactor": [
     0.86,
     0.56,
     0.02,
     1.0
    ],
    "metallicFactor": 0.0,
    "roughnessFactor": 0.5,
    "baseColorTexture": {
     "index": 3
    }
   },
   "alphaMode": "MASK",
   "alphaCutoff": 0.5
  },
  {
   "name": "paint_white",
   "pbrMetallicRoughness": {
    "baseColorFactor": [
     0.8,
     0.8,
     0.78,
     1.0
    ],
    "metallicFactor": 0.0,
    "roughnessFactor": 0.5,
    "baseColorTexture": {
     "index": 3
    }
   },
   "alphaMode": "MASK",
   "alphaCutoff": 0.5
  },
  {
   "name": "hazard",
   "pbrMetallicRoughness": {
    "baseColorFactor": [
     1,
     1,
     1,
     1.0
    ],
    "metallicFactor": 0.0,
    "roughnessFactor": 0.8,
    "baseColorTexture": {
     "index": 4
    },
    "metallicRoughnessTexture": {
     "index": 5
    }
   },
   "occlusionTexture": {
    "index": 5
   }
  }
 ],
 "buffers": [
  {
   "uri": "floor.bin",
   "byteLength": 34824
  }
 ],
 "bufferViews": [
  {
   "buffer": 0,
   "byteOffset": 0,
   "byteLength": 5760,
   "target": 34963
  },
  {
   "buffer": 0,
   "byteOffset": 5760,
   "byteLength": 3276,
   "target": 34962
  },
  {
   "buffer": 0,
   "byteOffset": 9036,
   "byteLength": 3276,
   "target": 34962
  },
  {
   "buffer": 0,
   "byteOffset": 12312,
   "byteLength": 2184,
   "target": 34962
  },
  {
   "buffer": 0,
   "byteOffset": 14496,
   "byteLength": 336,
   "target": 34963
  },
  {
   "buffer": 0,
   "byteOffset": 14832,
   "byteLength": 672,
   "target": 34962
  },
  {
   "buffer": 0,
   "byteOffset": 15504,
   "byteLength": 672,
   "target": 34962
  },
  {
   "buffer": 0,
   "byteOffset": 16176,
   "byteLength": 448,
   "target": 34962
  },
  {
   "buffer": 0,
   "byteOffset": 16624,
   "byteLength": 4056,
   "target": 34963
  },
  {
   "buffer": 0,
   "byteOffset": 20680,
   "byteLength": 4656,
   "target": 34962
  },
  {
   "buffer": 0,
   "byteOffset": 25336,
   "byteLength": 4656,
   "target": 34962
  },
  {
   "buffer": 0,
   "byteOffset": 29992,
   "byteLength": 3104,
   "target": 34962
  },
  {
   "buffer": 0,
   "byteOffset": 33096,
   "byteLength": 288,
   "target": 34963
  },
  {
   "buffer": 0,
   "byteOffset": 33384,
   "byteLength": 312,
   "target": 34962
  },
  {
   "buffer": 0,
   "byteOffset": 33696,
   "byteLength": 312,
   "target": 34962
  },
  {
   "buffer": 0,
   "byteOffset": 34008,
   "byteLength": 208,
   "target": 34962
  },
  {
   "buffer": 0,
   "byteOffset": 34216,
   "byteLength": 96,
   "target": 34963
  },
  {
   "buffer": 0,
   "byteOffset": 34312,
   "byteLength": 192,
   "target": 34962
  },
  {
   "buffer": 0,
   "byteOffset": 34504,
   "byteLength": 192,
   "target": 34962
  },
  {
   "buffer": 0,
   "byteOffset": 34696,
   "byteLength": 128,
   "target": 34962
  }
 ],
 "accessors": [
  {
   "bufferView": 0,
   "componentType": 5125,
   "count": 1440,
   "type": "SCALAR"
  },
  {
   "bufferView": 1,
   "componentType": 5126,
   "count": 273,
   "type": "VEC3",
   "min": [
    -30.0,
    -18.0,
    0.0
   ],
   "max": [
    30.0,
    18.0,
    0.0
   ]
  },
  {
   "bufferView": 2,
   "componentType": 5126,
   "count": 273,
   "type": "VEC3"
  },
  {
   "bufferView": 3,
   "componentType": 5126,
   "count": 273,
   "type": "VEC2"
  },
  {
   "bufferView": 4,
   "componentType": 5125,
   "count": 84,
   "type": "SCALAR"
  },
  {
   "bufferView": 5,
   "componentType": 5126,
   "count": 56,
   "type": "VEC3",
   "min": [
    -30.0,
    -18.0,
    0.001
   ],
   "max": [
    30.0,
    18.0,
    0.001
   ]
  },
  {
   "bufferView": 6,
   "componentType": 5126,
   "count": 56,
   "type": "VEC3"
  },
  {
   "bufferView": 7,
   "componentType": 5126,
   "count": 56,
   "type": "VEC2"
  },
  {
   "bufferView": 8,
   "componentType": 5125,
   "count": 1014,
   "type": "SCALAR"
  },
  {
   "bufferView": 9,
   "componentType": 5126,
   "count": 388,
   "type": "VEC3",
   "min": [
    -27.2,
    -17.6,
    0.003
   ],
   "max": [
    27.0,
    16.350000000000005,
    0.003
   ]
  },
  {
   "bufferView": 10,
   "componentType": 5126,
   "count": 388,
   "type": "VEC3"
  },
  {
   "bufferView": 11,
   "componentType": 5126,
   "count": 388,
   "type": "VEC2"
  },
  {
   "bufferView": 12,
   "componentType": 5125,
   "count": 72,
   "type": "SCALAR"
  },
  {
   "bufferView": 13,
   "componentType": 5126,
   "count": 26,
   "type": "VEC3",
   "min": [
    27.8,
    -17.6,
    0.003
   ],
   "max": [
    27.9,
    17.6,
    0.003
   ]
  },
  {
   "bufferView": 14,
   "componentType": 5126,
   "count": 26,
   "type": "VEC3"
  },
  {
   "bufferView": 15,
   "componentType": 5126,
   "count": 26,
   "type": "VEC2"
  },
  {
   "bufferView": 16,
   "componentType": 5125,
   "count": 24,
   "type": "SCALAR"
  },
  {
   "bufferView": 17,
   "componentType": 5126,
   "count": 16,
   "type": "VEC3",
   "min": [
    29.65,
    -15.0,
    0.003
   ],
   "max": [
    30.0,
    15.0,
    0.003
   ]
  },
  {
   "bufferView": 18,
   "componentType": 5126,
   "count": 16,
   "type": "VEC3"
  },
  {
   "bufferView": 19,
   "componentType": 5126,
   "count": 16,
   "type": "VEC2"
  }
 ],
 "images": [
  {
   "uri": "../textures/concrete_floor_worn_001/concrete_floor_worn_001_diff_2k.jpg"
  },
  {
   "uri": "../textures/concrete_floor_worn_001/concrete_floor_worn_001_nor_gl_2k.jpg"
  },
  {
   "uri": "../textures/concrete_floor_worn_001/concrete_floor_worn_001_arm_2k.jpg"
  },
  {
   "uri": "../textures/generated/floor_paint_diff.png"
  },
  {
   "uri": "../textures/generated/hazard_stripes_diff.jpg"
  },
  {
   "uri": "../textures/generated/painted_steel_arm.jpg"
  }
 ],
 "textures": [
  {
   "source": 0,
   "sampler": 0
  },
  {
   "source": 1,
   "sampler": 0
  },
  {
   "source": 2,
   "sampler": 0
  },
  {
   "source": 3,
   "sampler": 0
  },
  {
   "source": 4,
   "sampler": 0
  },
  {
   "source": 5,
   "sampler": 0
  }
 ],
 "samplers": [
  {
   "magFilter": 9729,
   "minFilter": 9987,
   "wrapS": 10497,
   "wrapT": 10497
  }
 ]
}
