{
 "asset": {
  "version": "2.0",
  "generator": "generate_warehouse_rscene.py"
 },
 "scene": 0,
 "scenes": [
  {
   "nodes": [
    0
   ]
  }
 ],
 "nodes": [
  {
   "mesh": 0,
   "name": "racking"
  }
 ],
 "meshes": [
  {
   "name": "racking",
   "primitives": [
    {
     "material": 0,
     "indices": 0,
     "attributes": {
      "POSITION": 1,
      "NORMAL": 2,
      "TEXCOORD_0": 3
     }
    },
    {
     "material": 1,
     "indices": 4,
     "attributes": {
      "POSITION": 5,
      "NORMAL": 6,
      "TEXCOORD_0": 7
     }
    },
    {
     "material": 2,
     "indices": 8,
     "attributes": {
      "POSITION": 9,
      "NORMAL": 10,
      "TEXCOORD_0": 11
     }
    },
    {
     "material": 3,
     "indices": 12,
     "attributes": {
      "POSITION": 13,
      "NORMAL": 14,
      "TEXCOORD_0": 15
     }
    },
    {
     "material": 4,
     "indices": 16,
     "attributes": {
      "POSITION": 17,
      "NORMAL": 18,
      "TEXCOORD_0": 19
     }
    },
    {
     "material": 5,
     "indices": 20,
     "attributes": {
      "POSITION": 21,
      "NORMAL": 22,
      "TEXCOORD_0": 23
     }
    },
    {
     "material": 6,
     "indices": 24,
     "attributes": {
      "POSITION": 25,
      "NORMAL": 26,
      "TEXCOORD_0": 27
     }
    },
    {
     "material": 7,
     "indices": 28,
     "attributes": {
      "POSITION": 29,
      "NORMAL": 30,
      "TEXCOORD_0": 31
     }
    },
    {
     "material": 8,
     "indices": 32,
     "attributes": {
      "POSITION": 33,
      "NORMAL": 34,
      "TEXCOORD_0": 35
     }
    },
    {
     "material": 9,
     "indices": 36,
     "attributes": {
      "POSITION": 37,
      "NORMAL": 38,
      "TEXCOORD_0": 39
     }
    },
    {
     "material": 10,
     "indices": 40,
     "attributes": {
      "POSITION": 41,
      "NORMAL": 42,
      "TEXCOORD_0": 43
     }
    },
    {
     "material": 11,
     "indices": 44,
     "attributes": {
      "POSITION": 45,
      "NORMAL": 46,
      "TEXCOORD_0": 47
     }
    }
   ]
  }
 ],
 "materials": [
  {
   "name": "upright",
   "pbrMetallicRoughness": {
    "baseColorFactor": [
     0.015,
     0.085,
     0.3,
     1.0
    ],
    "metallicFactor": 0.0,
    "roughnessFactor": 0.8,
    "baseColorTexture": {
     "index": 0
    },
    "metallicRoughnessTexture": {
     "index": 1
    }
   },
   "occlusionTexture": {
    "index": 1
   }
  },
  {
   "name": "brace",
   "pbrMetallicRoughness": {
    "baseColorFactor": [
     0.015,
     0.085,
     0.3,
     1.0
    ],
    "metallicFactor": 0.0,
    "roughnessFactor": 0.8,
    "baseColorTexture": {
     "index": 2
    },
    "metallicRoughnessTexture": {
     "index": 1
    }
   },
   "occlusionTexture": {
    "index": 1
   }
  },
  {
   "name": "beam",
   "pbrMetallicRoughness": {
    "baseColorFactor": [
     0.85,
     0.2,
     0.012,
     1.0
    ],
    "metallicFactor": 0.0,
    "roughnessFactor": 0.8,
    "baseColorTexture": {
     "index": 2
    },
    "metallicRoughnessTexture": {
     "index": 1
    }
   },
   "occlusionTexture": {
    "index": 1
   }
  },
  {
   "name": "galvanized",
   "pbrMetallicRoughness": {
    "baseColorFactor": [
     0.62,
     0.63,
     0.64,
     1.0
    ],
    "metallicFactor": 0.85,
    "roughnessFactor": 0.9,
    "baseColorTexture": {
     "index": 2
    },
    "metallicRoughnessTexture": {
     "index": 1
    }
   },
   "occlusionTexture": {
    "index": 1
   }
  },
  {
   "name": "yellow_steel",
   "pbrMetallicRoughness": {
    "baseColorFactor": [
     0.92,
     0.6,
     0.02,
     1.0
    ],
    "metallicFactor": 0.0,
    "roughnessFactor": 0.8,
    "baseColorTexture": {
     "index": 2
    },
    "metallicRoughnessTexture": {
     "index": 1
    }
   },
   "occlusionTexture": {
    "index": 1
   }
  },
  {
   "name": "label",
   "pbrMetallicRoughness": {
    "baseColorFactor": [
     0.85,
     0.85,
     0.82,
     1.0
    ],
    "metallicFactor": 0.0,
    "roughnessFactor": 0.6
   }
  },
  {
   "name": "hazard",
   "pbrMetallicRoughness": {
    "baseColorFactor": [
     1,
     1,
     1,
     1.0
    ],
    "metallicFactor": 0.0,
    "roughnessFactor": 0.8,
    "baseColorTexture": {
     "index": 3
    },
    "metallicRoughnessTexture": {
     "index": 1
    }
   },
   "occlusionTexture": {
    "index": 1
   }
  },
  {
   "name": "rubber",
   "pbrMetallicRoughness": {
    "baseColorFactor": [
     0.025,
     0.025,
     0.025,
     1.0
    ],
    "metallicFactor": 0.0,
    "roughnessFactor": 0.8
   }
  },
  {
   "name": "door_steel",
   "pbrMetallicRoughness": {
    "baseColorFactor": [
     0.22,
     0.3,
     0.38,
     1.0
    ],
    "metallicFactor": 0.0,
    "roughnessFactor": 0.8,
    "baseColorTexture": {
     "index": 2
    },
    "metallicRoughnessTexture": {
     "index": 1
    }
   },
   "occlusionTexture": {
    "index": 1
   }
  },
  {
   "name": "exit_sign",
   "pbrMetallicRoughness": {
    "baseColorFactor": [
     1,
     1,
     1,
     1.0
    ],
    "metallicFactor": 0.0,
    "roughnessFactor": 0.3,
    "baseColorTexture": {
     "index": 4
    }
   },
   "emissiveFactor": [
    1,
    1,
    1
   ],
   "emissiveTexture": {
    "index": 4
   },
   "extensions": {
    "KHR_materials_emissive_strength": {
     "emissiveStrength": 3.0
    }
   }
  },
  {
   "name": "aisle_sign",
   "pbrMetallicRoughness": {
    "baseColorFactor": [
     1,
     1,
     1,
     1.0
    ],
    "metallicFactor": 0.0,
    "roughnessFactor": 0.5,
    "baseColorTexture": {
     "index": 5
    }
   }
  },
  {
   "name": "sprinkler",
   "pbrMetallicRoughness": {
    "baseColorFactor": [
     0.55,
     0.03,
     0.02,
     1.0
    ],
    "metallicFactor": 0.0,
    "roughnessFactor": 0.8,
    "baseColorTexture": {
     "index": 2
    },
    "metallicRoughnessTexture": {
     "index": 1
    }
   },
   "occlusionTexture": {
    "index": 1
   }
  }
 ],
 "buffers": [
  {
   "uri": "racking.bin",
   "byteLength": 3056016
  }
 ],
 "bufferViews": [
  {
   "buffer": 0,
   "byteOffset": 0,
   "byteLength": 37440,
   "target": 34963
  },
  {
   "buffer": 0,
   "byteOffset": 37440,
   "byteLength": 74880,
   "target": 34962
  },
  {
   "buffer": 0,
   "byteOffset": 112320,
   "byteLength": 74880,
   "target": 34962
  },
  {
   "buffer": 0,
   "byteOffset": 187200,
   "byteLength": 49920,
   "target": 34962
  },
  {
   "buffer": 0,
   "byteOffset": 237120,
   "byteLength": 168480,
   "target": 34963
  },
  {
   "buffer": 0,
   "byteOffset": 405600,
   "byteLength": 336960,
   "target": 34962
  },
  {
   "buffer": 0,
   "byteOffset": 742560,
   "byteLength": 336960,
   "target": 34962
  },
  {
   "buffer": 0,
   "byteOffset": 1079520,
   "byteLength": 224640,
   "target": 34962
  },
  {
   "buffer": 0,
   "byteOffset": 1304160,
   "byteLength": 11520,
   "target": 34963
  },
  {
   "buffer": 0,
   "byteOffset": 1315680,
   "byteLength": 23040,
   "target": 34962
  },
  {
   "buffer": 0,
   "byteOffset": 1338720,
   "byteLength": 23040,
   "target": 34962
  },
  {
   "buffer": 0,
   "byteOffset": 1361760,
   "byteLength": 15360,
   "target": 34962
  },
  {
   "buffer": 0,
   "byteOffset": 1377120,
   "byteLength": 89856,
   "target": 34963
  },
  {
   "buffer": 0,
   "byteOffset": 1466976,
   "byteLength": 179712,
   "target": 34962
  },
  {
   "buffer": 0,
   "byteOffset": 1646688,
   "byteLength": 179712,
   "target": 34962
  },
  {
   "buffer": 0,
   "byteOffset": 1826400,
   "byteLength": 119808,
   "target": 34962
  },
  {
   "buffer": 0,
   "byteOffset": 1946208,
   "byteLength": 25632,
   "target": 34963
  },
  {
   "buffer": 0,
   "byteOffset": 1971840,
   "byteLength": 51264,
   "target": 34962
  },
  {
   "buffer": 0,
   "byteOffset": 2023104,
   "byteLength": 51264,
   "target": 34962
  },
  {
   "buffer": 0,
   "byteOffset": 2074368,
   "byteLength": 34176,
   "target": 34962
  },
  {
   "buffer": 0,
   "byteOffset": 2108544,
   "byteLength": 138240,
   "target": 34963
  },
  {
   "buffer": 0,
   "byteOffset": 2246784,
   "byteLength": 276480,
   "target": 34962
  },
  {
   "buffer": 0,
   "byteOffset": 2523264,
   "byteLength": 276480,
   "target": 34962
  },
  {
   "buffer": 0,
   "byteOffset": 2799744,
   "byteLength": 184320,
   "target": 34962
  },
  {
   "buffer": 0,
   "byteOffset": 2984064,
   "byteLength": 2880,
   "target": 34963
  },
  {
   "buffer": 0,
   "byteOffset": 2986944,
   "byteLength": 5760,
   "target": 34962
  },
  {
   "buffer": 0,
   "byteOffset": 2992704,
   "byteLength": 5760,
   "target": 34962
  },
  {
   "buffer": 0,
   "byteOffset": 2998464,
   "byteLength": 3840,
   "target": 34962
  },
  {
   "buffer": 0,
   "byteOffset": 3002304,
   "byteLength": 1440,
   "target": 34963
  },
  {
   "buffer": 0,
   "byteOffset": 3003744,
   "byteLength": 2880,
   "target": 34962
  },
  {
   "buffer": 0,
   "byteOffset": 3006624,
   "byteLength": 2880,
   "target": 34962
  },
  {
   "buffer": 0,
   "byteOffset": 3009504,
   "byteLength": 1920,
   "target": 34962
  },
  {
   "buffer": 0,
   "byteOffset": 3011424,
   "byteLength": 288,
   "target": 34963
  },
  {
   "buffer": 0,
   "byteOffset": 3011712,
   "byteLength": 576,
   "target": 34962
  },
  {
   "buffer": 0,
   "byteOffset": 3012288,
   "byteLength": 576,
   "target": 34962
  },
  {
   "buffer": 0,
   "byteOffset": 3012864,
   "byteLength": 384,
   "target": 34962
  },
  {
   "buffer": 0,
   "byteOffset": 3013248,
   "byteLength": 48,
   "target": 34963
  },
  {
   "buffer": 0,
   "byteOffset": 3013296,
   "byteLength": 96,
   "target": 34962
  },
  {
   "buffer": 0,
   "byteOffset": 3013392,
   "byteLength": 96,
   "target": 34962
  },
  {
   "buffer": 0,
   "byteOffset": 3013488,
   "byteLength": 64,
   "target": 34962
  },
  {
   "buffer": 0,
   "byteOffset": 3013552,
   "byteLength": 480,
   "target": 34963
  },
  {
   "buffer": 0,
   "byteOffset": 3014032,
   "byteLength": 960,
   "target": 34962
  },
  {
   "buffer": 0,
   "byteOffset": 3014992,
   "byteLength": 960,
   "target": 34962
  },
  {
   "buffer": 0,
   "byteOffset": 3015952,
   "byteLength": 640,
   "target": 34962
  },
  {
   "buffer": 0,
   "byteOffset": 3016592,
   "byteLength": 9600,
   "target": 34963
  },
  {
   "buffer": 0,
   "byteOffset": 3026192,
   "byteLength": 11184,
   "target": 34962
  },
  {
   "buffer": 0,
   "byteOffset": 3037376,
   "byteLength": 11184,
   "target": 34962
  },
  {
   "buffer": 0,
   "byteOffset": 3048560,
   "byteLength": 7456,
   "target": 34962
  }
 ],
 "accessors": [
  {
   "bufferView": 0,
   "componentType": 5125,
   "count": 9360,
   "type": "SCALAR"
  },
  {
   "bufferView": 1,
   "componentType": 5126,
   "count": 6240,
   "type": "VEC3",
   "min": [
    -27.0,
    -17.55,
    0.0
   ],
   "max": [
    6.570000000000006,
    17.550000000000004,
    8.2
   ]
  },
  {
   "bufferView": 2,
   "componentType": 5126,
   "count": 6240,
   "type": "VEC3"
  },
  {
   "bufferView": 3,
   "componentType": 5126,
   "count": 6240,
   "type": "VEC2"
  },
  {
   "bufferView": 4,
   "componentType": 5125,
   "count": 42120,
   "type": "SCALAR"
  },
  {
   "bufferView": 5,
   "componentType": 5126,
   "count": 28080,
   "type": "VEC3",
   "min": [
    -26.9725,
    -17.48838814305685,
    0.1325
   ],
   "max": [
    6.542500000000006,
    17.488388143056852,
    8.067499999999999
   ]
  },
  {
   "bufferView": 6,
   "componentType": 5126,
   "count": 28080,
   "type": "VEC3"
  },
  {
   "bufferView": 7,
   "componentType": 5126,
   "count": 28080,
   "type": "VEC2"
  },
  {
   "bufferView": 8,
   "componentType": 5125,
   "count": 2880,
   "type": "SCALAR"
  },
  {
   "bufferView": 9,
   "componentType": 5126,
   "count": 1920,
   "type": "VEC3",
   "min": [
    -26.955,
    -17.550000000000004,
    1.6700000000000002
   ],
   "max": [
    6.525000000000006,
    17.550000000000008,
    7.2
   ]
  },
  {
   "bufferView": 10,
   "componentType": 5126,
   "count": 1920,
   "type": "VEC3"
  },
  {
   "bufferView": 11,
   "componentType": 5126,
   "count": 1920,
   "type": "VEC2"
  },
  {
   "bufferView": 12,
   "componentType": 5125,
   "count": 22464,
   "type": "SCALAR"
  },
  {
   "bufferView": 13,
   "componentType": 5126,
   "count": 14976,
   "type": "VEC3",
   "min": [
    -30.0,
    -17.5725,
    0.0
   ],
   "max": [
    30.0,
    17.572500000000005,
    11.28777777777778
   ]
  },
  {
   "bufferView": 14,
   "componentType": 5126,
   "count": 14976,
   "type": "VEC3"
  },
  {
   "bufferView": 15,
   "componentType": 5126,
   "count": 14976,
   "type": "VEC2"
  },
  {
   "bufferView": 16,
   "componentType": 5125,
   "count": 6408,
   "type": "SCALAR"
  },
  {
   "bufferView": 17,
   "componentType": 5126,
   "count": 4272,
   "type": "VEC3",
   "min": [
    -27.39,
    -17.54,
    0.0
   ],
   "max": [
    29.48,
    17.540000000000003,
    1.2
   ]
  },
  {
   "bufferView": 18,
   "componentType": 5126,
   "count": 4272,
   "type": "VEC3"
  },
  {
   "bufferView": 19,
   "componentType": 5126,
   "count": 4272,
   "type": "VEC2"
  },
  {
   "bufferView": 20,
   "componentType": 5125,
   "count": 34560,
   "type": "SCALAR"
  },
  {
   "bufferView": 21,
   "componentType": 5126,
   "count": 23040,
   "type": "VEC3",
   "min": [
    -26.29,
    -16.449,
    1.705
   ],
   "max": [
    5.859999999999998,
    16.449000000000005,
    7.165
   ]
  },
  {
   "bufferView": 22,
   "componentType": 5126,
   "count": 23040,
   "type": "VEC3"
  },
  {
   "bufferView": 23,
   "componentType": 5126,
   "count": 23040,
   "type": "VEC2"
  },
  {
   "bufferView": 24,
   "componentType": 5125,
   "count": 720,
   "type": "SCALAR"
  },
  {
   "bufferView": 25,
   "componentType": 5126,
   "count": 480,
   "type": "VEC3",
   "min": [
    -27.400000000000002,
    -17.6,
    0.175
   ],
   "max": [
    6.970000000000003,
    17.600000000000005,
    0.425
   ]
  },
  {
   "bufferView": 26,
   "componentType": 5126,
   "count": 480,
   "type": "VEC3"
  },
  {
   "bufferView": 27,
   "componentType": 5126,
   "count": 480,
   "type": "VEC2"
  },
  {
   "bufferView": 28,
   "componentType": 5125,
   "count": 360,
   "type": "SCALAR"
  },
  {
   "bufferView": 29,
   "componentType": 5126,
   "count": 240,
   "type": "VEC3",
   "min": [
    -29.998,
    -15.325,
    0.0
   ],
   "max": [
    29.98,
    15.325,
    5.0
   ]
  },
  {
   "bufferView": 30,
   "componentType": 5126,
   "count": 240,
   "type": "VEC3"
  },
  {
   "bufferView": 31,
   "componentType": 5126,
   "count": 240,
   "type": "VEC2"
  },
  {
   "bufferView": 32,
   "componentType": 5125,
   "count": 72,
   "type": "SCALAR"
  },
  {
   "bufferView": 33,
   "componentType": 5126,
   "count": 48,
   "type": "VEC3",
   "min": [
    -29.977999999999998,
    -10.0,
    0.010000000000000009
   ],
   "max": [
    -29.938,
    1.8,
    2.09
   ]
  },
  {
   "bufferView": 34,
   "componentType": 5126,
   "count": 48,
   "type": "VEC3"
  },
  {
   "bufferView": 35,
   "componentType": 5126,
   "count": 48,
   "type": "VEC2"
  },
  {
   "bufferView": 36,
   "componentType": 5125,
   "count": 12,
   "type": "SCALAR"
  },
  {
   "bufferView": 37,
   "componentType": 5126,
   "count": 8,
   "type": "VEC3",
   "min": [
    -29.975,
    -9.7,
    2.375
   ],
   "max": [
    -29.975,
    1.5,
    2.525
   ]
  },
  {
   "bufferView": 38,
   "componentType": 5126,
   "count": 8,
   "type": "VEC3"
  },
  {
   "bufferView": 39,
   "componentType": 5126,
   "count": 8,
   "type": "VEC2"
  },
  {
   "bufferView": 40,
   "componentType": 5125,
   "count": 120,
   "type": "SCALAR"
  },
  {
   "bufferView": 41,
   "componentType": 5126,
   "count": 80,
   "type": "VEC3",
   "min": [
    -27.816,
    -14.96,
    6.8
   ],
   "max": [
    7.386000000000004,
    14.96,
    7.2
   ]
  },
  {
   "bufferView": 42,
   "componentType": 5126,
   "count": 80,
   "type": "VEC3"
  },
  {
   "bufferView": 43,
   "componentType": 5126,
   "count": 80,
   "type": "VEC2"
  },
  {
   "bufferView": 44,
   "componentType": 5125,
   "count": 2400,
   "type": "SCALAR"
  },
  {
   "bufferView": 45,
   "componentType": 5126,
   "count": 932,
   "type": "VEC3",
   "min": [
    -29.5,
    -17.20154978503962,
    9.349516015224987
   ],
   "max": [
    29.5,
    17.20154978503962,
    10.49388888888889
   ]
  },
  {
   "bufferView": 46,
   "componentType": 5126,
   "count": 932,
   "type": "VEC3"
  },
  {
   "bufferView": 47,
   "componentType": 5126,
   "count": 932,
   "type": "VEC2"
  }
 ],
 "extensionsUsed": [
  "KHR_materials_emissive_strength"
 ],
 "images": [
  {
   "uri": "../textures/generated/rack_upright_diff.jpg"
  },
  {
   "uri": "../textures/generated/painted_steel_arm.jpg"
  },
  {
   "uri": "../textures/generated/painted_steel_diff.jpg"
  },
  {
   "uri": "../textures/generated/hazard_stripes_diff.jpg"
  },
  {
   "uri": "../textures/generated/exit_sign.png"
  },
  {
   "uri": "../textures/generated/aisle_signs.png"
  }
 ],
 "textures": [
  {
   "source": 0,
   "sampler": 0
  },
  {
   "source": 1,
   "sampler": 0
  },
  {
   "source": 2,
   "sampler": 0
  },
  {
   "source": 3,
   "sampler": 0
  },
  {
   "source": 4,
   "sampler": 0
  },
  {
   "source": 5,
   "sampler": 0
  }
 ],
 "samplers": [
  {
   "magFilter": 9729,
   "minFilter": 9987,
   "wrapS": 10497,
   "wrapT": 10497
  }
 ]
}
