{
 "asset": {
  "version": "2.0",
  "generator": "generate_warehouse_rscene.py"
 },
 "scene": 0,
 "scenes": [
  {
   "nodes": [
    0
   ]
  }
 ],
 "nodes": [
  {
   "mesh": 0,
   "name": "yard"
  }
 ],
 "meshes": [
  {
   "name": "yard",
   "primitives": [
    {
     "material": 0,
     "indices": 0,
     "attributes": {
      "POSITION": 1,
      "NORMAL": 2,
      "TEXCOORD_0": 3
     }
    },
    {
     "material": 1,
     "indices": 4,
     "attributes": {
      "POSITION": 5,
      "NORMAL": 6,
      "TEXCOORD_0": 7
     }
    },
    {
     "material": 2,
     "indices": 8,
     "attributes": {
      "POSITION": 9,
      "NORMAL": 10,
      "TEXCOORD_0": 11
     }
    },
    {
     "material": 3,
     "indices": 12,
     "attributes": {
      "POSITION": 13,
      "NORMAL": 14,
      "TEXCOORD_0": 15
     }
    }
   ]
  }
 ],
 "materials": [
  {
   "name": "asphalt",
   "pbrMetallicRoughness": {
    "baseColorFactor": [
     1,
     1,
     1,
     1.0
    ],
    "metallicFactor": 0.0,
    "roughnessFactor": 0.8,
    "baseColorTexture": {
     "index": 0
    },
    "metallicRoughnessTexture": {
     "index": 2
    }
   },
   "normalTexture": {
    "index": 1,
    "scale": 1.0
   },
   "occlusionTexture": {
    "index": 2
   }
  },
  {
   "name": "cladding",
   "pbrMetallicRoughness": {
    "baseColorFactor": [
     0.95,
     0.95,
     0.95,
     1.0
    ],
    "metallicFactor": 0.0,
    "roughnessFactor": 0.8,
    "baseColorTexture": {
     "index": 3
    },
    "metallicRoughnessTexture": {
     "index": 5
    }
   },
   "normalTexture": {
    "index": 4,
    "scale": 1.0
   },
   "occlusionTexture": {
    "index": 5
   }
  },
  {
   "name": "concrete_wall",
   "pbrMetallicRoughness": {
    "baseColorFactor": [
     0.86,
     0.9,
     1.0,
     1.0
    ],
    "metallicFactor": 0.0,
    "roughnessFactor": 0.8,
    "baseColorTexture": {
     "index": 6
    },
    "metallicRoughnessTexture": {
     "index": 8
    }
   },
   "normalTexture": {
    "index": 7,
    "scale": 1.0
   },
   "occlusionTexture": {
    "index": 8
   }
  },
  {
   "name": "galvanized",
   "pbrMetallicRoughness": {
    "baseColorFactor": [
     0.62,
     0.63,
     0.64,
     1.0
    ],
    "metallicFactor": 0.85,
    "roughnessFactor": 0.9,
    "baseColorTexture": {
     "index": 9
    },
    "metallicRoughnessTexture": {
     "index": 10
    }
   },
   "occlusionTexture": {
    "index": 10
   }
  }
 ],
 "buffers": [
  {
   "uri": "yard.bin",
   "byteLength": 44936
  }
 ],
 "bufferViews": [
  {
   "buffer": 0,
   "byteOffset": 0,
   "byteLength": 9192,
   "target": 34963
  },
  {
   "buffer": 0,
   "byteOffset": 9192,
   "byteLength": 5280,
   "target": 34962
  },
  {
   "buffer": 0,
   "byteOffset": 14472,
   "byteLength": 5280,
   "target": 34962
  },
  {
   "buffer": 0,
   "byteOffset": 19752,
   "byteLength": 3520,
   "target": 34962
  },
  {
   "buffer": 0,
   "byteOffset": 23272,
   "byteLength": 2880,
   "target": 34963
  },
  {
   "buffer": 0,
   "byteOffset": 26152,
   "byteLength": 1860,
   "target": 34962
  },
  {
   "buffer": 0,
   "byteOffset": 28012,
   "byteLength": 1860,
   "target": 34962
  },
  {
   "buffer": 0,
   "byteOffset": 29872,
   "byteLength": 1240,
   "target": 34962
  },
  {
   "buffer": 0,
   "byteOffset": 31112,
   "byteLength": 720,
   "target": 34963
  },
  {
   "buffer": 0,
   "byteOffset": 31832,
   "byteLength": 744,
   "target": 34962
  },
  {
   "buffer": 0,
   "byteOffset": 32576,
   "byteLength": 744,
   "target": 34962
  },
  {
   "buffer": 0,
   "byteOffset": 33320,
   "byteLength": 496,
   "target": 34962
  },
  {
   "buffer": 0,
   "byteOffset": 33816,
   "byteLength": 2928,
   "target": 34963
  },
  {
   "buffer": 0,
   "byteOffset": 36744,
   "byteLength": 3072,
   "target": 34962
  },
  {
   "buffer": 0,
   "byteOffset": 39816,
   "byteLength": 3072,
   "target": 34962
  },
  {
   "buffer": 0,
   "byteOffset": 42888,
   "byteLength": 2048,
   "target": 34962
  }
 ],
 "accessors": [
  {
   "bufferView": 0,
   "componentType": 5125,
   "count": 2298,
   "type": "SCALAR"
  },
  {
   "bufferView": 1,
   "componentType": 5126,
   "count": 440,
   "type": "VEC3",
   "min": [
    30.25,
    -160.0,
    0.0
   ],
   "max": [
    190.0,
    160.0,
    0.0
   ]
  },
  {
   "bufferView": 2,
   "componentType": 5126,
   "count": 440,
   "type": "VEC3"
  },
  {
   "bufferView": 3,
   "componentType": 5126,
   "count": 440,
   "type": "VEC2"
  },
  {
   "bufferView": 4,
   "componentType": 5125,
   "count": 720,
   "type": "SCALAR"
  },
  {
   "bufferView": 5,
   "componentType": 5126,
   "count": 155,
   "type": "VEC3",
   "min": [
    64.0,
    -45.0,
    2.5
   ],
   "max": [
    64.0,
    45.0,
    12.0
   ]
  },
  {
   "bufferView": 6,
   "componentType": 5126,
   "count": 155,
   "type": "VEC3"
  },
  {
   "bufferView": 7,
   "componentType": 5126,
   "count": 155,
   "type": "VEC2"
  },
  {
   "bufferView": 8,
   "componentType": 5125,
   "count": 180,
   "type": "SCALAR"
  },
  {
   "bufferView": 9,
   "componentType": 5126,
   "count": 62,
   "type": "VEC3",
   "min": [
    64.0,
    -45.0,
    0.0
   ],
   "max": [
    64.0,
    45.0,
    2.5
   ]
  },
  {
   "bufferView": 10,
   "componentType": 5126,
   "count": 62,
   "type": "VEC3"
  },
  {
   "bufferView": 11,
   "componentType": 5126,
   "count": 62,
   "type": "VEC2"
  },
  {
   "bufferView": 12,
   "componentType": 5125,
   "count": 732,
   "type": "SCALAR"
  },
  {
   "bufferView": 13,
   "componentType": 5126,
   "count": 256,
   "type": "VEC3",
   "min": [
    63.7,
    -45.0,
    12.0
   ],
   "max": [
    64.0,
    45.0,
    12.2
   ]
  },
  {
   "bufferView": 14,
   "componentType": 5126,
   "count": 256,
   "type": "VEC3"
  },
  {
   "bufferView": 15,
   "componentType": 5126,
   "count": 256,
   "type": "VEC2"
  }
 ],
 "images": [
  {
   "uri": "../../city/textures/asphalt_02/asphalt_02_diff_2k.jpg"
  },
  {
   "uri": "../../city/textures/asphalt_02/asphalt_02_nor_gl_2k.jpg"
  },
  {
   "uri": "../../city/textures/asphalt_02/asphalt_02_arm_2k.jpg"
  },
  {
   "uri": "../textures/corrugated_iron/corrugated_iron_diff_2k.jpg"
  },
  {
   "uri": "../textures/corrugated_iron/corrugated_iron_nor_gl_2k.jpg"
  },
  {
   "uri": "../textures/corrugated_iron/corrugated_iron_arm_2k.jpg"
  },
  {
   "uri": "../textures/concrete_wall_004/concrete_wall_004_diff_2k.jpg"
  },
  {
   "uri": "../textures/concrete_wall_004/concrete_wall_004_nor_gl_2k.jpg"
  },
  {
   "uri": "../textures/concrete_wall_004/concrete_wall_004_arm_2k.jpg"
  },
  {
   "uri": "../textures/generated/painted_steel_diff.jpg"
  },
  {
   "uri": "../textures/generated/painted_steel_arm.jpg"
  }
 ],
 "textures": [
  {
   "source": 0,
   "sampler": 0
  },
  {
   "source": 1,
   "sampler": 0
  },
  {
   "source": 2,
   "sampler": 0
  },
  {
   "source": 3,
   "sampler": 0
  },
  {
   "source": 4,
   "sampler": 0
  },
  {
   "source": 5,
   "sampler": 0
  },
  {
   "source": 6,
   "sampler": 0
  },
  {
   "source": 7,
   "sampler": 0
  },
  {
   "source": 8,
   "sampler": 0
  },
  {
   "source": 9,
   "sampler": 0
  },
  {
   "source": 10,
   "sampler": 0
  }
 ],
 "samplers": [
  {
   "magFilter": 9729,
   "minFilter": 9987,
   "wrapS": 10497,
   "wrapT": 10497
  }
 ]
}
