{"asset":{"version":"2.0","generator":"prepare_city_assets.py"},"scene":0,"scenes":[{"nodes":[0]}],"nodes":[{"name":"canyon75_taxi","mesh":0}],"meshes":[{"name":"canyon75_taxi","primitives":[{"attributes":{"POSITION":0,"NORMAL":1,"TEXCOORD_0":2},"indices":3,"material":0},{"attributes":{"POSITION":4,"NORMAL":5,"TEXCOORD_0":6},"indices":7,"material":1},{"attributes":{"POSITION":8,"NORMAL":9,"TEXCOORD_0":10},"indices":11,"material":2},{"attributes":{"POSITION":12,"NORMAL":13,"TEXCOORD_0":14},"indices":15,"material":3},{"attributes":{"POSITION":16,"NORMAL":17,"TEXCOORD_0":18},"indices":19,"material":4},{"attributes":{"POSITION":20,"NORMAL":21,"TEXCOORD_0":22},"indices":23,"material":5},{"attributes":{"POSITION":24,"NORMAL":25,"TEXCOORD_0":26},"indices":27,"material":6},{"attributes":{"POSITION":28,"NORMAL":29,"TEXCOORD_0":30},"indices":31,"material":7}]}],"materials":[{"doubleSided":true,"name":"Canyon75_Bodymat","occlusionTexture":{"index":1},"pbrMetallicRoughness":{"baseColorTexture":{"index":0},"roughnessFactor":0.3,"metallicFactor":0.15}},{"doubleSided":true,"extensions":{"KHR_materials_specular":{"specularColorFactor":[1.0,1.0,1.0],"specularFactor":1.0,"specularTexture":{"index":5}}},"name":"UCB_BOTTOM","occlusionTexture":{"index":4},"pbrMetallicRoughness":{"baseColorTexture":{"index":3},"metallicRoughnessTexture":{"index":4}}},{"alphaMode":"BLEND","doubleSided":true,"name":"UCB_Lights_and_Glass_Transperent","pbrMetallicRoughness":{"baseColorFactor":[1.0,1.0,1.0,0.8],"baseColorTexture":{"index":6},"metallicFactor":0.0,"roughnessFactor":0.06042642820938637}},{"doubleSided":true,"name":"UCB_Interiors_2","pbrMetallicRoughness":{"baseColorTexture":{"index":7},"metallicRoughnessTexture":{"index":8}}},{"doubleSided":true,"name":"UCB_Lights_and_Glass","pbrMetallicRoughness":{"baseColorTexture":{"index":6},"metallicFactor":0.0,"roughnessFactor":0.0543534184864978}},{"doubleSided":true,"extensions":{"KHR_materials_specular":{"specularColorFactor":[1.0,1.0,1.0],"specularFactor":1.0,"specularTexture":{"index":11}}},"name":"RB1c_Tire_1k","occlusionTexture":{"index":10},"pbrMetallicRoughness":{"baseColorTexture":{"index":9},"metallicFactor":0.9,"metallicRoughnessTexture":{"index":10}}},{"alphaMode":"BLEND","doubleSided":true,"name":"Numberplates_Misk_U","pbrMetallicRoughness":{"baseColorTexture":{"index":12},"metallicFactor":0.0,"roughnessFactor":0.09157309832869233}},{"alphaMode":"BLEND","doubleSided":true,"name":"Carbadges_misc_U","pbrMetallicRoughness":{"baseColorTexture":{"index":13},"metallicFactor":0.6130703129922459,"roughnessFactor":0.10702864035024488}}],"textures":[{"sampler":0,"source":0},{"sampler":0,"source":1},{"sampler":0,"source":2},{"sampler":0,"source":3},{"sampler":0,"source":4},{"sampler":0,"source":5},{"sampler":0,"source":6},{"sampler":0,"source":7},{"sampler":0,"source":8},{"sampler":0,"source":9},{"sampler":0,"source":10},{"sampler":0,"source":11},{"sampler":0,"source":12},{"sampler":0,"source":13}],"images":[{"uri":"textures/Canyon75_Bodymat_baseColor.jpg"},{"uri":"textures/Canyon75_Bodymat_metallicRoughness.jpg"},{"uri":"textures/Canyon75_Bodymat_specularf0.jpg"},{"uri":"textures/UCB_BOTTOM_baseColor.jpg"},{"uri":"textures/UCB_BOTTOM_metallicRoughness.jpg"},{"uri":"textures/UCB_BOTTOM_specularf0.jpg"},{"uri":"textures/UCB_Lights_and_Glass_Transperent_baseColor.png"},{"uri":"textures/UCB_Interiors_2_baseColor.jpg"},{"uri":"textures/UCB_Interiors_2_metallicRoughness.jpg"},{"uri":"textures/RB1c_Tire_1k_baseColor.jpg"},{"uri":"textures/RB1c_Tire_1k_metallicRoughness.jpg"},{"uri":"textures/RB1c_Tire_1k_specularf0.jpg"},{"uri":"textures/Numberplates_Misk_U_baseColor.png"},{"uri":"textures/Carbadges_misc_U_baseColor.png"}],"samplers":[{"magFilter":9729,"minFilter":9987,"wrapS":10497,"wrapT":10497}],"buffers":[{"uri":"model.bin","byteLength":828956}],"bufferViews":[{"buffer":0,"byteOffset":0,"byteLength":33660,"target":34962},{"buffer":0,"byteOffset":33660,"byteLength":33660,"target":34962},{"buffer":0,"byteOffset":67320,"byteLength":22440,"target":34962},{"buffer":0,"byteOffset":89760,"byteLength":43152,"target":34963},{"buffer":0,"byteOffset":132912,"byteLength":93792,"target":34962},{"buffer":0,"byteOffset":226704,"byteLength":93792,"target":34962},{"buffer":0,"byteOffset":320496,"byteLength":62528,"target":34962},{"buffer":0,"byteOffset":383024,"byteLength":91344,"target":34963},{"buffer":0,"byteOffset":474368,"byteLength":2172,"target":34962},{"buffer":0,"byteOffset":476540,"byteLength":2172,"target":34962},{"buffer":0,"byteOffset":478712,"byteLength":1448,"target":34962},{"buffer":0,"byteOffset":480160,"byteLength":2376,"target":34963},{"buffer":0,"byteOffset":482536,"byteLength":49416,"target":34962},{"buffer":0,"byteOffset":531952,"byteLength":49416,"target":34962},{"buffer":0,"byteOffset":581368,"byteLength":32944,"target":34962},{"buffer":0,"byteOffset":614312,"byteLength":58188,"target":34963},{"buffer":0,"byteOffset":672500,"byteLength":1680,"target":34962},{"buffer":0,"byteOffset":674180,"byteLength":1680,"target":34962},{"buffer":0,"byteOffset":675860,"byteLength":1120,"target":34962},{"buffer":0,"byteOffset":676980,"byteLength":1920,"target":34963},{"buffer":0,"byteOffset":678900,"byteLength":37584,"target":34962},{"buffer":0,"byteOffset":716484,"byteLength":37584,"target":34962},{"buffer":0,"byteOffset":754068,"byteLength":25056,"target":34962},{"buffer":0,"byteOffset":779124,"byteLength":41376,"target":34963},{"buffer":0,"byteOffset":820500,"byteLength":2304,"target":34962},{"buffer":0,"byteOffset":822804,"byteLength":2304,"target":34962},{"buffer":0,"byteOffset":825108,"byteLength":1536,"target":34962},{"buffer":0,"byteOffset":826644,"byteLength":1920,"target":34963},{"buffer":0,"byteOffset":828564,"byteLength":120,"target":34962},{"buffer":0,"byteOffset":828684,"byteLength":120,"target":34962},{"buffer":0,"byteOffset":828804,"byteLength":80,"target":34962},{"buffer":0,"byteOffset":828884,"byteLength":72,"target":34963}],"accessors":[{"bufferView":0,"componentType":5126,"count":2805,"type":"VEC3","min":[-2.519341468811035,-0.9912649989128113,0.24656948447227478],"max":[2.5615227222442627,0.9931603074073792,1.725273847579956]},{"bufferView":1,"componentType":5126,"count":2805,"type":"VEC3"},{"bufferView":2,"componentType":5126,"count":2805,"type":"VEC2"},{"bufferView":3,"componentType":5125,"count":10788,"type":"SCALAR"},{"bufferView":4,"componentType":5126,"count":7816,"type":"VEC3","min":[-2.6532697677612305,-1.0652506351470947,0.15113048255443573],"max":[2.651108741760254,1.0652506351470947,1.8270450830459595]},{"bufferView":5,"componentType":5126,"count":7816,"type":"VEC3"},{"bufferView":6,"componentType":5126,"count":7816,"type":"VEC2"},{"bufferView":7,"componentType":5125,"count":22836,"type":"SCALAR"},{"bufferView":8,"componentType":5126,"count":181,"type":"VEC3","min":[-1.6730347871780396,-0.8159415125846863,1.1532517671585083],"max":[1.1647534370422363,0.8161104917526245,1.622963309288025]},{"bufferView":9,"componentType":5126,"count":181,"type":"VEC3"},{"bufferView":10,"componentType":5126,"count":181,"type":"VEC2"},{"bufferView":11,"componentType":5125,"count":594,"type":"SCALAR"},{"bufferView":12,"componentType":5126,"count":4118,"type":"VEC3","min":[-1.6730351448059082,-0.8109009265899658,0.36622360348701477],"max":[1.2444684505462646,0.8110691905021667,1.7031372785568237]},{"bufferView":13,"componentType":5126,"count":4118,"type":"VEC3"},{"bufferView":14,"componentType":5126,"count":4118,"type":"VEC2"},{"bufferView":15,"componentType":5125,"count":14547,"type":"SCALAR"},{"bufferView":16,"componentType":5126,"count":140,"type":"VEC3","min":[-2.5347225666046143,-0.8869181871414185,0.8230929374694824],"max":[2.5569779872894287,0.8876262307167053,1.082445740699768]},{"bufferView":17,"componentType":5126,"count":140,"type":"VEC3"},{"bufferView":18,"componentType":5126,"count":140,"type":"VEC2"},{"bufferView":19,"componentType":5125,"count":480,"type":"SCALAR"},{"bufferView":20,"componentType":5126,"count":3132,"type":"VEC3","min":[-1.7734018564224243,-0.9336286187171936,0.0],"max":[2.140584707260132,0.9380286335945129,0.7233489751815796]},{"bufferView":21,"componentType":5126,"count":3132,"type":"VEC3"},{"bufferView":22,"componentType":5126,"count":3132,"type":"VEC2"},{"bufferView":23,"componentType":5125,"count":10344,"type":"SCALAR"},{"bufferView":24,"componentType":5126,"count":192,"type":"VEC3","min":[-2.5086166858673096,-0.14903570711612701,0.37579643726348877],"max":[2.6532697677612305,0.15140150487422943,0.6533001065254211]},{"bufferView":25,"componentType":5126,"count":192,"type":"VEC3"},{"bufferView":26,"componentType":5126,"count":192,"type":"VEC2"},{"bufferView":27,"componentType":5125,"count":480,"type":"SCALAR"},{"bufferView":28,"componentType":5126,"count":10,"type":"VEC3","min":[-2.474363088607788,-0.597071647644043,0.7058924436569214],"max":[-2.4442496299743652,0.12128257006406784,0.746411144733429]},{"bufferView":29,"componentType":5126,"count":10,"type":"VEC3"},{"bufferView":30,"componentType":5126,"count":10,"type":"VEC2"},{"bufferView":31,"componentType":5125,"count":18,"type":"SCALAR"}],"extensionsUsed":["KHR_materials_specular"]}
