{"asset":{"generator":"Khronos glTF Blender I/O v4.1.62","version":"2.0"},"scene":0,"scenes":[{"nodes":[0]}],"nodes":[{"name":"door_centered_small_01","mesh":0,"rotation":[0.7071067811865476,0,0,0.7071067811865476]}],"materials":[{"doubleSided":true,"name":"modular_urban_apartments_facade_objects","normalTexture":{"index":0},"pbrMetallicRoughness":{"baseColorTexture":{"index":1},"metallicRoughnessTexture":{"index":2}}},{"alphaMode":"BLEND","doubleSided":true,"name":"modular_urban_apartments_facade_glass","normalTexture":{"index":3},"pbrMetallicRoughness":{"baseColorTexture":{"index":4},"metallicRoughnessTexture":{"index":5}}},{"doubleSided":true,"name":"modular_urban_apartments_facade_trim_01","normalTexture":{"index":6},"pbrMetallicRoughness":{"baseColorTexture":{"index":7},"metallicFactor":0,"metallicRoughnessTexture":{"index":8}}},{"doubleSided":true,"name":"modular_urban_apartments_facade_trim_02","normalTexture":{"index":9},"pbrMetallicRoughness":{"baseColorTexture":{"index":10},"metallicFactor":0,"metallicRoughnessTexture":{"index":11}}},{"doubleSided":true,"name":"modular_urban_apartments_facade_plaster","normalTexture":{"index":12},"pbrMetallicRoughness":{"baseColorTexture":{"index":13},"metallicFactor":0,"metallicRoughnessTexture":{"index":14}}}],"meshes":[{"name":"Cube.113","primitives":[{"attributes":{"POSITION":8,"NORMAL":9,"TEXCOORD_0":10},"indices":11,"material":0},{"attributes":{"POSITION":5,"NORMAL":6,"TEXCOORD_0":7},"indices":4,"material":1}]}],"textures":[{"sampler":0,"source":0},{"sampler":0,"source":1},{"sampler":0,"source":2},{"sampler":0,"source":0},{"sampler":0,"source":1},{"sampler":0,"source":2},{"sampler":0,"source":3},{"sampler":0,"source":4},{"sampler":0,"source":5},{"sampler":0,"source":6},{"sampler":0,"source":7},{"sampler":0,"source":8},{"sampler":0,"source":9},{"sampler":0,"source":10},{"sampler":0,"source":11}],"images":[{"mimeType":"image/jpeg","name":"modular_urban_apartments_facade_objects_nor_gl","uri":"../textures/modular_urban_apartments_facade_objects_nor_gl_2k.jpg"},{"mimeType":"image/jpeg","name":"modular_urban_apartments_facade_objects_diff-modular_urban_apartments_facade_objects_alpha","uri":"../textures/modular_urban_apartments_facade_objects_diff_2k.jpg"},{"mimeType":"image/jpeg","name":"modular_urban_apartments_facade_objects_metal-modular_urban_apartments_facade_objects_rough","uri":"../textures/modular_urban_apartments_facade_objects_arm_2k.jpg"},{"mimeType":"image/jpeg","name":"modular_urban_apartments_facade_trim_01_nor_gl","uri":"../textures/modular_urban_apartments_facade_trim_01_nor_gl_2k.jpg"},{"mimeType":"image/jpeg","name":"modular_urban_apartments_facade_trim_01_diff","uri":"../textures/modular_urban_apartments_facade_trim_01_diff_2k.jpg"},{"mimeType":"image/jpeg","name":"modular_urban_apartments_facade_trim_01_rough","uri":"../textures/modular_urban_apartments_facade_trim_01_arm_2k.jpg"},{"mimeType":"image/jpeg","name":"modular_urban_apartments_facade_trim_02_nor_gl","uri":"../textures/modular_urban_apartments_facade_trim_02_nor_gl_2k.jpg"},{"mimeType":"image/jpeg","name":"modular_urban_apartments_facade_trim_02_diff","uri":"../textures/modular_urban_apartments_facade_trim_02_diff_2k.jpg"},{"mimeType":"image/jpeg","name":"modular_urban_apartments_facade_trim_02_rough","uri":"../textures/modular_urban_apartments_facade_trim_02_arm_2k.jpg"},{"mimeType":"image/jpeg","name":"modular_urban_apartments_facade_plaster_nor_gl","uri":"../textures/modular_urban_apartments_facade_plaster_nor_gl_2k.jpg"},{"mimeType":"image/jpeg","name":"modular_urban_apartments_facade_plaster_diff","uri":"../textures/modular_urban_apartments_facade_plaster_diff_2k.jpg"},{"mimeType":"image/jpeg","name":"modular_urban_apartments_facade_plaster_rough","uri":"../textures/modular_urban_apartments_facade_plaster_arm_2k.jpg"}],"accessors":[{"bufferView":0,"componentType":5123,"count":4056,"type":"SCALAR"},{"bufferView":1,"componentType":5126,"count":1758,"max":[-0.7599970698356628,2.809999704360962,0.20000004768371582],"min":[-2.2400028705596924,0,-0.24000000953674316],"type":"VEC3"},{"bufferView":2,"componentType":5126,"count":1758,"type":"VEC3"},{"bufferView":3,"componentType":5126,"count":1758,"type":"VEC2"},{"bufferView":4,"componentType":5123,"count":24,"type":"SCALAR"},{"bufferView":5,"componentType":5126,"count":16,"max":[-1.0770719051361084,2.312929630279541,-0.14500021934509277],"min":[-1.9229295253753662,2.1965720653533936,-0.14500021934509277],"type":"VEC3"},{"bufferView":6,"componentType":5126,"count":16,"type":"VEC3"},{"bufferView":7,"componentType":5126,"count":16,"type":"VEC2"},{"bufferView":8,"componentType":5126,"count":1744,"type":"VEC3","min":[-2.2400028705596924,0.0,-0.24000000953674316],"max":[-0.7599970698356628,2.809999704360962,0.20000004768371582]},{"bufferView":9,"componentType":5126,"count":1744,"type":"VEC3"},{"bufferView":10,"componentType":5126,"count":1744,"type":"VEC2"},{"bufferView":11,"componentType":5125,"count":4002,"type":"SCALAR"}],"bufferViews":[{"buffer":0,"byteLength":8112,"byteOffset":121184,"target":34963},{"buffer":0,"byteLength":21096,"byteOffset":64928,"target":34962},{"buffer":0,"byteLength":21096,"byteOffset":86024,"target":34962},{"buffer":0,"byteLength":14064,"byteOffset":107120,"target":34962},{"buffer":0,"byteLength":48,"byteOffset":64880,"target":34963},{"buffer":0,"byteLength":192,"byteOffset":129296,"target":34962},{"buffer":0,"byteLength":192,"byteOffset":129488,"target":34962},{"buffer":0,"byteLength":128,"byteOffset":129680,"target":34962},{"buffer":1,"byteOffset":0,"byteLength":20928,"target":34962},{"buffer":1,"byteOffset":20928,"byteLength":20928,"target":34962},{"buffer":1,"byteOffset":41856,"byteLength":13952,"target":34962},{"buffer":1,"byteOffset":55808,"byteLength":16008,"target":34963}],"samplers":[{"magFilter":9729,"minFilter":9987}],"buffers":[{"uri":"../apartments.bin","byteLength":8168772},{"uri":"door_centered_small_01.bin","byteLength":71816}]}
