{"asset":{"generator":"Khronos glTF Blender I/O v4.1.62","version":"2.0"},"scene":0,"scenes":[{"nodes":[0]}],"nodes":[{"name":"wall_window_centered_large_03","mesh":0,"rotation":[0.7071067811865476,0,0,0.7071067811865476]}],"materials":[{"doubleSided":true,"name":"modular_urban_apartments_facade_objects","normalTexture":{"index":0},"pbrMetallicRoughness":{"baseColorTexture":{"index":1},"metallicRoughnessTexture":{"index":2}}},{"alphaMode":"BLEND","doubleSided":true,"name":"modular_urban_apartments_facade_glass","normalTexture":{"index":3},"pbrMetallicRoughness":{"baseColorTexture":{"index":4},"metallicRoughnessTexture":{"index":5}}},{"doubleSided":true,"name":"modular_urban_apartments_facade_trim_01","normalTexture":{"index":6},"pbrMetallicRoughness":{"baseColorTexture":{"index":7},"metallicFactor":0,"metallicRoughnessTexture":{"index":8}}},{"doubleSided":true,"name":"modular_urban_apartments_facade_trim_02","normalTexture":{"index":9},"pbrMetallicRoughness":{"baseColorTexture":{"index":10},"metallicFactor":0,"metallicRoughnessTexture":{"index":11}}},{"doubleSided":true,"name":"modular_urban_apartments_facade_plaster","normalTexture":{"index":12},"pbrMetallicRoughness":{"baseColorTexture":{"index":13},"metallicFactor":0,"metallicRoughnessTexture":{"index":14}}}],"meshes":[{"name":"Mesh","primitives":[{"attributes":{"POSITION":1,"NORMAL":2,"TEXCOORD_0":3},"indices":0,"material":4}]}],"textures":[{"sampler":0,"source":0},{"sampler":0,"source":1},{"sampler":0,"source":2},{"sampler":0,"source":0},{"sampler":0,"source":1},{"sampler":0,"source":2},{"sampler":0,"source":3},{"sampler":0,"source":4},{"sampler":0,"source":5},{"sampler":0,"source":6},{"sampler":0,"source":7},{"sampler":0,"source":8},{"sampler":0,"source":9},{"sampler":0,"source":10},{"sampler":0,"source":11}],"images":[{"mimeType":"image/jpeg","name":"modular_urban_apartments_facade_objects_nor_gl","uri":"../textures/modular_urban_apartments_facade_objects_nor_gl_2k.jpg"},{"mimeType":"image/jpeg","name":"modular_urban_apartments_facade_objects_diff-modular_urban_apartments_facade_objects_alpha","uri":"../textures/modular_urban_apartments_facade_objects_diff_2k.jpg"},{"mimeType":"image/jpeg","name":"modular_urban_apartments_facade_objects_metal-modular_urban_apartments_facade_objects_rough","uri":"../textures/modular_urban_apartments_facade_objects_arm_2k.jpg"},{"mimeType":"image/jpeg","name":"modular_urban_apartments_facade_trim_01_nor_gl","uri":"../textures/modular_urban_apartments_facade_trim_01_nor_gl_2k.jpg"},{"mimeType":"image/jpeg","name":"modular_urban_apartments_facade_trim_01_diff","uri":"../textures/modular_urban_apartments_facade_trim_01_diff_2k.jpg"},{"mimeType":"image/jpeg","name":"modular_urban_apartments_facade_trim_01_rough","uri":"../textures/modular_urban_apartments_facade_trim_01_arm_2k.jpg"},{"mimeType":"image/jpeg","name":"modular_urban_apartments_facade_trim_02_nor_gl","uri":"../textures/modular_urban_apartments_facade_trim_02_nor_gl_2k.jpg"},{"mimeType":"image/jpeg","name":"modular_urban_apartments_facade_trim_02_diff","uri":"../textures/modular_urban_apartments_facade_trim_02_diff_2k.jpg"},{"mimeType":"image/jpeg","name":"modular_urban_apartments_facade_trim_02_rough","uri":"../textures/modular_urban_apartments_facade_trim_02_arm_2k.jpg"},{"mimeType":"image/jpeg","name":"modular_urban_apartments_facade_plaster_nor_gl","uri":"../textures/modular_urban_apartments_facade_plaster_nor_gl_2k.jpg"},{"mimeType":"image/jpeg","name":"modular_urban_apartments_facade_plaster_diff","uri":"../textures/modular_urban_apartments_facade_plaster_diff_2k.jpg"},{"mimeType":"image/jpeg","name":"modular_urban_apartments_facade_plaster_rough","uri":"../textures/modular_urban_apartments_facade_plaster_arm_2k.jpg"}],"accessors":[{"bufferView":0,"componentType":5123,"count":13824,"type":"SCALAR"},{"bufferView":1,"componentType":5126,"count":2489,"max":[0,3.000000476837158,0],"min":[-3.000000476837158,0,-0.18000012636184692],"type":"VEC3"},{"bufferView":2,"componentType":5126,"count":2489,"type":"VEC3"},{"bufferView":3,"componentType":5126,"count":2489,"type":"VEC2"}],"bufferViews":[{"buffer":0,"byteLength":27648,"byteOffset":3465592,"target":34963},{"buffer":0,"byteLength":29868,"byteOffset":3385944,"target":34962},{"buffer":0,"byteLength":29868,"byteOffset":3415812,"target":34962},{"buffer":0,"byteLength":19912,"byteOffset":3445680,"target":34962}],"samplers":[{"magFilter":9729,"minFilter":9987}],"buffers":[{"uri":"../apartments.bin","byteLength":8168772}]}
