{"asset":{"generator":"Khronos glTF Blender I/O v4.1.62","version":"2.0"},"scene":0,"scenes":[{"nodes":[0]}],"nodes":[{"name":"wall_standard_corner_large_01","mesh":0,"rotation":[0.7071067811865476,0,0,0.7071067811865476]}],"materials":[{"doubleSided":true,"name":"modular_urban_apartments_facade_objects","normalTexture":{"index":0},"pbrMetallicRoughness":{"baseColorTexture":{"index":1},"metallicRoughnessTexture":{"index":2}}},{"alphaMode":"BLEND","doubleSided":true,"name":"modular_urban_apartments_facade_glass","normalTexture":{"index":3},"pbrMetallicRoughness":{"baseColorTexture":{"index":4},"metallicRoughnessTexture":{"index":5}}},{"doubleSided":true,"name":"modular_urban_apartments_facade_trim_01","normalTexture":{"index":6},"pbrMetallicRoughness":{"baseColorTexture":{"index":7},"metallicFactor":0,"metallicRoughnessTexture":{"index":8}}},{"doubleSided":true,"name":"modular_urban_apartments_facade_trim_02","normalTexture":{"index":9},"pbrMetallicRoughness":{"baseColorTexture":{"index":10},"metallicFactor":0,"metallicRoughnessTexture":{"index":11}}},{"doubleSided":true,"name":"modular_urban_apartments_facade_plaster","normalTexture":{"index":12},"pbrMetallicRoughness":{"baseColorTexture":{"index":13},"metallicFactor":0,"metallicRoughnessTexture":{"index":14}}}],"meshes":[{"name":"Mesh","primitives":[{"attributes":{"POSITION":4,"NORMAL":5,"TEXCOORD_0":6},"indices":7,"material":4}]}],"textures":[{"sampler":0,"source":0},{"sampler":0,"source":1},{"sampler":0,"source":2},{"sampler":0,"source":0},{"sampler":0,"source":1},{"sampler":0,"source":2},{"sampler":0,"source":3},{"sampler":0,"source":4},{"sampler":0,"source":5},{"sampler":0,"source":6},{"sampler":0,"source":7},{"sampler":0,"source":8},{"sampler":0,"source":9},{"sampler":0,"source":10},{"sampler":0,"source":11}],"images":[{"mimeType":"image/jpeg","name":"modular_urban_apartments_facade_objects_nor_gl","uri":"../textures/modular_urban_apartments_facade_objects_nor_gl_2k.jpg"},{"mimeType":"image/jpeg","name":"modular_urban_apartments_facade_objects_diff-modular_urban_apartments_facade_objects_alpha","uri":"../textures/modular_urban_apartments_facade_objects_diff_2k.jpg"},{"mimeType":"image/jpeg","name":"modular_urban_apartments_facade_objects_metal-modular_urban_apartments_facade_objects_rough","uri":"../textures/modular_urban_apartments_facade_objects_arm_2k.jpg"},{"mimeType":"image/jpeg","name":"modular_urban_apartments_facade_trim_01_nor_gl","uri":"../textures/modular_urban_apartments_facade_trim_01_nor_gl_2k.jpg"},{"mimeType":"image/jpeg","name":"modular_urban_apartments_facade_trim_01_diff","uri":"../textures/modular_urban_apartments_facade_trim_01_diff_2k.jpg"},{"mimeType":"image/jpeg","name":"modular_urban_apartments_facade_trim_01_rough","uri":"../textures/modular_urban_apartments_facade_trim_01_arm_2k.jpg"},{"mimeType":"image/jpeg","name":"modular_urban_apartments_facade_trim_02_nor_gl","uri":"../textures/modular_urban_apartments_facade_trim_02_nor_gl_2k.jpg"},{"mimeType":"image/jpeg","name":"modular_urban_apartments_facade_trim_02_diff","uri":"../textures/modular_urban_apartments_facade_trim_02_diff_2k.jpg"},{"mimeType":"image/jpeg","name":"modular_urban_apartments_facade_trim_02_rough","uri":"../textures/modular_urban_apartments_facade_trim_02_arm_2k.jpg"},{"mimeType":"image/jpeg","name":"modular_urban_apartments_facade_plaster_nor_gl","uri":"../textures/modular_urban_apartments_facade_plaster_nor_gl_2k.jpg"},{"mimeType":"image/jpeg","name":"modular_urban_apartments_facade_plaster_diff","uri":"../textures/modular_urban_apartments_facade_plaster_diff_2k.jpg"},{"mimeType":"image/jpeg","name":"modular_urban_apartments_facade_plaster_rough","uri":"../textures/modular_urban_apartments_facade_plaster_arm_2k.jpg"}],"accessors":[{"bufferView":0,"componentType":5123,"count":27648,"type":"SCALAR"},{"bufferView":1,"componentType":5126,"count":4802,"max":[-5.7320570307688255e-15,3.000000476837158,1.3113418617649586e-07],"min":[-3.000000476837158,0,-3.000000476837158],"type":"VEC3"},{"bufferView":2,"componentType":5126,"count":4802,"type":"VEC3"},{"bufferView":3,"componentType":5126,"count":4802,"type":"VEC2"},{"bufferView":4,"componentType":5126,"count":8,"type":"VEC3","min":[-3.0,0.0,-3.0],"max":[0.0,3.0,0.0]},{"bufferView":5,"componentType":5126,"count":8,"type":"VEC3"},{"bufferView":6,"componentType":5126,"count":8,"type":"VEC2"},{"bufferView":7,"componentType":5125,"count":12,"type":"SCALAR"}],"bufferViews":[{"buffer":0,"byteLength":55296,"byteOffset":6404280,"target":34963},{"buffer":0,"byteLength":57624,"byteOffset":6250616,"target":34962},{"buffer":0,"byteLength":57624,"byteOffset":6308240,"target":34962},{"buffer":0,"byteLength":38416,"byteOffset":6365864,"target":34962},{"buffer":1,"byteOffset":0,"byteLength":96,"target":34962},{"buffer":1,"byteOffset":96,"byteLength":96,"target":34962},{"buffer":1,"byteOffset":192,"byteLength":64,"target":34962},{"buffer":1,"byteOffset":256,"byteLength":48,"target":34963}],"samplers":[{"magFilter":9729,"minFilter":9987}],"buffers":[{"uri":"../apartments.bin","byteLength":8168772},{"uri":"wall_standard_corner_large_01.bin","byteLength":304}]}
