{"asset":{"generator":"Khronos glTF Blender I/O v4.1.62","version":"2.0"},"scene":0,"scenes":[{"nodes":[0]}],"nodes":[{"name":"wall_window_centered_double_01","mesh":0,"rotation":[0.7071067811865476,0,0,0.7071067811865476]}],"materials":[{"doubleSided":true,"name":"modular_urban_apartments_facade_objects","normalTexture":{"index":0},"pbrMetallicRoughness":{"baseColorTexture":{"index":1},"metallicRoughnessTexture":{"index":2}}},{"alphaMode":"BLEND","doubleSided":true,"name":"modular_urban_apartments_facade_glass","normalTexture":{"index":3},"pbrMetallicRoughness":{"baseColorTexture":{"index":4},"metallicRoughnessTexture":{"index":5}}},{"doubleSided":true,"name":"modular_urban_apartments_facade_trim_01","normalTexture":{"index":6},"pbrMetallicRoughness":{"baseColorTexture":{"index":7},"metallicFactor":0,"metallicRoughnessTexture":{"index":8}}},{"doubleSided":true,"name":"modular_urban_apartments_facade_trim_02","normalTexture":{"index":9},"pbrMetallicRoughness":{"baseColorTexture":{"index":10},"metallicFactor":0,"metallicRoughnessTexture":{"index":11}}},{"doubleSided":true,"name":"modular_urban_apartments_facade_plaster","normalTexture":{"index":12},"pbrMetallicRoughness":{"baseColorTexture":{"index":13},"metallicFactor":0,"metallicRoughnessTexture":{"index":14}}}],"meshes":[{"name":"Mesh","primitives":[{"attributes":{"POSITION":4,"NORMAL":5,"TEXCOORD_0":6},"indices":7,"material":4}]}],"textures":[{"sampler":0,"source":0},{"sampler":0,"source":1},{"sampler":0,"source":2},{"sampler":0,"source":0},{"sampler":0,"source":1},{"sampler":0,"source":2},{"sampler":0,"source":3},{"sampler":0,"source":4},{"sampler":0,"source":5},{"sampler":0,"source":6},{"sampler":0,"source":7},{"sampler":0,"source":8},{"sampler":0,"source":9},{"sampler":0,"source":10},{"sampler":0,"source":11}],"images":[{"mimeType":"image/jpeg","name":"modular_urban_apartments_facade_objects_nor_gl","uri":"../textures/modular_urban_apartments_facade_objects_nor_gl_2k.jpg"},{"mimeType":"image/jpeg","name":"modular_urban_apartments_facade_objects_diff-modular_urban_apartments_facade_objects_alpha","uri":"../textures/modular_urban_apartments_facade_objects_diff_2k.jpg"},{"mimeType":"image/jpeg","name":"modular_urban_apartments_facade_objects_metal-modular_urban_apartments_facade_objects_rough","uri":"../textures/modular_urban_apartments_facade_objects_arm_2k.jpg"},{"mimeType":"image/jpeg","name":"modular_urban_apartments_facade_trim_01_nor_gl","uri":"../textures/modular_urban_apartments_facade_trim_01_nor_gl_2k.jpg"},{"mimeType":"image/jpeg","name":"modular_urban_apartments_facade_trim_01_diff","uri":"../textures/modular_urban_apartments_facade_trim_01_diff_2k.jpg"},{"mimeType":"image/jpeg","name":"modular_urban_apartments_facade_trim_01_rough","uri":"../textures/modular_urban_apartments_facade_trim_01_arm_2k.jpg"},{"mimeType":"image/jpeg","name":"modular_urban_apartments_facade_trim_02_nor_gl","uri":"../textures/modular_urban_apartments_facade_trim_02_nor_gl_2k.jpg"},{"mimeType":"image/jpeg","name":"modular_urban_apartments_facade_trim_02_diff","uri":"../textures/modular_urban_apartments_facade_trim_02_diff_2k.jpg"},{"mimeType":"image/jpeg","name":"modular_urban_apartments_facade_trim_02_rough","uri":"../textures/modular_urban_apartments_facade_trim_02_arm_2k.jpg"},{"mimeType":"image/jpeg","name":"modular_urban_apartments_facade_plaster_nor_gl","uri":"../textures/modular_urban_apartments_facade_plaster_nor_gl_2k.jpg"},{"mimeType":"image/jpeg","name":"modular_urban_apartments_facade_plaster_diff","uri":"../textures/modular_urban_apartments_facade_plaster_diff_2k.jpg"},{"mimeType":"image/jpeg","name":"modular_urban_apartments_facade_plaster_rough","uri":"../textures/modular_urban_apartments_facade_plaster_arm_2k.jpg"}],"accessors":[{"bufferView":0,"componentType":5123,"count":8832,"type":"SCALAR"},{"bufferView":1,"componentType":5126,"count":1676,"max":[0,3.000000476837158,0],"min":[-3.000000476837158,0,0],"type":"VEC3"},{"bufferView":2,"componentType":5126,"count":1676,"type":"VEC3"},{"bufferView":3,"componentType":5126,"count":1676,"type":"VEC2"},{"bufferView":4,"componentType":5126,"count":28,"type":"VEC3","min":[-3.0,0.0,0.0],"max":[0.0,3.0,0.0]},{"bufferView":5,"componentType":5126,"count":28,"type":"VEC3"},{"bufferView":6,"componentType":5126,"count":28,"type":"VEC2"},{"bufferView":7,"componentType":5125,"count":42,"type":"SCALAR"}],"bufferViews":[{"buffer":0,"byteLength":17664,"byteOffset":3748952,"target":34963},{"buffer":0,"byteLength":20112,"byteOffset":3695320,"target":34962},{"buffer":0,"byteLength":20112,"byteOffset":3715432,"target":34962},{"buffer":0,"byteLength":13408,"byteOffset":3735544,"target":34962},{"buffer":1,"byteOffset":0,"byteLength":336,"target":34962},{"buffer":1,"byteOffset":336,"byteLength":336,"target":34962},{"buffer":1,"byteOffset":672,"byteLength":224,"target":34962},{"buffer":1,"byteOffset":896,"byteLength":168,"target":34963}],"samplers":[{"magFilter":9729,"minFilter":9987}],"buffers":[{"uri":"../apartments.bin","byteLength":8168772},{"uri":"wall_window_centered_double_01.bin","byteLength":1064}]}
