{"asset":{"generator":"Khronos glTF Blender I/O v4.1.62","version":"2.0"},"scene":0,"scenes":[{"nodes":[0]}],"nodes":[{"name":"window_centered_double_03","mesh":0,"rotation":[0.7071067811865476,0,0,0.7071067811865476]}],"materials":[{"doubleSided":true,"name":"modular_urban_apartments_facade_objects","normalTexture":{"index":0},"pbrMetallicRoughness":{"baseColorTexture":{"index":1},"metallicRoughnessTexture":{"index":2}}},{"alphaMode":"BLEND","doubleSided":true,"name":"modular_urban_apartments_facade_glass","normalTexture":{"index":3},"pbrMetallicRoughness":{"baseColorTexture":{"index":4},"metallicRoughnessTexture":{"index":5}}},{"doubleSided":true,"name":"modular_urban_apartments_facade_trim_01","normalTexture":{"index":6},"pbrMetallicRoughness":{"baseColorTexture":{"index":7},"metallicFactor":0,"metallicRoughnessTexture":{"index":8}}},{"doubleSided":true,"name":"modular_urban_apartments_facade_trim_02","normalTexture":{"index":9},"pbrMetallicRoughness":{"baseColorTexture":{"index":10},"metallicFactor":0,"metallicRoughnessTexture":{"index":11}}},{"doubleSided":true,"name":"modular_urban_apartments_facade_plaster","normalTexture":{"index":12},"pbrMetallicRoughness":{"baseColorTexture":{"index":13},"metallicFactor":0,"metallicRoughnessTexture":{"index":14}}}],"meshes":[{"name":"Cube.054","primitives":[{"attributes":{"POSITION":1,"NORMAL":2,"TEXCOORD_0":3},"indices":0,"material":2},{"attributes":{"POSITION":5,"NORMAL":6,"TEXCOORD_0":7},"indices":4,"material":0},{"attributes":{"POSITION":9,"NORMAL":10,"TEXCOORD_0":11},"indices":8,"material":1}]}],"textures":[{"sampler":0,"source":0},{"sampler":0,"source":1},{"sampler":0,"source":2},{"sampler":0,"source":0},{"sampler":0,"source":1},{"sampler":0,"source":2},{"sampler":0,"source":3},{"sampler":0,"source":4},{"sampler":0,"source":5},{"sampler":0,"source":6},{"sampler":0,"source":7},{"sampler":0,"source":8},{"sampler":0,"source":9},{"sampler":0,"source":10},{"sampler":0,"source":11}],"images":[{"mimeType":"image/jpeg","name":"modular_urban_apartments_facade_objects_nor_gl","uri":"../textures/modular_urban_apartments_facade_objects_nor_gl_2k.jpg"},{"mimeType":"image/jpeg","name":"modular_urban_apartments_facade_objects_diff-modular_urban_apartments_facade_objects_alpha","uri":"../textures/modular_urban_apartments_facade_objects_diff_2k.jpg"},{"mimeType":"image/jpeg","name":"modular_urban_apartments_facade_objects_metal-modular_urban_apartments_facade_objects_rough","uri":"../textures/modular_urban_apartments_facade_objects_arm_2k.jpg"},{"mimeType":"image/jpeg","name":"modular_urban_apartments_facade_trim_01_nor_gl","uri":"../textures/modular_urban_apartments_facade_trim_01_nor_gl_2k.jpg"},{"mimeType":"image/jpeg","name":"modular_urban_apartments_facade_trim_01_diff","uri":"../textures/modular_urban_apartments_facade_trim_01_diff_2k.jpg"},{"mimeType":"image/jpeg","name":"modular_urban_apartments_facade_trim_01_rough","uri":"../textures/modular_urban_apartments_facade_trim_01_arm_2k.jpg"},{"mimeType":"image/jpeg","name":"modular_urban_apartments_facade_trim_02_nor_gl","uri":"../textures/modular_urban_apartments_facade_trim_02_nor_gl_2k.jpg"},{"mimeType":"image/jpeg","name":"modular_urban_apartments_facade_trim_02_diff","uri":"../textures/modular_urban_apartments_facade_trim_02_diff_2k.jpg"},{"mimeType":"image/jpeg","name":"modular_urban_apartments_facade_trim_02_rough","uri":"../textures/modular_urban_apartments_facade_trim_02_arm_2k.jpg"},{"mimeType":"image/jpeg","name":"modular_urban_apartments_facade_plaster_nor_gl","uri":"../textures/modular_urban_apartments_facade_plaster_nor_gl_2k.jpg"},{"mimeType":"image/jpeg","name":"modular_urban_apartments_facade_plaster_diff","uri":"../textures/modular_urban_apartments_facade_plaster_diff_2k.jpg"},{"mimeType":"image/jpeg","name":"modular_urban_apartments_facade_plaster_rough","uri":"../textures/modular_urban_apartments_facade_plaster_arm_2k.jpg"}],"accessors":[{"bufferView":0,"componentType":5123,"count":480,"type":"SCALAR"},{"bufferView":1,"componentType":5126,"count":288,"max":[-0.33000004291534424,2.1376383304595947,0.040474262088537216],"min":[-2.6700000762939453,0.453000009059906,-0.15952573716640472],"type":"VEC3"},{"bufferView":2,"componentType":5126,"count":288,"type":"VEC3"},{"bufferView":3,"componentType":5126,"count":288,"type":"VEC2"},{"bufferView":4,"componentType":5123,"count":1866,"type":"SCALAR"},{"bufferView":5,"componentType":5126,"count":1138,"max":[-0.36000001430511475,2.0979514122009277,-0.10000018775463104],"min":[-2.6399998664855957,0.4972824454307556,-0.21440011262893677],"type":"VEC3"},{"bufferView":6,"componentType":5126,"count":1138,"type":"VEC3"},{"bufferView":7,"componentType":5126,"count":1138,"type":"VEC2"},{"bufferView":8,"componentType":5123,"count":84,"type":"SCALAR"},{"bufferView":9,"componentType":5126,"count":56,"max":[-0.42999982833862305,2.0274810791015625,-0.13440018892288208],"min":[-2.570000171661377,0.5677520632743835,-0.18440011143684387],"type":"VEC3"},{"bufferView":10,"componentType":5126,"count":56,"type":"VEC3"},{"bufferView":11,"componentType":5126,"count":56,"type":"VEC2"}],"bufferViews":[{"buffer":0,"byteLength":960,"byteOffset":7813860,"target":34963},{"buffer":0,"byteLength":3456,"byteOffset":7804644,"target":34962},{"buffer":0,"byteLength":3456,"byteOffset":7808100,"target":34962},{"buffer":0,"byteLength":2304,"byteOffset":7811556,"target":34962},{"buffer":0,"byteLength":3732,"byteOffset":7851236,"target":34963},{"buffer":0,"byteLength":13656,"byteOffset":7814820,"target":34962},{"buffer":0,"byteLength":13656,"byteOffset":7828476,"target":34962},{"buffer":0,"byteLength":9104,"byteOffset":7842132,"target":34962},{"buffer":0,"byteLength":168,"byteOffset":7277352,"target":34963},{"buffer":0,"byteLength":672,"byteOffset":7854968,"target":34962},{"buffer":0,"byteLength":672,"byteOffset":7855640,"target":34962},{"buffer":0,"byteLength":448,"byteOffset":7856312,"target":34962}],"samplers":[{"magFilter":9729,"minFilter":9987}],"buffers":[{"uri":"../apartments.bin","byteLength":8168772}]}
