{"asset":{"generator":"Khronos glTF Blender I/O v4.1.62","version":"2.0"},"scene":0,"scenes":[{"nodes":[0]}],"nodes":[{"name":"window_centered_small_03","mesh":0,"rotation":[0.7071067811865476,0,0,0.7071067811865476]}],"materials":[{"doubleSided":true,"name":"modular_urban_apartments_facade_objects","normalTexture":{"index":0},"pbrMetallicRoughness":{"baseColorTexture":{"index":1},"metallicRoughnessTexture":{"index":2}}},{"alphaMode":"BLEND","doubleSided":true,"name":"modular_urban_apartments_facade_glass","normalTexture":{"index":3},"pbrMetallicRoughness":{"baseColorTexture":{"index":4},"metallicRoughnessTexture":{"index":5}}},{"doubleSided":true,"name":"modular_urban_apartments_facade_trim_01","normalTexture":{"index":6},"pbrMetallicRoughness":{"baseColorTexture":{"index":7},"metallicFactor":0,"metallicRoughnessTexture":{"index":8}}},{"doubleSided":true,"name":"modular_urban_apartments_facade_trim_02","normalTexture":{"index":9},"pbrMetallicRoughness":{"baseColorTexture":{"index":10},"metallicFactor":0,"metallicRoughnessTexture":{"index":11}}},{"doubleSided":true,"name":"modular_urban_apartments_facade_plaster","normalTexture":{"index":12},"pbrMetallicRoughness":{"baseColorTexture":{"index":13},"metallicFactor":0,"metallicRoughnessTexture":{"index":14}}}],"meshes":[{"name":"Cube.115","primitives":[{"attributes":{"POSITION":1,"NORMAL":2,"TEXCOORD_0":3},"indices":0,"material":2},{"attributes":{"POSITION":5,"NORMAL":6,"TEXCOORD_0":7},"indices":4,"material":0},{"attributes":{"POSITION":9,"NORMAL":10,"TEXCOORD_0":11},"indices":8,"material":1}]}],"textures":[{"sampler":0,"source":0},{"sampler":0,"source":1},{"sampler":0,"source":2},{"sampler":0,"source":0},{"sampler":0,"source":1},{"sampler":0,"source":2},{"sampler":0,"source":3},{"sampler":0,"source":4},{"sampler":0,"source":5},{"sampler":0,"source":6},{"sampler":0,"source":7},{"sampler":0,"source":8},{"sampler":0,"source":9},{"sampler":0,"source":10},{"sampler":0,"source":11}],"images":[{"mimeType":"image/jpeg","name":"modular_urban_apartments_facade_objects_nor_gl","uri":"../textures/modular_urban_apartments_facade_objects_nor_gl_2k.jpg"},{"mimeType":"image/jpeg","name":"modular_urban_apartments_facade_objects_diff-modular_urban_apartments_facade_objects_alpha","uri":"../textures/modular_urban_apartments_facade_objects_diff_2k.jpg"},{"mimeType":"image/jpeg","name":"modular_urban_apartments_facade_objects_metal-modular_urban_apartments_facade_objects_rough","uri":"../textures/modular_urban_apartments_facade_objects_arm_2k.jpg"},{"mimeType":"image/jpeg","name":"modular_urban_apartments_facade_trim_01_nor_gl","uri":"../textures/modular_urban_apartments_facade_trim_01_nor_gl_2k.jpg"},{"mimeType":"image/jpeg","name":"modular_urban_apartments_facade_trim_01_diff","uri":"../textures/modular_urban_apartments_facade_trim_01_diff_2k.jpg"},{"mimeType":"image/jpeg","name":"modular_urban_apartments_facade_trim_01_rough","uri":"../textures/modular_urban_apartments_facade_trim_01_arm_2k.jpg"},{"mimeType":"image/jpeg","name":"modular_urban_apartments_facade_trim_02_nor_gl","uri":"../textures/modular_urban_apartments_facade_trim_02_nor_gl_2k.jpg"},{"mimeType":"image/jpeg","name":"modular_urban_apartments_facade_trim_02_diff","uri":"../textures/modular_urban_apartments_facade_trim_02_diff_2k.jpg"},{"mimeType":"image/jpeg","name":"modular_urban_apartments_facade_trim_02_rough","uri":"../textures/modular_urban_apartments_facade_trim_02_arm_2k.jpg"},{"mimeType":"image/jpeg","name":"modular_urban_apartments_facade_plaster_nor_gl","uri":"../textures/modular_urban_apartments_facade_plaster_nor_gl_2k.jpg"},{"mimeType":"image/jpeg","name":"modular_urban_apartments_facade_plaster_diff","uri":"../textures/modular_urban_apartments_facade_plaster_diff_2k.jpg"},{"mimeType":"image/jpeg","name":"modular_urban_apartments_facade_plaster_rough","uri":"../textures/modular_urban_apartments_facade_plaster_arm_2k.jpg"}],"accessors":[{"bufferView":0,"componentType":5123,"count":240,"type":"SCALAR"},{"bufferView":1,"componentType":5126,"count":144,"max":[-1.0799999237060547,2.1376383304595947,0.040474262088537216],"min":[-1.9200000762939453,0.453000009059906,-0.15952573716640472],"type":"VEC3"},{"bufferView":2,"componentType":5126,"count":144,"type":"VEC3"},{"bufferView":3,"componentType":5126,"count":144,"type":"VEC2"},{"bufferView":4,"componentType":5123,"count":933,"type":"SCALAR"},{"bufferView":5,"componentType":5126,"count":569,"max":[-1.1100000143051147,2.0979514122009277,-0.10000018775463104],"min":[-1.8899999856948853,0.4972824454307556,-0.21440011262893677],"type":"VEC3"},{"bufferView":6,"componentType":5126,"count":569,"type":"VEC3"},{"bufferView":7,"componentType":5126,"count":569,"type":"VEC2"},{"bufferView":8,"componentType":5123,"count":42,"type":"SCALAR"},{"bufferView":9,"componentType":5126,"count":28,"max":[-1.179999828338623,2.0274810791015625,-0.13440018892288208],"min":[-1.820000171661377,0.5677520632743835,-0.18440011143684387],"type":"VEC3"},{"bufferView":10,"componentType":5126,"count":28,"type":"VEC3"},{"bufferView":11,"componentType":5126,"count":28,"type":"VEC2"}],"bufferViews":[{"buffer":0,"byteLength":480,"byteOffset":630324,"target":34963},{"buffer":0,"byteLength":1728,"byteOffset":8145060,"target":34962},{"buffer":0,"byteLength":1728,"byteOffset":8146788,"target":34962},{"buffer":0,"byteLength":1152,"byteOffset":8148516,"target":34962},{"buffer":0,"byteLength":1866,"byteOffset":7965752,"target":34963},{"buffer":0,"byteLength":6828,"byteOffset":8149668,"target":34962},{"buffer":0,"byteLength":6828,"byteOffset":8156496,"target":34962},{"buffer":0,"byteLength":4552,"byteOffset":8163324,"target":34962},{"buffer":0,"byteLength":84,"byteOffset":489428,"target":34963},{"buffer":0,"byteLength":336,"byteOffset":8167876,"target":34962},{"buffer":0,"byteLength":336,"byteOffset":8168212,"target":34962},{"buffer":0,"byteLength":224,"byteOffset":8168548,"target":34962}],"samplers":[{"magFilter":9729,"minFilter":9987}],"buffers":[{"uri":"../apartments.bin","byteLength":8168772}]}
