{"asset":{"generator":"Khronos glTF Blender I/O v4.1.62","version":"2.0"},"scene":0,"scenes":[{"nodes":[0]}],"nodes":[{"name":"window_centered_double_02","mesh":0,"rotation":[0.7071067811865476,0,0,0.7071067811865476]}],"materials":[{"doubleSided":true,"name":"modular_urban_apartments_facade_objects","normalTexture":{"index":0},"pbrMetallicRoughness":{"baseColorTexture":{"index":1},"metallicRoughnessTexture":{"index":2}}},{"alphaMode":"BLEND","doubleSided":true,"name":"modular_urban_apartments_facade_glass","normalTexture":{"index":3},"pbrMetallicRoughness":{"baseColorTexture":{"index":4},"metallicRoughnessTexture":{"index":5}}},{"doubleSided":true,"name":"modular_urban_apartments_facade_trim_01","normalTexture":{"index":6},"pbrMetallicRoughness":{"baseColorTexture":{"index":7},"metallicFactor":0,"metallicRoughnessTexture":{"index":8}}},{"doubleSided":true,"name":"modular_urban_apartments_facade_trim_02","normalTexture":{"index":9},"pbrMetallicRoughness":{"baseColorTexture":{"index":10},"metallicFactor":0,"metallicRoughnessTexture":{"index":11}}},{"doubleSided":true,"name":"modular_urban_apartments_facade_plaster","normalTexture":{"index":12},"pbrMetallicRoughness":{"baseColorTexture":{"index":13},"metallicFactor":0,"metallicRoughnessTexture":{"index":14}}}],"meshes":[{"name":"Cube.049","primitives":[{"attributes":{"POSITION":1,"NORMAL":2,"TEXCOORD_0":3},"indices":0,"material":0},{"attributes":{"POSITION":5,"NORMAL":6,"TEXCOORD_0":7},"indices":4,"material":1}]}],"textures":[{"sampler":0,"source":0},{"sampler":0,"source":1},{"sampler":0,"source":2},{"sampler":0,"source":0},{"sampler":0,"source":1},{"sampler":0,"source":2},{"sampler":0,"source":3},{"sampler":0,"source":4},{"sampler":0,"source":5},{"sampler":0,"source":6},{"sampler":0,"source":7},{"sampler":0,"source":8},{"sampler":0,"source":9},{"sampler":0,"source":10},{"sampler":0,"source":11}],"images":[{"mimeType":"image/jpeg","name":"modular_urban_apartments_facade_objects_nor_gl","uri":"../textures/modular_urban_apartments_facade_objects_nor_gl_2k.jpg"},{"mimeType":"image/jpeg","name":"modular_urban_apartments_facade_objects_diff-modular_urban_apartments_facade_objects_alpha","uri":"../textures/modular_urban_apartments_facade_objects_diff_2k.jpg"},{"mimeType":"image/jpeg","name":"modular_urban_apartments_facade_objects_metal-modular_urban_apartments_facade_objects_rough","uri":"../textures/modular_urban_apartments_facade_objects_arm_2k.jpg"},{"mimeType":"image/jpeg","name":"modular_urban_apartments_facade_trim_01_nor_gl","uri":"../textures/modular_urban_apartments_facade_trim_01_nor_gl_2k.jpg"},{"mimeType":"image/jpeg","name":"modular_urban_apartments_facade_trim_01_diff","uri":"../textures/modular_urban_apartments_facade_trim_01_diff_2k.jpg"},{"mimeType":"image/jpeg","name":"modular_urban_apartments_facade_trim_01_rough","uri":"../textures/modular_urban_apartments_facade_trim_01_arm_2k.jpg"},{"mimeType":"image/jpeg","name":"modular_urban_apartments_facade_trim_02_nor_gl","uri":"../textures/modular_urban_apartments_facade_trim_02_nor_gl_2k.jpg"},{"mimeType":"image/jpeg","name":"modular_urban_apartments_facade_trim_02_diff","uri":"../textures/modular_urban_apartments_facade_trim_02_diff_2k.jpg"},{"mimeType":"image/jpeg","name":"modular_urban_apartments_facade_trim_02_rough","uri":"../textures/modular_urban_apartments_facade_trim_02_arm_2k.jpg"},{"mimeType":"image/jpeg","name":"modular_urban_apartments_facade_plaster_nor_gl","uri":"../textures/modular_urban_apartments_facade_plaster_nor_gl_2k.jpg"},{"mimeType":"image/jpeg","name":"modular_urban_apartments_facade_plaster_diff","uri":"../textures/modular_urban_apartments_facade_plaster_diff_2k.jpg"},{"mimeType":"image/jpeg","name":"modular_urban_apartments_facade_plaster_rough","uri":"../textures/modular_urban_apartments_facade_plaster_arm_2k.jpg"}],"accessors":[{"bufferView":0,"componentType":5123,"count":4758,"type":"SCALAR"},{"bufferView":1,"componentType":5126,"count":2240,"max":[-0.18999040126800537,2.299999475479126,0.1500074714422226],"min":[-2.810009479522705,0.29999980330467224,-0.24000000953674316],"type":"VEC3"},{"bufferView":2,"componentType":5126,"count":2240,"type":"VEC3"},{"bufferView":3,"componentType":5126,"count":2240,"type":"VEC2"},{"bufferView":4,"componentType":5123,"count":84,"type":"SCALAR"},{"bufferView":5,"componentType":5126,"count":56,"max":[-0.42999982833862305,2.0274810791015625,-0.08440019190311432],"min":[-2.570000171661377,0.5677520632743835,-0.1344001144170761],"type":"VEC3"},{"bufferView":6,"componentType":5126,"count":56,"type":"VEC3"},{"bufferView":7,"componentType":5126,"count":56,"type":"VEC2"}],"bufferViews":[{"buffer":0,"byteLength":9516,"byteOffset":7703980,"target":34963},{"buffer":0,"byteLength":26880,"byteOffset":7632300,"target":34962},{"buffer":0,"byteLength":26880,"byteOffset":7659180,"target":34962},{"buffer":0,"byteLength":17920,"byteOffset":7686060,"target":34962},{"buffer":0,"byteLength":168,"byteOffset":7277352,"target":34963},{"buffer":0,"byteLength":672,"byteOffset":7713496,"target":34962},{"buffer":0,"byteLength":672,"byteOffset":7714168,"target":34962},{"buffer":0,"byteLength":448,"byteOffset":7714840,"target":34962}],"samplers":[{"magFilter":9729,"minFilter":9987}],"buffers":[{"uri":"../apartments.bin","byteLength":8168772}]}
