{"asset":{"version":"2.0","generator":"prepare_warehouse_assets.py"},"scene":0,"scenes":[{"nodes":[0]}],"nodes":[{"name":"290x290x400_1","mesh":0}],"meshes":[{"name":"290x290x400_1","primitives":[{"attributes":{"POSITION":0,"NORMAL":1,"TEXCOORD_0":2},"indices":3,"material":0}]}],"buffers":[{"uri":"290x290x400_1.bin","byteLength":3920}],"bufferViews":[{"buffer":0,"byteOffset":0,"byteLength":984,"target":34962},{"buffer":0,"byteOffset":984,"byteLength":984,"target":34962},{"buffer":0,"byteOffset":1968,"byteLength":656,"target":34962},{"buffer":0,"byteOffset":2624,"byteLength":1296,"target":34963}],"accessors":[{"bufferView":0,"componentType":5126,"count":82,"type":"VEC3","min":[-0.19999998807907104,-0.14500001072883606,0.0],"max":[0.19999998807907104,0.14500001072883606,0.28999999165534973]},{"bufferView":1,"componentType":5126,"count":82,"type":"VEC3"},{"bufferView":2,"componentType":5126,"count":82,"type":"VEC2"},{"bufferView":3,"componentType":5125,"count":324,"type":"SCALAR"}],"materials":[{"doubleSided":true,"name":"Cardboard_Box_Mat","normalTexture":{"index":2},"pbrMetallicRoughness":{"baseColorTexture":{"index":0},"metallicRoughnessTexture":{"index":1}}}],"textures":[{"sampler":0,"source":0},{"sampler":0,"source":1},{"sampler":0,"source":2}],"samplers":[{"magFilter":9729,"minFilter":9987,"wrapS":10497,"wrapT":10497}],"images":[{"uri":"textures/Cardboard_Box_Mat_baseColor.jpg"},{"uri":"textures/Cardboard_Box_Mat_metallicRoughness.jpg"},{"uri":"textures/Cardboard_Box_Mat_normal.jpg"}]}
