{"asset":{"version":"2.0","generator":"prepare_warehouse_assets.py"},"scene":0,"scenes":[{"nodes":[0]}],"nodes":[{"name":"pallet_slatted","mesh":0}],"meshes":[{"name":"pallet_slatted","primitives":[{"attributes":{"POSITION":0,"NORMAL":1,"TEXCOORD_0":2},"indices":3,"material":1}]}],"buffers":[{"uri":"pallet_slatted.bin","byteLength":11856}],"bufferViews":[{"buffer":0,"byteOffset":0,"byteLength":3744,"target":34962},{"buffer":0,"byteOffset":3744,"byteLength":3744,"target":34962},{"buffer":0,"byteOffset":7488,"byteLength":2496,"target":34962},{"buffer":0,"byteOffset":9984,"byteLength":1872,"target":34963}],"accessors":[{"bufferView":0,"componentType":5126,"count":312,"type":"VEC3","min":[-0.6000000238418579,-0.5,0.0],"max":[0.6000000238418579,0.5,0.14399999380111694]},{"bufferView":1,"componentType":5126,"count":312,"type":"VEC3"},{"bufferView":2,"componentType":5126,"count":312,"type":"VEC2"},{"bufferView":3,"componentType":5125,"count":468,"type":"SCALAR"}],"materials":[{"doubleSided":true,"name":"Pallet_1","normalTexture":{"index":1},"occlusionTexture":{"index":2},"pbrMetallicRoughness":{"baseColorTexture":{"index":0},"metallicFactor":0.0,"roughnessFactor":0.86}},{"doubleSided":true,"name":"Pallet_2","normalTexture":{"index":4},"occlusionTexture":{"index":5},"pbrMetallicRoughness":{"baseColorTexture":{"index":3},"metallicFactor":0.0,"roughnessFactor":0.86}}],"textures":[{"sampler":0,"source":0},{"sampler":0,"source":1},{"sampler":0,"source":2},{"sampler":0,"source":3},{"sampler":0,"source":4},{"sampler":0,"source":5}],"samplers":[{"magFilter":9729,"minFilter":9987,"wrapS":10497,"wrapT":10497}],"images":[{"uri":"textures/Pallet_1_diffuse.jpg"},{"uri":"textures/Pallet_1_normal.jpg"},{"uri":"textures/Pallet_1_occlusion.jpg"},{"uri":"textures/Pallet_2_diffuse.jpg"},{"uri":"textures/Pallet_2_normal.jpg"},{"uri":"textures/Pallet_2_occlusion.jpg"}]}
