{"asset":{"version":"2.0","generator":"prepare_warehouse_assets.py"},"scene":0,"scenes":[{"nodes":[0]}],"nodes":[{"name":"model","mesh":0}],"meshes":[{"name":"model","primitives":[{"attributes":{"POSITION":0,"NORMAL":1,"TEXCOORD_0":2},"indices":3,"material":0}]}],"buffers":[{"uri":"model.bin","byteLength":615024}],"bufferViews":[{"buffer":0,"byteOffset":0,"byteLength":171144,"target":34962},{"buffer":0,"byteOffset":171144,"byteLength":171144,"target":34962},{"buffer":0,"byteOffset":342288,"byteLength":114096,"target":34962},{"buffer":0,"byteOffset":456384,"byteLength":158640,"target":34963}],"accessors":[{"bufferView":0,"componentType":5126,"count":14262,"type":"VEC3","min":[-0.2966264486312866,-0.3462635576725006,0.0],"max":[0.2966264486312866,0.3462635576725006,1.402512788772583]},{"bufferView":1,"componentType":5126,"count":14262,"type":"VEC3"},{"bufferView":2,"componentType":5126,"count":14262,"type":"VEC2"},{"bufferView":3,"componentType":5125,"count":39660,"type":"SCALAR"}],"materials":[{"doubleSided":true,"name":"hand_truck","normalTexture":{"index":0},"pbrMetallicRoughness":{"baseColorTexture":{"index":1},"metallicRoughnessTexture":{"index":2}}}],"textures":[{"sampler":0,"source":0},{"sampler":0,"source":1},{"sampler":0,"source":2}],"samplers":[{"magFilter":9729,"minFilter":9987}],"images":[{"mimeType":"image/jpeg","name":"hand_truck_nor_gl","uri":"textures/hand_truck_nor_gl_1k.jpg"},{"mimeType":"image/jpeg","name":"hand_truck_diff","uri":"textures/hand_truck_diff_1k.jpg"},{"mimeType":"image/jpeg","name":"hand_truck_metal-hand_truck_rough","uri":"textures/hand_truck_arm_1k.jpg"}]}
