{"asset":{"version":"2.0","generator":"prepare_warehouse_assets.py"},"scene":0,"scenes":[{"nodes":[0]}],"nodes":[{"name":"model","mesh":0}],"meshes":[{"name":"model","primitives":[{"attributes":{"POSITION":0,"NORMAL":1,"TEXCOORD_0":2},"indices":3,"material":0}]}],"buffers":[{"uri":"model.bin","byteLength":277016}],"bufferViews":[{"buffer":0,"byteOffset":0,"byteLength":72840,"target":34962},{"buffer":0,"byteOffset":72840,"byteLength":72840,"target":34962},{"buffer":0,"byteOffset":145680,"byteLength":48560,"target":34962},{"buffer":0,"byteOffset":194240,"byteLength":82776,"target":34963}],"accessors":[{"bufferView":0,"componentType":5126,"count":6070,"type":"VEC3","min":[-1.000000238418579,-0.47360676527023315,0.0],"max":[1.000000238418579,0.47360676527023315,0.7875000238418579]},{"bufferView":1,"componentType":5126,"count":6070,"type":"VEC3"},{"bufferView":2,"componentType":5126,"count":6070,"type":"VEC2"},{"bufferView":3,"componentType":5125,"count":20694,"type":"SCALAR"}],"materials":[{"doubleSided":true,"name":"metal_office_desk","normalTexture":{"index":0},"pbrMetallicRoughness":{"baseColorTexture":{"index":1},"metallicRoughnessTexture":{"index":2}}}],"textures":[{"sampler":0,"source":0},{"sampler":0,"source":1},{"sampler":0,"source":2}],"samplers":[{"magFilter":9729,"minFilter":9987}],"images":[{"mimeType":"image/jpeg","name":"metal_office_desk_nor_gl","uri":"textures/metal_office_desk_nor_gl_1k.jpg"},{"mimeType":"image/jpeg","name":"metal_office_desk_diff","uri":"textures/metal_office_desk_diff_1k.jpg"},{"mimeType":"image/jpeg","name":"metal_office_desk_metal-metal_office_desk_rough","uri":"textures/metal_office_desk_arm_1k.jpg"}]}
