{"asset":{"version":"2.0","generator":"prepare_warehouse_assets.py"},"scene":0,"scenes":[{"nodes":[0]}],"nodes":[{"name":"model","mesh":0}],"meshes":[{"name":"model","primitives":[{"attributes":{"POSITION":0,"NORMAL":1,"TEXCOORD_0":2},"indices":3,"material":0}]}],"buffers":[{"uri":"model.bin","byteLength":53708}],"bufferViews":[{"buffer":0,"byteOffset":0,"byteLength":13512,"target":34962},{"buffer":0,"byteOffset":13512,"byteLength":13512,"target":34962},{"buffer":0,"byteOffset":27024,"byteLength":9008,"target":34962},{"buffer":0,"byteOffset":36032,"byteLength":17676,"target":34963}],"accessors":[{"bufferView":0,"componentType":5126,"count":1126,"type":"VEC3","min":[-0.3169717490673065,-0.31929975748062134,0.0],"max":[0.3169717490673065,0.31929975748062134,0.9304736256599426]},{"bufferView":1,"componentType":5126,"count":1126,"type":"VEC3"},{"bufferView":2,"componentType":5126,"count":1126,"type":"VEC2"},{"bufferView":3,"componentType":5125,"count":4419,"type":"SCALAR"}],"materials":[{"doubleSided":true,"name":"barrel_03","normalTexture":{"index":0},"pbrMetallicRoughness":{"baseColorTexture":{"index":1},"metallicRoughnessTexture":{"index":2}}}],"textures":[{"sampler":0,"source":0},{"sampler":0,"source":1},{"sampler":0,"source":2}],"samplers":[{"magFilter":9729,"minFilter":9987}],"images":[{"mimeType":"image/jpeg","name":"barrel_03_nor_gl","uri":"textures/barrel_03_nor_gl_1k.jpg"},{"mimeType":"image/jpeg","name":"barrel_03_diff","uri":"textures/barrel_03_diff_1k.jpg"},{"mimeType":"image/jpeg","name":"barrel_03_metal-barrel_03_rough","uri":"textures/barrel_03_arm_1k.jpg"}]}
