{"asset":{"version":"2.0","generator":"prepare_city_assets.py"},"scene":0,"scenes":[{"nodes":[0]}],"nodes":[{"name":"fairheaven_sw84","mesh":0}],"meshes":[{"name":"fairheaven_sw84","primitives":[{"attributes":{"POSITION":0,"NORMAL":1,"TEXCOORD_0":2},"indices":3,"material":0},{"attributes":{"POSITION":4,"NORMAL":5,"TEXCOORD_0":6},"indices":7,"material":1},{"attributes":{"POSITION":8,"NORMAL":9,"TEXCOORD_0":10},"indices":11,"material":2},{"attributes":{"POSITION":12,"NORMAL":13,"TEXCOORD_0":14},"indices":15,"material":3},{"attributes":{"POSITION":16,"NORMAL":17,"TEXCOORD_0":18},"indices":19,"material":4},{"attributes":{"POSITION":20,"NORMAL":21,"TEXCOORD_0":22},"indices":23,"material":5},{"attributes":{"POSITION":24,"NORMAL":25,"TEXCOORD_0":26},"indices":27,"material":6},{"attributes":{"POSITION":28,"NORMAL":29,"TEXCOORD_0":30},"indices":31,"material":7}]}],"materials":[{"doubleSided":true,"extensions":{"KHR_materials_specular":{"specularColorFactor":[1.0,1.0,1.0],"specularFactor":1.0,"specularTexture":{"index":3}}},"name":"UCB_BOTTOM_GT","normalTexture":{"index":2},"occlusionTexture":{"index":1},"pbrMetallicRoughness":{"baseColorTexture":{"index":0},"metallicRoughnessTexture":{"index":1}}},{"doubleSided":true,"name":"UCB_Lights_and_Glass","pbrMetallicRoughness":{"baseColorTexture":{"index":4},"metallicFactor":0.3,"roughnessFactor":0.1}},{"alphaMode":"BLEND","doubleSided":true,"name":"UCB_Lights_and_Glass_Transperent","pbrMetallicRoughness":{"baseColorFactor":[1.0,1.0,1.0,0.7],"baseColorTexture":{"index":4},"metallicFactor":0.0,"roughnessFactor":0.1}},{"doubleSided":true,"extensions":{"KHR_materials_specular":{"specularColorFactor":[1.0,1.0,1.0],"specularFactor":1.0,"specularTexture":{"index":6}}},"name":"UCB_Interior_Trim","normalTexture":{"index":2},"occlusionTexture":{"index":5},"pbrMetallicRoughness":{"baseColorTexture":{"index":0},"metallicRoughnessTexture":{"index":5}}},{"alphaMode":"BLEND","doubleSided":true,"name":"Numberplates_Misk_U","pbrMetallicRoughness":{"baseColorTexture":{"index":7},"metallicFactor":0.0,"roughnessFactor":0.10702864035024488}},{"doubleSided":true,"name":"Fairheaven_LT80_Bodymat","normalTexture":{"index":9},"occlusionTexture":{"index":8},"pbrMetallicRoughness":{"baseColorFactor":[0.02,0.035,0.11,1],"roughnessFactor":0.3,"metallicFactor":0.15}},{"alphaMode":"BLEND","doubleSided":true,"name":"Carbadges_misc_U","pbrMetallicRoughness":{"baseColorTexture":{"index":11},"metallicFactor":0.76489555606446,"roughnessFactor":0.10702864035024488}},{"doubleSided":true,"extensions":{"KHR_materials_specular":{"specularColorFactor":[1.0,1.0,1.0],"specularFactor":1.0,"specularTexture":{"index":14}}},"name":"RB1c_Tire_1k","occlusionTexture":{"index":13},"pbrMetallicRoughness":{"baseColorTexture":{"index":12},"metallicFactor":0.9,"metallicRoughnessTexture":{"index":13}}}],"textures":[{"sampler":0,"source":0},{"sampler":0,"source":1},{"sampler":0,"source":2},{"sampler":0,"source":3},{"sampler":0,"source":4},{"sampler":0,"source":5},{"sampler":0,"source":6},{"sampler":0,"source":7},{"sampler":0,"source":8},{"sampler":0,"source":9},{"sampler":0,"source":10},{"sampler":0,"source":11},{"sampler":0,"source":12},{"sampler":0,"source":13},{"sampler":0,"source":14}],"images":[{"uri":"textures/UCB_BOTTOM_GT_baseColor.jpg"},{"uri":"textures/UCB_BOTTOM_GT_metallicRoughness.jpg"},{"uri":"textures/UCB_BOTTOM_GT_normal.jpg"},{"uri":"textures/UCB_BOTTOM_GT_specularf0.jpg"},{"uri":"textures/UCB_Lights_and_Glass_baseColor.png"},{"uri":"textures/UCB_Interior_Trim_metallicRoughness.jpg"},{"uri":"textures/UCB_Interior_Trim_specularf0.jpg"},{"uri":"textures/Numberplates_Misk_U_baseColor.png"},{"uri":"textures/Fairheaven_LT80_Bodymat_metallicRoughness.jpg"},{"uri":"textures/Fairheaven_LT80_Bodymat_normal.jpg"},{"uri":"textures/Fairheaven_LT80_Bodymat_specularf0.jpg"},{"uri":"textures/Carbadges_misc_U_baseColor.png"},{"uri":"textures/RB1c_Tire_1k_baseColor.jpg"},{"uri":"textures/RB1c_Tire_1k_metallicRoughness.jpg"},{"uri":"textures/RB1c_Tire_1k_specularf0.jpg"}],"samplers":[{"magFilter":9729,"minFilter":9987,"wrapS":10497,"wrapT":10497}],"buffers":[{"uri":"model.bin","byteLength":789916}],"bufferViews":[{"buffer":0,"byteOffset":0,"byteLength":64464,"target":34962},{"buffer":0,"byteOffset":64464,"byteLength":64464,"target":34962},{"buffer":0,"byteOffset":128928,"byteLength":42976,"target":34962},{"buffer":0,"byteOffset":171904,"byteLength":70704,"target":34963},{"buffer":0,"byteOffset":242608,"byteLength":1992,"target":34962},{"buffer":0,"byteOffset":244600,"byteLength":1992,"target":34962},{"buffer":0,"byteOffset":246592,"byteLength":1328,"target":34962},{"buffer":0,"byteOffset":247920,"byteLength":1896,"target":34963},{"buffer":0,"byteOffset":249816,"byteLength":3900,"target":34962},{"buffer":0,"byteOffset":253716,"byteLength":3900,"target":34962},{"buffer":0,"byteOffset":257616,"byteLength":2600,"target":34962},{"buffer":0,"byteOffset":260216,"byteLength":3864,"target":34963},{"buffer":0,"byteOffset":264080,"byteLength":41628,"target":34962},{"buffer":0,"byteOffset":305708,"byteLength":41628,"target":34962},{"buffer":0,"byteOffset":347336,"byteLength":27752,"target":34962},{"buffer":0,"byteOffset":375088,"byteLength":43884,"target":34963},{"buffer":0,"byteOffset":418972,"byteLength":2304,"target":34962},{"buffer":0,"byteOffset":421276,"byteLength":2304,"target":34962},{"buffer":0,"byteOffset":423580,"byteLength":1536,"target":34962},{"buffer":0,"byteOffset":425116,"byteLength":1920,"target":34963},{"buffer":0,"byteOffset":427036,"byteLength":62040,"target":34962},{"buffer":0,"byteOffset":489076,"byteLength":62040,"target":34962},{"buffer":0,"byteOffset":551116,"byteLength":41360,"target":34962},{"buffer":0,"byteOffset":592476,"byteLength":76224,"target":34963},{"buffer":0,"byteOffset":668700,"byteLength":876,"target":34962},{"buffer":0,"byteOffset":669576,"byteLength":876,"target":34962},{"buffer":0,"byteOffset":670452,"byteLength":584,"target":34962},{"buffer":0,"byteOffset":671036,"byteLength":480,"target":34963},{"buffer":0,"byteOffset":671516,"byteLength":31440,"target":34962},{"buffer":0,"byteOffset":702956,"byteLength":31440,"target":34962},{"buffer":0,"byteOffset":734396,"byteLength":20960,"target":34962},{"buffer":0,"byteOffset":755356,"byteLength":34560,"target":34963}],"accessors":[{"bufferView":0,"componentType":5126,"count":5372,"type":"VEC3","min":[-2.5138962268829346,-0.9277171492576599,0.16237801313400269],"max":[2.5138962268829346,0.9277171492576599,1.398019552230835]},{"bufferView":1,"componentType":5126,"count":5372,"type":"VEC3"},{"bufferView":2,"componentType":5126,"count":5372,"type":"VEC2"},{"bufferView":3,"componentType":5125,"count":17676,"type":"SCALAR"},{"bufferView":4,"componentType":5126,"count":166,"type":"VEC3","min":[-2.3615994453430176,-0.7607843279838562,0.5515838861465454],"max":[2.203747272491455,0.7612457871437073,0.7551590204238892]},{"bufferView":5,"componentType":5126,"count":166,"type":"VEC3"},{"bufferView":6,"componentType":5126,"count":166,"type":"VEC2"},{"bufferView":7,"componentType":5125,"count":474,"type":"SCALAR"},{"bufferView":8,"componentType":5126,"count":325,"type":"VEC3","min":[-2.3615996837615967,-0.7580279111862183,0.5638856887817383],"max":[2.210631847381592,0.7583974003791809,1.2936080694198608]},{"bufferView":9,"componentType":5126,"count":325,"type":"VEC3"},{"bufferView":10,"componentType":5126,"count":325,"type":"VEC2"},{"bufferView":11,"componentType":5125,"count":966,"type":"SCALAR"},{"bufferView":12,"componentType":5126,"count":3469,"type":"VEC3","min":[-2.3611323833465576,-0.730326235294342,0.30504998564720154],"max":[0.9480987787246704,0.7330365180969238,1.3144824504852295]},{"bufferView":13,"componentType":5126,"count":3469,"type":"VEC3"},{"bufferView":14,"componentType":5126,"count":3469,"type":"VEC2"},{"bufferView":15,"componentType":5125,"count":10971,"type":"SCALAR"},{"bufferView":16,"componentType":5126,"count":192,"type":"VEC3","min":[-2.3663527965545654,-0.7376049757003784,0.30117306113243103],"max":[2.4087162017822266,0.15019939839839935,0.7428147792816162]},{"bufferView":17,"componentType":5126,"count":192,"type":"VEC3"},{"bufferView":18,"componentType":5126,"count":192,"type":"VEC2"},{"bufferView":19,"componentType":5125,"count":480,"type":"SCALAR"},{"bufferView":20,"componentType":5126,"count":5170,"type":"VEC3","min":[-2.510162591934204,-0.882825493812561,0.22578807175159454],"max":[2.503162145614624,0.8832530379295349,1.349426507949829]},{"bufferView":21,"componentType":5126,"count":5170,"type":"VEC3"},{"bufferView":22,"componentType":5126,"count":5170,"type":"VEC2"},{"bufferView":23,"componentType":5125,"count":19056,"type":"SCALAR"},{"bufferView":24,"componentType":5126,"count":73,"type":"VEC3","min":[-2.367609739303589,-0.6306900978088379,0.5525456666946411],"max":[2.2543246746063232,0.49939417839050293,0.8402549028396606]},{"bufferView":25,"componentType":5126,"count":73,"type":"VEC3"},{"bufferView":26,"componentType":5126,"count":73,"type":"VEC2"},{"bufferView":27,"componentType":5125,"count":120,"type":"SCALAR"},{"bufferView":28,"componentType":5126,"count":2620,"type":"VEC3","min":[-1.5129095315933228,-0.8443593382835388,0.0],"max":[1.7448816299438477,0.8423444032669067,0.6071817874908447]},{"bufferView":29,"componentType":5126,"count":2620,"type":"VEC3"},{"bufferView":30,"componentType":5126,"count":2620,"type":"VEC2"},{"bufferView":31,"componentType":5125,"count":8640,"type":"SCALAR"}],"extensionsUsed":["KHR_materials_specular"]}
