{"asset":{"version":"2.0","generator":"prepare_warehouse_assets.py"},"scene":0,"scenes":[{"nodes":[0]}],"nodes":[{"name":"model","mesh":0}],"meshes":[{"name":"model","primitives":[{"attributes":{"POSITION":0,"NORMAL":1,"TEXCOORD_0":2},"indices":3,"material":0}]}],"buffers":[{"uri":"model.bin","byteLength":483648}],"bufferViews":[{"buffer":0,"byteOffset":0,"byteLength":105084,"target":34962},{"buffer":0,"byteOffset":105084,"byteLength":105084,"target":34962},{"buffer":0,"byteOffset":210168,"byteLength":70056,"target":34962},{"buffer":0,"byteOffset":280224,"byteLength":203424,"target":34963}],"accessors":[{"bufferView":0,"componentType":5126,"count":8757,"type":"VEC3","min":[-0.19351179897785187,-0.25793522596359253,0.0],"max":[0.19351179897785187,0.25793522596359253,0.3417995572090149]},{"bufferView":1,"componentType":5126,"count":8757,"type":"VEC3"},{"bufferView":2,"componentType":5126,"count":8757,"type":"VEC2"},{"bufferView":3,"componentType":5125,"count":50856,"type":"SCALAR"}],"materials":[{"doubleSided":true,"name":"cardboard_box_01","normalTexture":{"index":0},"pbrMetallicRoughness":{"baseColorTexture":{"index":1},"metallicFactor":0,"metallicRoughnessTexture":{"index":2}}}],"textures":[{"sampler":0,"source":0},{"sampler":0,"source":1},{"sampler":0,"source":2}],"samplers":[{"magFilter":9729,"minFilter":9987}],"images":[{"mimeType":"image/jpeg","name":"cardboard_box_01_nor_gl","uri":"textures/cardboard_box_01_nor_gl_1k.jpg"},{"mimeType":"image/jpeg","name":"cardboard_box_01_diff","uri":"textures/cardboard_box_01_diff_1k.jpg"},{"mimeType":"image/jpeg","name":"cardboard_box_01_rough","uri":"textures/cardboard_box_01_arm_1k.jpg"}]}
