{"asset":{"version":"2.0","generator":"prepare_warehouse_assets.py"},"scene":0,"scenes":[{"nodes":[0]}],"nodes":[{"name":"model","mesh":0}],"meshes":[{"name":"model","primitives":[{"attributes":{"POSITION":0,"NORMAL":1,"TEXCOORD_0":2},"indices":3,"material":0},{"attributes":{"POSITION":4,"NORMAL":5,"TEXCOORD_0":6},"indices":7,"material":1},{"attributes":{"POSITION":8,"NORMAL":9,"TEXCOORD_0":10},"indices":11,"material":2}]}],"buffers":[{"uri":"model.bin","byteLength":338956}],"bufferViews":[{"buffer":0,"byteOffset":0,"byteLength":78900,"target":34962},{"buffer":0,"byteOffset":78900,"byteLength":78900,"target":34962},{"buffer":0,"byteOffset":157800,"byteLength":52600,"target":34962},{"buffer":0,"byteOffset":210400,"byteLength":114732,"target":34963},{"buffer":0,"byteOffset":325132,"byteLength":3240,"target":34962},{"buffer":0,"byteOffset":328372,"byteLength":3240,"target":34962},{"buffer":0,"byteOffset":331612,"byteLength":2160,"target":34962},{"buffer":0,"byteOffset":333772,"byteLength":3840,"target":34963},{"buffer":0,"byteOffset":337612,"byteLength":360,"target":34962},{"buffer":0,"byteOffset":337972,"byteLength":360,"target":34962},{"buffer":0,"byteOffset":338332,"byteLength":240,"target":34962},{"buffer":0,"byteOffset":338572,"byteLength":384,"target":34963}],"accessors":[{"bufferView":0,"componentType":5126,"count":6575,"type":"VEC3","min":[-0.1399787962436676,-0.1837216317653656,0.0],"max":[0.1399787962436676,0.1837216317653656,0.6592507362365723]},{"bufferView":1,"componentType":5126,"count":6575,"type":"VEC3"},{"bufferView":2,"componentType":5126,"count":6575,"type":"VEC2"},{"bufferView":3,"componentType":5125,"count":28683,"type":"SCALAR"},{"bufferView":4,"componentType":5126,"count":270,"type":"VEC3","min":[-0.021087754517793655,-0.011534318327903748,0.5549081563949585],"max":[0.02111588791012764,-0.005499817430973053,0.5971118807792664]},{"bufferView":5,"componentType":5126,"count":270,"type":"VEC3"},{"bufferView":6,"componentType":5126,"count":270,"type":"VEC2"},{"bufferView":7,"componentType":5125,"count":960,"type":"SCALAR"},{"bufferView":8,"componentType":5126,"count":30,"type":"VEC3","min":[-0.08279980719089508,0.053110092878341675,0.47684016823768616],"max":[-0.0016376168932765722,0.137725830078125,0.5324327945709229]},{"bufferView":9,"componentType":5126,"count":30,"type":"VEC3"},{"bufferView":10,"componentType":5126,"count":30,"type":"VEC2"},{"bufferView":11,"componentType":5125,"count":96,"type":"SCALAR"}],"materials":[{"doubleSided":true,"name":"korean_fire_extinguisher_01_body","normalTexture":{"index":0},"pbrMetallicRoughness":{"baseColorTexture":{"index":1},"metallicRoughnessTexture":{"index":2}}},{"alphaMode":"BLEND","doubleSided":true,"name":"korean_fire_extinguisher_01_glass","normalTexture":{"index":3},"pbrMetallicRoughness":{"baseColorFactor":[1,1,1,0.30000001192092896],"baseColorTexture":{"index":4},"metallicRoughnessTexture":{"index":5}}},{"alphaMode":"BLEND","name":"korean_fire_extinguisher_01_paper","normalTexture":{"index":6},"pbrMetallicRoughness":{"baseColorTexture":{"index":7},"metallicRoughnessTexture":{"index":8}}}],"textures":[{"sampler":0,"source":0},{"sampler":0,"source":1},{"sampler":0,"source":2},{"sampler":0,"source":3},{"sampler":0,"source":4},{"sampler":0,"source":5},{"sampler":0,"source":6},{"sampler":0,"source":7},{"sampler":0,"source":8}],"samplers":[{"magFilter":9729,"minFilter":9987}],"images":[{"mimeType":"image/jpeg","name":"korean_fire_extinguisher_01_body_nor_gl","uri":"textures/korean_fire_extinguisher_01_body_nor_gl_1k.jpg"},{"mimeType":"image/jpeg","name":"korean_fire_extinguisher_01_body_diff.png","uri":"textures/korean_fire_extinguisher_01_body_diff_1k.jpg"},{"mimeType":"image/jpeg","name":"korean_fire_extinguisher_01_body_metal.png-korean_fire_extinguisher_01_body_rough.png","uri":"textures/korean_fire_extinguisher_01_body_arm_1k.jpg"},{"mimeType":"image/jpeg","name":"korean_fire_extinguisher_01_glass_nor_gl","uri":"textures/korean_fire_extinguisher_01_glass_nor_gl_1k.jpg"},{"mimeType":"image/jpeg","name":"korean_fire_extinguisher_01_glass_diff","uri":"textures/korean_fire_extinguisher_01_glass_diff_1k.jpg"},{"mimeType":"image/jpeg","name":"korean_fire_extinguisher_01_glass_metal-korean_fire_extinguisher_01_glass_rough","uri":"textures/korean_fire_extinguisher_01_glass_arm_1k.jpg"},{"mimeType":"image/jpeg","name":"korean_fire_extinguisher_01_paper_nor_gl","uri":"textures/korean_fire_extinguisher_01_paper_nor_gl_1k.jpg"},{"mimeType":"image/jpeg","name":"korean_fire_extinguisher_01_paper_diff-korean_fire_extinguisher_01_paper_opacity","uri":"textures/korean_fire_extinguisher_01_paper_diff_1k.jpg"},{"mimeType":"image/jpeg","name":"korean_fire_extinguisher_01_paper_metal-korean_fire_extinguisher_01_paper_rough","uri":"textures/korean_fire_extinguisher_01_paper_arm_1k.jpg"}]}
