{"asset":{"generator":"Khronos glTF Blender I/O v3.6.27","version":"2.0"},"scene":0,"scenes":[{"nodes":[0]}],"nodes":[{"name":"water_manhole_cover","rotation":[0.7071067811865476,0,0,0.7071067811865476],"children":[1,2]},{"mesh":0,"name":"water_manhole_cover_frame","translation":[0,0,0]},{"mesh":1,"name":"water_manhole_cover","translation":[0,0,0]}],"materials":[{"doubleSided":true,"name":"water_manhole_cover","normalTexture":{"index":0},"pbrMetallicRoughness":{"baseColorTexture":{"index":1},"metallicRoughnessTexture":{"index":2}}}],"meshes":[{"name":"Cylinder.008","primitives":[{"attributes":{"POSITION":1,"NORMAL":2,"TEXCOORD_0":3},"indices":0,"material":0}]},{"name":"Cylinder.001","primitives":[{"attributes":{"POSITION":5,"NORMAL":6,"TEXCOORD_0":7},"indices":4,"material":0}]}],"textures":[{"sampler":0,"source":0},{"sampler":0,"source":1},{"sampler":0,"source":2}],"images":[{"mimeType":"image/jpeg","name":"water_manhole_cover_nor_gl","uri":"textures/water_manhole_cover_nor_gl_1k.jpg"},{"mimeType":"image/jpeg","name":"water_manhole_cover_diff","uri":"textures/water_manhole_cover_diff_1k.jpg"},{"mimeType":"image/jpeg","name":"water_manhole_cover_metal-water_manhole_cover_rough","uri":"textures/water_manhole_cover_arm_1k.jpg"}],"accessors":[{"bufferView":0,"componentType":5123,"count":1920,"type":"SCALAR"},{"bufferView":1,"componentType":5126,"count":576,"max":[0.3453802466392517,0.03877965733408928,0.3453802466392517],"min":[-0.3453802466392517,-0.028761375695466995,-0.3453802466392517],"type":"VEC3"},{"bufferView":2,"componentType":5126,"count":576,"type":"VEC3"},{"bufferView":3,"componentType":5126,"count":576,"type":"VEC2"},{"bufferView":4,"componentType":5123,"count":16983,"type":"SCALAR"},{"bufferView":5,"componentType":5126,"count":4565,"max":[0.3047727644443512,0.038856424391269684,0.2999168932437897],"min":[-0.3047727644443512,0.014296040870249271,-0.2999168932437897],"type":"VEC3"},{"bufferView":6,"componentType":5126,"count":4565,"type":"VEC3"},{"bufferView":7,"componentType":5126,"count":4565,"type":"VEC2"}],"bufferViews":[{"buffer":0,"byteLength":3840,"byteOffset":18432,"target":34963},{"buffer":0,"byteLength":6912,"byteOffset":0,"target":34962},{"buffer":0,"byteLength":6912,"byteOffset":6912,"target":34962},{"buffer":0,"byteLength":4608,"byteOffset":13824,"target":34962},{"buffer":0,"byteLength":33966,"byteOffset":168352,"target":34963},{"buffer":0,"byteLength":54780,"byteOffset":22272,"target":34962},{"buffer":0,"byteLength":54780,"byteOffset":77052,"target":34962},{"buffer":0,"byteLength":36520,"byteOffset":131832,"target":34962}],"samplers":[{"magFilter":9729,"minFilter":9987}],"buffers":[{"byteLength":202320,"uri":"water_manhole_cover.bin"}]}
