{"asset":{"version":"2.0","generator":"prepare_warehouse_assets.py"},"scene":0,"scenes":[{"nodes":[0]}],"nodes":[{"name":"model","mesh":0}],"meshes":[{"name":"model","primitives":[{"attributes":{"POSITION":0,"NORMAL":1,"TEXCOORD_0":2},"indices":3,"material":0}]}],"buffers":[{"uri":"model.bin","byteLength":168400}],"bufferViews":[{"buffer":0,"byteOffset":0,"byteLength":43584,"target":34962},{"buffer":0,"byteOffset":43584,"byteLength":43584,"target":34962},{"buffer":0,"byteOffset":87168,"byteLength":29056,"target":34962},{"buffer":0,"byteOffset":116224,"byteLength":52176,"target":34963}],"accessors":[{"bufferView":0,"componentType":5126,"count":3632,"type":"VEC3","min":[-0.5487072467803955,-0.25105875730514526,0.0],"max":[0.5487072467803955,0.25105875730514526,2.140500545501709]},{"bufferView":1,"componentType":5126,"count":3632,"type":"VEC3"},{"bufferView":2,"componentType":5126,"count":3632,"type":"VEC2"},{"bufferView":3,"componentType":5125,"count":13044,"type":"SCALAR"}],"materials":[{"doubleSided":true,"name":"steel_frame_shelves_01","normalTexture":{"index":0},"pbrMetallicRoughness":{"baseColorTexture":{"index":1},"metallicRoughnessTexture":{"index":2}}}],"textures":[{"sampler":0,"source":0},{"sampler":0,"source":1},{"sampler":0,"source":2}],"samplers":[{"magFilter":9729,"minFilter":9987}],"images":[{"mimeType":"image/jpeg","name":"steel_frame_shelves_01_nor_gl","uri":"textures/steel_frame_shelves_01_nor_gl_1k.jpg"},{"mimeType":"image/jpeg","name":"steel_frame_shelves_01_diff","uri":"textures/steel_frame_shelves_01_diff_1k.jpg"},{"mimeType":"image/jpeg","name":"steel_frame_shelves_01_metal-steel_frame_shelves_01_rough","uri":"textures/steel_frame_shelves_01_arm_1k.jpg"}]}
