{"asset":{"version":"2.0","generator":"prepare_warehouse_assets.py"},"scene":0,"scenes":[{"nodes":[0]}],"nodes":[{"name":"model","mesh":0}],"meshes":[{"name":"model","primitives":[{"attributes":{"POSITION":0,"NORMAL":1,"TEXCOORD_0":2},"indices":3,"material":0},{"attributes":{"POSITION":4,"NORMAL":5,"TEXCOORD_0":6},"indices":7,"material":1},{"attributes":{"POSITION":8,"NORMAL":9,"TEXCOORD_0":10},"indices":11,"material":2}]}],"buffers":[{"uri":"model.bin","byteLength":434628}],"bufferViews":[{"buffer":0,"byteOffset":0,"byteLength":76176,"target":34962},{"buffer":0,"byteOffset":76176,"byteLength":76176,"target":34962},{"buffer":0,"byteOffset":152352,"byteLength":50784,"target":34962},{"buffer":0,"byteOffset":203136,"byteLength":77028,"target":34963},{"buffer":0,"byteOffset":280164,"byteLength":19152,"target":34962},{"buffer":0,"byteOffset":299316,"byteLength":19152,"target":34962},{"buffer":0,"byteOffset":318468,"byteLength":12768,"target":34962},{"buffer":0,"byteOffset":331236,"byteLength":17808,"target":34963},{"buffer":0,"byteOffset":349044,"byteLength":24336,"target":34962},{"buffer":0,"byteOffset":373380,"byteLength":24336,"target":34962},{"buffer":0,"byteOffset":397716,"byteLength":16224,"target":34962},{"buffer":0,"byteOffset":413940,"byteLength":20688,"target":34963}],"accessors":[{"bufferView":0,"componentType":5126,"count":6348,"type":"VEC3","min":[-1.444798231124878,-0.6240811944007874,0.0],"max":[1.703033685684204,0.6240811944007874,2.142510414123535]},{"bufferView":1,"componentType":5126,"count":6348,"type":"VEC3"},{"bufferView":2,"componentType":5126,"count":6348,"type":"VEC2"},{"bufferView":3,"componentType":5125,"count":19257,"type":"SCALAR"},{"bufferView":4,"componentType":5126,"count":1596,"type":"VEC3","min":[-1.449867606163025,-0.5495744347572327,1.1517261266708374],"max":[0.19900646805763245,0.5445460677146912,2.067286729812622]},{"bufferView":5,"componentType":5126,"count":1596,"type":"VEC3"},{"bufferView":6,"componentType":5126,"count":1596,"type":"VEC2"},{"bufferView":7,"componentType":5125,"count":4452,"type":"SCALAR"},{"bufferView":8,"componentType":5126,"count":2028,"type":"VEC3","min":[-1.703033685684204,-0.6163426041603088,0.14471642673015594],"max":[0.5109213590621948,0.6111206412315369,2.081087827682495]},{"bufferView":9,"componentType":5126,"count":2028,"type":"VEC3"},{"bufferView":10,"componentType":5126,"count":2028,"type":"VEC2"},{"bufferView":11,"componentType":5125,"count":5172,"type":"SCALAR"}],"materials":[{"doubleSided":true,"name":"lambert3","normalTexture":{"index":2},"occlusionTexture":{"index":1},"pbrMetallicRoughness":{"baseColorTexture":{"index":0},"metallicRoughnessTexture":{"index":1}}},{"doubleSided":true,"emissiveFactor":[0.504954268292683,0.504954268292683,0.504954268292683],"emissiveTexture":{"index":5},"name":"forkAinitialShadingGroup1","normalTexture":{"index":6},"occlusionTexture":{"index":4},"pbrMetallicRoughness":{"baseColorTexture":{"index":3},"metallicRoughnessTexture":{"index":4}}},{"doubleSided":true,"name":"forkAforklift_body_ASG1","normalTexture":{"index":6},"occlusionTexture":{"index":4},"pbrMetallicRoughness":{"baseColorTexture":{"index":3},"metallicRoughnessTexture":{"index":4}}}],"textures":[{"sampler":0,"source":0},{"sampler":0,"source":1},{"sampler":0,"source":2},{"sampler":0,"source":3},{"sampler":0,"source":4},{"sampler":0,"source":5},{"sampler":0,"source":6}],"samplers":[{"magFilter":9729,"minFilter":9987,"wrapS":10497,"wrapT":10497}],"images":[{"uri":"textures/lambert3_baseColor.jpg"},{"uri":"textures/lambert3_metallicRoughness.jpg"},{"uri":"textures/lambert3_normal.jpg"},{"uri":"textures/forkAinitialShadingGroup1_baseColor.jpg"},{"uri":"textures/forkAinitialShadingGroup1_metallicRoughness.jpg"},{"uri":"textures/forkAinitialShadingGroup1_emissive.jpg"},{"uri":"textures/forkAinitialShadingGroup1_normal.jpg"}]}
