{"asset":{"version":"2.0","generator":"prepare_warehouse_assets.py"},"scene":0,"scenes":[{"nodes":[0]}],"nodes":[{"name":"model","mesh":0}],"meshes":[{"name":"model","primitives":[{"attributes":{"POSITION":0,"NORMAL":1,"TEXCOORD_0":2},"indices":3,"material":4},{"attributes":{"POSITION":4,"NORMAL":5,"TEXCOORD_0":6},"indices":7,"material":2},{"attributes":{"POSITION":8,"NORMAL":9,"TEXCOORD_0":10},"indices":11,"material":3},{"attributes":{"POSITION":12,"NORMAL":13,"TEXCOORD_0":14},"indices":15,"material":1},{"attributes":{"POSITION":16,"NORMAL":17,"TEXCOORD_0":18},"indices":19,"material":0}]}],"buffers":[{"uri":"model.bin","byteLength":213680}],"bufferViews":[{"buffer":0,"byteOffset":0,"byteLength":6264,"target":34962},{"buffer":0,"byteOffset":6264,"byteLength":6264,"target":34962},{"buffer":0,"byteOffset":12528,"byteLength":4176,"target":34962},{"buffer":0,"byteOffset":16704,"byteLength":6144,"target":34963},{"buffer":0,"byteOffset":22848,"byteLength":15936,"target":34962},{"buffer":0,"byteOffset":38784,"byteLength":15936,"target":34962},{"buffer":0,"byteOffset":54720,"byteLength":10624,"target":34962},{"buffer":0,"byteOffset":65344,"byteLength":16560,"target":34963},{"buffer":0,"byteOffset":81904,"byteLength":6624,"target":34962},{"buffer":0,"byteOffset":88528,"byteLength":6624,"target":34962},{"buffer":0,"byteOffset":95152,"byteLength":4416,"target":34962},{"buffer":0,"byteOffset":99568,"byteLength":10752,"target":34963},{"buffer":0,"byteOffset":110320,"byteLength":19872,"target":34962},{"buffer":0,"byteOffset":130192,"byteLength":19872,"target":34962},{"buffer":0,"byteOffset":150064,"byteLength":13248,"target":34962},{"buffer":0,"byteOffset":163312,"byteLength":21504,"target":34963},{"buffer":0,"byteOffset":184816,"byteLength":8628,"target":34962},{"buffer":0,"byteOffset":193444,"byteLength":8628,"target":34962},{"buffer":0,"byteOffset":202072,"byteLength":5752,"target":34962},{"buffer":0,"byteOffset":207824,"byteLength":5856,"target":34963}],"accessors":[{"bufferView":0,"componentType":5126,"count":522,"type":"VEC3","min":[0.6397024989128113,-0.07995849847793579,0.020002007484436035],"max":[0.7780675292015076,0.079243503510952,0.4180840253829956]},{"bufferView":1,"componentType":5126,"count":522,"type":"VEC3"},{"bufferView":2,"componentType":5126,"count":522,"type":"VEC2"},{"bufferView":3,"componentType":5125,"count":1536,"type":"SCALAR"},{"bufferView":4,"componentType":5126,"count":1328,"type":"VEC3","min":[-0.5969434976577759,-0.2827560007572174,0.020500056445598602],"max":[0.7991204857826233,0.28389599919319153,1.092486023902893]},{"bufferView":5,"componentType":5126,"count":1328,"type":"VEC3"},{"bufferView":6,"componentType":5126,"count":1328,"type":"VEC2"},{"bufferView":7,"componentType":5125,"count":4140,"type":"SCALAR"},{"bufferView":8,"componentType":5126,"count":552,"type":"VEC3","min":[0.6197004914283752,-0.07627420127391815,0.0],"max":[0.7980694770812988,0.07555919885635376,0.17836901545524597]},{"bufferView":9,"componentType":5126,"count":552,"type":"VEC3"},{"bufferView":10,"componentType":5126,"count":552,"type":"VEC2"},{"bufferView":11,"componentType":5125,"count":2688,"type":"SCALAR"},{"bufferView":12,"componentType":5126,"count":1656,"type":"VEC3","min":[-0.6162865161895752,-0.27493301033973694,0.0011570379137992859],"max":[-0.4437825381755829,0.27515900135040283,0.07968208193778992]},{"bufferView":13,"componentType":5126,"count":1656,"type":"VEC3"},{"bufferView":14,"componentType":5126,"count":1656,"type":"VEC2"},{"bufferView":15,"componentType":5125,"count":5376,"type":"SCALAR"},{"bufferView":16,"componentType":5126,"count":719,"type":"VEC3","min":[-0.7991204857826233,-0.28845399618148804,0.030082039535045624],"max":[0.7264825105667114,0.28845399618148804,0.4366370141506195]},{"bufferView":17,"componentType":5126,"count":719,"type":"VEC3"},{"bufferView":18,"componentType":5126,"count":719,"type":"VEC2"},{"bufferView":19,"componentType":5125,"count":1464,"type":"SCALAR"}],"materials":[{"doubleSided":true,"name":"Transpalet_Renk","normalTexture":{"index":2},"occlusionTexture":{"index":1},"pbrMetallicRoughness":{"baseColorTexture":{"index":0},"metallicRoughnessTexture":{"index":1}}},{"doubleSided":true,"name":"Lastik","normalTexture":{"index":5},"occlusionTexture":{"index":4},"pbrMetallicRoughness":{"baseColorTexture":{"index":3},"metallicRoughnessTexture":{"index":4}}},{"doubleSided":true,"name":"Siyah_Metal","normalTexture":{"index":8},"occlusionTexture":{"index":7},"pbrMetallicRoughness":{"baseColorTexture":{"index":6},"metallicRoughnessTexture":{"index":7}}},{"doubleSided":true,"name":"Tire_Dark","normalTexture":{"index":11},"occlusionTexture":{"index":10},"pbrMetallicRoughness":{"baseColorTexture":{"index":9},"metallicRoughnessTexture":{"index":10}}},{"doubleSided":true,"name":"Metal","normalTexture":{"index":14},"occlusionTexture":{"index":13},"pbrMetallicRoughness":{"baseColorTexture":{"index":12},"metallicRoughnessTexture":{"index":13}}}],"textures":[{"sampler":0,"source":0},{"sampler":0,"source":1},{"sampler":0,"source":2},{"sampler":0,"source":3},{"sampler":0,"source":4},{"sampler":0,"source":5},{"sampler":0,"source":6},{"sampler":0,"source":7},{"sampler":0,"source":8},{"sampler":0,"source":9},{"sampler":0,"source":10},{"sampler":0,"source":11},{"sampler":0,"source":12},{"sampler":0,"source":13},{"sampler":0,"source":14}],"samplers":[{"magFilter":9729,"minFilter":9987,"wrapS":10497,"wrapT":10497}],"images":[{"uri":"textures/Transpalet_Renk_baseColor.jpg"},{"uri":"textures/Transpalet_Renk_metallicRoughness.jpg"},{"uri":"textures/Transpalet_Renk_normal.jpg"},{"uri":"textures/Lastik_baseColor.jpg"},{"uri":"textures/Lastik_metallicRoughness.jpg"},{"uri":"textures/Lastik_normal.jpg"},{"uri":"textures/Siyah_Metal_baseColor.jpg"},{"uri":"textures/Siyah_Metal_metallicRoughness.jpg"},{"uri":"textures/Siyah_Metal_normal.jpg"},{"uri":"textures/Tire_Dark_baseColor.jpg"},{"uri":"textures/Tire_Dark_metallicRoughness.jpg"},{"uri":"textures/Tire_Dark_normal.jpg"},{"uri":"textures/Metal_baseColor.jpg"},{"uri":"textures/Metal_metallicRoughness.jpg"},{"uri":"textures/Metal_normal.jpg"}]}
