{"asset":{"version":"2.0","generator":"prepare_warehouse_assets.py"},"scene":0,"scenes":[{"nodes":[0]}],"nodes":[{"name":"model","mesh":0}],"meshes":[{"name":"model","primitives":[{"attributes":{"POSITION":0,"NORMAL":1,"TEXCOORD_0":2},"indices":3,"material":0}]}],"buffers":[{"uri":"model.bin","byteLength":1072024}],"bufferViews":[{"buffer":0,"byteOffset":0,"byteLength":269736,"target":34962},{"buffer":0,"byteOffset":269736,"byteLength":269736,"target":34962},{"buffer":0,"byteOffset":539472,"byteLength":179824,"target":34962},{"buffer":0,"byteOffset":719296,"byteLength":352728,"target":34963}],"accessors":[{"bufferView":0,"componentType":5126,"count":22478,"type":"VEC3","min":[-0.6367126703262329,-0.3768153190612793,0.0],"max":[0.6367126703262329,0.3768153190612793,0.964644730091095]},{"bufferView":1,"componentType":5126,"count":22478,"type":"VEC3"},{"bufferView":2,"componentType":5126,"count":22478,"type":"VEC2"},{"bufferView":3,"componentType":5125,"count":88182,"type":"SCALAR"}],"materials":[{"doubleSided":true,"name":"tool_cart","normalTexture":{"index":0},"pbrMetallicRoughness":{"baseColorTexture":{"index":1},"metallicRoughnessTexture":{"index":2}}}],"textures":[{"sampler":0,"source":0},{"sampler":0,"source":1},{"sampler":0,"source":2}],"samplers":[{"magFilter":9729,"minFilter":9987}],"images":[{"mimeType":"image/jpeg","name":"tool_cart_nor_gl","uri":"textures/tool_cart_nor_gl_1k.jpg"},{"mimeType":"image/jpeg","name":"tool_cart_diff","uri":"textures/tool_cart_diff_1k.jpg"},{"mimeType":"image/jpeg","name":"tool_cart_metal-tool_cart_rough","uri":"textures/tool_cart_arm_1k.jpg"}]}
