{"asset":{"version":"2.0","generator":"prepare_city_assets.py"},"scene":0,"scenes":[{"nodes":[0]}],"nodes":[{"name":"traffic_cone","mesh":0}],"meshes":[{"name":"traffic_cone","primitives":[{"material":0,"indices":3,"attributes":{"POSITION":0,"NORMAL":1,"TEXCOORD_0":2}}]}],"materials":[{"doubleSided":true,"name":"TrafficCone","normalTexture":{"index":0},"pbrMetallicRoughness":{"baseColorTexture":{"index":1},"metallicFactor":0,"metallicRoughnessTexture":{"index":2}}}],"samplers":[{"magFilter":9729,"minFilter":9987}],"images":[{"uri":"textures/traffic_cone_normal.jpg"},{"uri":"textures/traffic_cone_diffuse.jpg"},{"uri":"textures/traffic_cone_roughness.jpg"}],"textures":[{"source":0,"sampler":0},{"source":1,"sampler":0},{"source":2,"sampler":0}],"buffers":[{"uri":"model.bin","byteLength":349416}],"bufferViews":[{"buffer":0,"byteOffset":0,"byteLength":80532},{"buffer":0,"byteOffset":80532,"byteLength":80532},{"buffer":0,"byteOffset":161064,"byteLength":53688},{"buffer":0,"byteOffset":214752,"byteLength":134664}],"accessors":[{"bufferView":0,"componentType":5126,"count":6711,"type":"VEC3","min":[-0.13687266409397125,-0.14909039437770844,0.0],"max":[0.15364284813404083,0.14160585403442383,0.5305525660514832]},{"bufferView":1,"componentType":5126,"count":6711,"type":"VEC3"},{"bufferView":2,"componentType":5126,"count":6711,"type":"VEC2"},{"bufferView":3,"componentType":5125,"count":33666,"type":"SCALAR"}]}
